<?xml version="1.0" encoding="utf-8"?>
<!-- Generator: Adobe Illustrator 17.0.0, SVG Export Plug-In . SVG Version: 6.00 Build 0)  -->
<!DOCTYPE svg PUBLIC "-//W3C//DTD SVG 1.1//EN" "http://www.w3.org/Graphics/SVG/1.1/DTD/svg11.dtd">
<svg version="1.1" id="Layer_1" xmlns="http://www.w3.org/2000/svg" xmlns:xlink="http://www.w3.org/1999/xlink" x="0px" y="0px"
	 fill="#000000" width="24px" height="24px" viewBox="0 0 24 24" enable-background="new 0 0 24 24" xml:space="preserve">
<path  d="M18.01,2H14H6C4.9,2,4,2.9,4,4v16c0,1.1,0.89,2,1.99,2H10h8c1.1,0,2-0.9,2-2V4C20,2.9,19.11,2,18.01,2z
	 M6.624,13.563h1.771v1.984H6.624V13.563z M8.406,19.079H6.635v-1.984h1.771V19.079z M12.875,19.079h-1.771v-1.984h1.771V19.079z
	 M12.875,15.547h-1.771v-1.984h1.771V15.547z M12.875,11.779H6.624V9.795h6.251V11.779z M17.355,19.079h-1.771v-1.984h1.771V19.079z
	 M17.355,15.547h-1.771v-1.984h1.771V15.547z M17.355,11.779h-1.771V9.795h1.771V11.779z M17.355,7.209H6.625V4.167h10.73V7.209z"/>
</svg>
