<?xml version="1.0" encoding="utf-8"?>
<!-- Generator: Adobe Illustrator 17.0.0, SVG Export Plug-In . SVG Version: 6.00 Build 0)  -->
<!DOCTYPE svg PUBLIC "-//W3C//DTD SVG 1.1//EN" "http://www.w3.org/Graphics/SVG/1.1/DTD/svg11.dtd">
<svg version="1.1" id="Layer_1" xmlns="http://www.w3.org/2000/svg" xmlns:xlink="http://www.w3.org/1999/xlink" x="0px" y="0px"
	 width="459px" height="459px" viewBox="0 0 459 459" enable-background="new 0 0 459 459" xml:space="preserve">
<path fill="#757575" d="M229.5,0C102.816,0,0,102.816,0,229.5S102.816,459,229.5,459S459,356.184,459,229.5S356.184,0,229.5,0z
	 M229.5,68.85c38.097,0,68.85,30.753,68.85,68.85s-30.753,68.85-68.85,68.85s-68.85-30.753-68.85-68.85S191.403,68.85,229.5,68.85z
	 M229.5,394.74c-57.375,0-108.094-29.376-137.7-73.899c0.689-45.67,91.8-70.686,137.7-70.686c45.671,0,137.011,25.016,137.7,70.686
	C337.595,365.364,286.875,394.74,229.5,394.74z"/>
</svg>
