<?xml version="1.0" encoding="utf-8"?>
<!-- Generator: Adobe Illustrator 17.0.0, SVG Export Plug-In . SVG Version: 6.00 Build 0)  -->
<!DOCTYPE svg PUBLIC "-//W3C//DTD SVG 1.1//EN" "http://www.w3.org/Graphics/SVG/1.1/DTD/svg11.dtd">
<svg version="1.1" id="Layer_1" xmlns="http://www.w3.org/2000/svg" xmlns:xlink="http://www.w3.org/1999/xlink" x="0px" y="0px"
	 fill="#000000" width="84.985px" height="95px" viewBox="0 0 84.985 95" enable-background="new 0 0 84.985 95" xml:space="preserve">
<g id="Layer_1_1_">
	<g>
		<g>
			<g>
				<path  d="M42.259,21.937c-6.048,0-10.969-4.92-10.969-10.968S36.211,0,42.259,0s10.968,4.92,10.968,10.968
					S48.307,21.937,42.259,21.937z M42.259,3.815c-3.945,0-7.154,3.209-7.154,7.153s3.209,7.153,7.154,7.153
					c3.944,0,7.153-3.209,7.153-7.153S46.203,3.815,42.259,3.815z"/>
			</g>
		</g>
		<g>
			<path  d="M57.984,95H45.002V67.999h-5.019V95H27.002V36.498H0V23.516h84.985v12.982H57.984V95z M48.983,91.018
				h5.02V32.516h27.001v-5.019H3.981v5.019h27.002v58.502h5.019V64.017h12.981V91.018z"/>
		</g>
	</g>
	<g>
		<path  d="M41.487,54.276c0,0-5.632-1.911-5.632-6.403s2.783-4.794,4.593-7.409c1.81-2.649,1.777-3.319,1.777-3.319
			s1.408,1.039,2.313,3.319s0,5.364,0,5.364s1.073-0.536,1.777-1.542s1.039-2.313,1.039-2.313s1.777,1.71,1.777,5.129
			c0,4.895-3.822,7.175-3.822,7.175s-2.347-2.079-3.084-3.587c-0.738-1.475-1.274-3.319-1.274-3.319s-1.039,1.442-1.039,2.816
			C39.978,52.902,41.487,54.276,41.487,54.276z"/>
	</g>
</g>
<g id="Layer_2">
</g>
</svg>
