<?xml version="1.0" encoding="utf-8"?>
<!-- Generator: Adobe Illustrator 17.0.0, SVG Export Plug-In . SVG Version: 6.00 Build 0)  -->
<!DOCTYPE svg PUBLIC "-//W3C//DTD SVG 1.1//EN" "http://www.w3.org/Graphics/SVG/1.1/DTD/svg11.dtd">
<svg version="1.1" id="Layer_1" xmlns="http://www.w3.org/2000/svg" xmlns:xlink="http://www.w3.org/1999/xlink" x="0px" y="0px"
	 fill="#cb2424" width="101.852px" height="95px" viewBox="0 0 101.852 95" enable-background="new 0 0 101.852 95" xml:space="preserve">
<g id="Layer_1_1_">
	<g>
		<path  d="M81.889,55.055l-1.329-1.184c-3.19-2.841-13.794-12.525-16.313-17.848
			c-1.296-2.74-1.456-6.084-0.428-8.946c0.895-2.494,2.616-4.446,4.847-5.496c1.495-0.706,3.175-1.079,4.856-1.079
			c3.403,0,6.587,1.505,8.374,3.897c1.776-2.416,4.981-3.941,8.409-3.941c1.682,0,3.362,0.374,4.86,1.081
			c2.229,1.049,3.949,3.003,4.844,5.5c1.025,2.86,0.865,6.2-0.43,8.935c-2.531,5.353-13.163,15.052-16.361,17.897L81.889,55.055z
			 M73.523,24.501c-1.095,0-2.185,0.241-3.151,0.697c-1.264,0.595-2.253,1.742-2.787,3.23c-0.677,1.884-0.573,4.083,0.278,5.884
			c1.62,3.423,8.289,10.158,14.028,15.375c5.755-5.226,12.444-11.979,14.074-15.424c0.85-1.796,0.954-3.992,0.279-5.875
			c-0.533-1.49-1.522-2.637-2.784-3.231c-0.97-0.458-2.06-0.699-3.154-0.699c-2.314,0-4.492,1.07-5.417,2.662l-0.714,1.216
			c-0.002,0.002-0.13,0.203-0.159,0.244c-0.461,0.671-1.261,1.092-2.115,1.092l-0.105-0.002c-0.887-0.034-1.689-0.514-2.14-1.284
			l-0.71-1.208C78.015,25.572,75.838,24.501,73.523,24.501z"/>
	</g>
	<circle  cx="50.504" cy="38.916" r="5.566"/>
	<polygon  points="50.504,18.889 47.172,37.899 50.504,37.899 53.836,37.899 	"/>
	<g>
		<polygon  points="46.939,83.938 0,83.938 0,79.938 42.939,79.938 42.939,70.88 46.939,70.88 		"/>
	</g>
	<g>
		<polygon  points="101.853,83.938 54.914,83.938 54.914,70.88 58.914,70.88 58.914,79.938 101.853,79.938 		"/>
	</g>
	<g>
		<rect y="88.272"  width="101.853" height="4"/>
	</g>
	<path  d="M50.48,69.333c-17.599,0-31.916-14.317-31.916-31.915S32.881,5.502,50.48,5.502
		c8.619,0,16.44,3.446,22.187,9.02h5.442C71.516,6.579,61.585,1.502,50.48,1.502c-19.804,0-35.916,16.112-35.916,35.916
		S30.676,73.333,50.48,73.333c11.919,0,22.487-5.846,29.024-14.811h-5.119C68.532,65.143,59.99,69.333,50.48,69.333z"/>
</g>
<g id="Layer_2">
</g>
</svg>
