<?xml version="1.0" encoding="utf-8"?>
<!-- Generator: Adobe Illustrator 17.0.0, SVG Export Plug-In . SVG Version: 6.00 Build 0)  -->
<!DOCTYPE svg PUBLIC "-//W3C//DTD SVG 1.1//EN" "http://www.w3.org/Graphics/SVG/1.1/DTD/svg11.dtd">
<svg fill="#66ACBE" version="1.1" xmlns="http://www.w3.org/2000/svg" xmlns:xlink="http://www.w3.org/1999/xlink" x="0px" y="0px"
	 width="54.008px" height="95px" viewBox="0 0 54.008 95" enable-background="new 0 0 54.008 95" xml:space="preserve">
<g id="Layer_1">
	<g>
		<g>
			<path  d="M54.008,75.506H0V0h54.008V75.506z M4.007,71.499H50V4.007H4.007V71.499z"/>
		</g>
		<g>
			<g>
				<circle cx="27.004" cy="61.086" r="5.497"/>
			</g>
			<g>
				<circle cx="14.305" cy="61.086" r="4.072"/>
			</g>
			<g>
				<circle cx="39.702" cy="61.086" r="4.072"/>
			</g>
		</g>
		<g>
			<rect x="25" y="78.642" width="4.007" height="16.358"/>
		</g>
		<g>
			<path fill="#66ACBE" d="M26.989,37.739c-2.902,0-5.623-1.125-7.666-3.168c-3.713-3.712-4.241-9.529-1.258-13.832l8.924-12.95
				l8.927,12.955c3.007,4.316,2.475,10.138-1.27,13.836C32.613,36.614,29.89,37.739,26.989,37.739z M26.989,14.852l-5.628,8.167
				c-1.851,2.67-1.508,6.416,0.795,8.72c1.286,1.286,3.002,1.994,4.833,1.994s3.546-0.708,4.833-1.994
				c2.363-2.332,2.695-5.992,0.801-8.711L26.989,14.852z"/>
		</g>
		<g>
			<rect x="2.004" y="46.417" width="50" height="4.007"/>
		</g>
	</g>
</g>
<g id="Layer_2">
</g>
</svg>
