<?xml version="1.0" encoding="utf-8"?>
<!-- Generator: Adobe Illustrator 17.0.0, SVG Export Plug-In . SVG Version: 6.00 Build 0)  -->
<!DOCTYPE svg PUBLIC "-//W3C//DTD SVG 1.1//EN" "http://www.w3.org/Graphics/SVG/1.1/DTD/svg11.dtd">
<svg fill="#CB2424" version="1.1" xmlns="http://www.w3.org/2000/svg" xmlns:xlink="http://www.w3.org/1999/xlink" x="0px" y="0px"
	 width="101.852px" height="95px" viewBox="0 0 101.852 95" enable-background="new 0 0 101.852 95" xml:space="preserve">
<g id="Layer_1">
	<g>
		<g>
			<circle  cx="64.162" cy="12.417" r="1.499"/>
			<polygon points="61.343,11.338 55.828,11.402 61.117,12.973 			"/>
			<path d="M91.396,25.272h-0.888c-5.776,0-10.458,4.682-10.458,10.458v3.703c0,4.186,2.464,7.787,6.017,9.457
				C86.027,49.044,86,49.204,86,49.371v3.869c0,1.094,0.893,1.987,1.987,1.987h1.324c-0.08,2.309-1.229,24.074-15.671,24.074
				c-7.035,0-10.127-4.021-13.399-8.275c-0.549-0.713-1.11-1.438-1.695-2.153c0.267-0.231,0.542-0.451,0.796-0.699
				c9.432-9.203,7.52-28.101,6.703-36.171c-0.083-0.831-0.154-1.531-0.201-2.102h3.159c1.322,0,2.402-1.081,2.402-2.402v-0.535
				c0-1.323-0.998-1.99-2.22-1.485c0,0-2.391,0.991-5.026,0.991c-2.637,0-5.026-0.991-5.026-0.991
				c-1.221-0.505-2.221,0.161-2.221,1.485V27.5c0,1.322,1.081,2.402,2.404,2.402h3.247c0.049,0.652,0.13,1.464,0.229,2.432
				c0.768,7.6,2.569,25.399-5.735,33.502c-0.226,0.22-0.478,0.407-0.717,0.61c-3.233-3.15-7.585-5.39-14.949-4.123V45.485
				c-0.01,0.016-0.024,0.031-0.034,0.049c0-0.002,0-0.003,0-0.005c0.002-0.034,0.021-0.066,0.021-0.098
				c0-2.791-8.314-5.774-20.69-5.774C8.314,39.656,0,42.64,0,45.43c0,0.024,0.014,0.048,0.015,0.071
				C0.012,45.494,0.004,45.487,0,45.48v38.286c0,3.368,9.266,6.101,20.697,6.101c5.894,0,5.326,5.155,12.091,5.134V78.713
				c1.323,0.288,2.508,0.615,3.54,0.976v8.074c3.153-1.07,5.066-2.467,5.066-3.996V73.158c1.287,0.145,2.537,0.228,3.732,0.228
				c4.157,0,7.743-0.887,10.75-2.616c0.596,0.719,1.18,1.473,1.775,2.248c3.443,4.477,7.346,9.55,15.99,9.55
				c14.631,0,18.777-17.783,18.94-27.341h1.33c1.094,0,1.987-0.893,1.987-1.987v-3.869c0-0.166-0.026-0.325-0.066-0.479
				c3.554-1.67,6.02-5.272,6.02-9.459v-3.703C101.854,29.953,97.172,25.272,91.396,25.272z M36.33,48.675v28.267
				c-1.043-0.346-2.22-0.664-3.54-0.94V55.911c-6.78,0.021-6.172-5.148-12.091-5.148c-9.279,0-16.961-1.751-19.818-4.255
				c2.433-2.225,9.784-4.186,19.811-4.186c10.035,0,17.393,1.963,19.818,4.192C39.584,47.324,38.161,48.056,36.33,48.675z
				 M41.395,69.876v-4.236c5.941-1.163,9.419,0.207,12.155,2.66C50.303,69.931,46.242,70.47,41.395,69.876z"/>
			<path d="M64.162,24.836c6.86,0,12.418-5.56,12.418-12.418S71.021,0,64.162,0c-6.857,0-12.418,5.56-12.418,12.418
				C51.743,19.276,57.305,24.836,64.162,24.836z M64.162,3.267c5.055,0,9.15,4.097,9.15,9.15c0,5.054-4.095,9.15-9.15,9.15
				c-5.054,0-9.151-4.096-9.151-9.15C55.011,7.364,59.108,3.267,64.162,3.267z"/>
		</g>
	</g>
</g>
<g id="Layer_2">
</g>
</svg>
