<?xml version="1.0" encoding="utf-8"?>
<!-- Generator: Adobe Illustrator 17.0.0, SVG Export Plug-In . SVG Version: 6.00 Build 0)  -->
<!DOCTYPE svg PUBLIC "-//W3C//DTD SVG 1.1//EN" "http://www.w3.org/Graphics/SVG/1.1/DTD/svg11.dtd">
<svg fill="#FFA300" version="1.1" id="Layer_1" xmlns="http://www.w3.org/2000/svg" xmlns:xlink="http://www.w3.org/1999/xlink" x="0px" y="0px"
	 width="95px" height="95px" viewBox="0 0 95 95" enable-background="new 0 0 95 95" xml:space="preserve">
<g>
	<g>
		<path  d="M47.5,95C21.308,95,0,73.692,0,47.5S21.308,0,47.5,0S95,21.308,95,47.5S73.692,95,47.5,95z M47.5,4.043
			C23.538,4.043,4.043,23.537,4.043,47.5S23.538,90.957,47.5,90.957S90.957,71.463,90.957,47.5S71.462,4.043,47.5,4.043z"/>
	</g>
	<g>
		<path d="M14.766,61.719V33.281h9.746c3.216,0,5.664,0.645,7.344,1.934c1.68,1.289,2.52,3.21,2.52,5.762
			c0,1.302-0.352,2.474-1.055,3.516c-0.703,1.042-1.731,1.849-3.086,2.422c1.536,0.417,2.725,1.201,3.564,2.354
			s1.26,2.536,1.26,4.15c0,2.669-0.856,4.72-2.568,6.152c-1.712,1.433-4.163,2.148-7.354,2.148H14.766z M19.707,45.254h4.844
			c1.536,0,2.737-0.348,3.604-1.045c0.866-0.696,1.299-1.683,1.299-2.959c0-1.406-0.4-2.422-1.201-3.047s-2.048-0.938-3.74-0.938
			h-4.805V45.254z M19.707,48.887v8.848h5.488c1.55,0,2.761-0.382,3.633-1.147c0.872-0.765,1.309-1.828,1.309-3.189
			c0-2.942-1.511-4.446-4.531-4.511H19.707z"/>
		<path d="M46.406,33.281l8.203,21.797l8.184-21.797h6.387v28.438h-4.922v-9.375l0.488-12.539l-8.398,21.914h-3.535
			l-8.379-21.895l0.488,12.52v9.375H40V33.281H46.406z"/>
		<path d="M80.234,61.719h-4.922V33.281h4.922V61.719z"/>
	</g>
</g>
</svg>
