<?xml version="1.0" encoding="utf-8"?>
<!-- Generator: Adobe Illustrator 17.0.0, SVG Export Plug-In . SVG Version: 6.00 Build 0)  -->
<!DOCTYPE svg PUBLIC "-//W3C//DTD SVG 1.1//EN" "http://www.w3.org/Graphics/SVG/1.1/DTD/svg11.dtd">
<svg fill="#4A8BDB" version="1.1" id="Layer_1" xmlns="http://www.w3.org/2000/svg" xmlns:xlink="http://www.w3.org/1999/xlink" x="0px" y="0px"
	 width="97.905px" height="95px" viewBox="0 0 97.905 95" enable-background="new 0 0 97.905 95" xml:space="preserve">
<g>
	<g>
		<g>
			<path  d="M37.944,21.937c-6.048,0-10.969-4.92-10.969-10.968S31.895,0,37.944,0c6.048,0,10.968,4.92,10.968,10.968
				S43.991,21.937,37.944,21.937z M37.944,3.815c-3.945,0-7.154,3.209-7.154,7.153s3.209,7.153,7.154,7.153
				c3.944,0,7.153-3.209,7.153-7.153S41.888,3.815,37.944,3.815z"/>
		</g>
	</g>
	<g>
		<g>
			<path d="M53.665,95H40.789V67.817h-5.246V95H22.667V39.469L7.744,54.392L0,46.648l23.109-23.109l30.112-0.024
				l23.133,23.132l-7.744,7.744L53.665,39.447V95z M44.604,91.185h5.246V30.236l18.76,18.76l2.348-2.348L51.642,27.332
				l-26.951,0.022L5.396,46.648l2.348,2.348l18.738-18.737v60.926h5.246V64.002h12.876V91.185z"/>
		</g>
	</g>
	<g>
		<g>
			<rect x="94.09" y="0.576" width="3.815" height="94.424"/>
		</g>
	</g>
	<g>
		<g>
			<rect x="85.506" y="0" width="12.399" height="3.815"/>
		</g>
	</g>
	<g>
		<g>
			<rect x="88.367" y="22.796"  width="9.538" height="3.815"/>
		</g>
	</g>
	<g>
		<g>
			<rect x="88.367" y="45.592"  width="9.538" height="3.815"/>
		</g>
	</g>
	<g>
		<g>
			<rect x="88.367" y="68.389"  width="9.538" height="3.815"/>
		</g>
	</g>
	<g>
		<g>
			<rect x="85.506" y="91.185" width="12.399" height="3.815"/>
		</g>
	</g>
</g>
</svg>
