<?xml version="1.0" encoding="utf-8"?>
<!-- Generator: Adobe Illustrator 17.0.0, SVG Export Plug-In . SVG Version: 6.00 Build 0)  -->
<!DOCTYPE svg PUBLIC "-//W3C//DTD SVG 1.1//EN" "http://www.w3.org/Graphics/SVG/1.1/DTD/svg11.dtd">
<svg version="1.1" id="Layer_1" xmlns="http://www.w3.org/2000/svg" xmlns:xlink="http://www.w3.org/1999/xlink" x="0px" y="0px"
	 width="100px" height="91.75px" viewBox="-155.792 -38.325 100 91.75" enable-background="new -155.792 -38.325 100 91.75"
	 xml:space="preserve">
<path d="M-83.292-38.325c-8.7,0-17.05,4.05-22.5,10.45c-5.45-6.4-13.8-10.45-22.5-10.45c-15.4,0-27.5,12.1-27.5,27.5
	c0,18.9,17,34.299,42.75,57.65l7.25,6.6l7.25-6.55c25.751-23.401,42.75-38.8,42.75-57.7C-55.792-26.226-67.891-38.325-83.292-38.325
	z M-78.736,16.567h-16.749c-0.627,0-1.167-0.454-1.27-1.077l-1.208-7.246l-2.688,18.815c-0.09,0.634-0.635,1.105-1.276,1.105h-0.027
	c-0.649-0.016-1.188-0.51-1.255-1.16l-2.81-28.088l-2.363,16.548c-0.09,0.634-0.634,1.104-1.274,1.104h-3.865
	c-0.576,0-1.084-0.38-1.241-0.935l-1.151-4.026l-0.833,3.94c-0.126,0.596-0.652,1.021-1.26,1.021h-14.841
	c-0.713,0-1.289-0.574-1.289-1.288c0-0.712,0.576-1.288,1.289-1.288h13.799l1.689-7.997c0.123-0.579,0.624-1,1.215-1.019
	c0.565-0.039,1.122,0.363,1.285,0.934l2.308,8.081h1.776l3.707-25.95c0.09-0.635,0.635-1.105,1.276-1.105h0.027
	c0.649,0.016,1.188,0.511,1.255,1.16l2.81,28.088l2.363-16.549c0.089-0.626,0.624-1.099,1.26-1.104h0.017
	c0.629,0,1.166,0.455,1.27,1.077l2.397,14.382h15.657c0.712,0,1.288,0.577,1.289,1.289C-77.447,15.992-78.024,16.567-78.736,16.567z
	"/>
</svg>
