<?xml version="1.0" encoding="utf-8"?>
<!-- Generator: Adobe Illustrator 17.0.0, SVG Export Plug-In . SVG Version: 6.00 Build 0)  -->
<!DOCTYPE svg PUBLIC "-//W3C//DTD SVG 1.1//EN" "http://www.w3.org/Graphics/SVG/1.1/DTD/svg11.dtd">
<svg version="1.1" id="Layer_1" xmlns="http://www.w3.org/2000/svg" xmlns:xlink="http://www.w3.org/1999/xlink" x="0px" y="0px"
	 fill="#000000" width="75.509px" height="95px" viewBox="0 0 75.509 95" enable-background="new 0 0 75.509 95" xml:space="preserve">
<g>
	<path  d="M75.509,95l-3.051-1.964c-0.532-0.343-1.052-0.649-1.552-0.943c-1.168-0.688-2.273-1.337-3.258-2.253
		c-2.189-2.033-4.345-4.298-6.406-6.732c-0.581-0.684-1.124-0.739-2.499-0.374c-5.31,1.409-10.282,2.17-15.199,2.328
		c-6.127,0.193-12.148-0.962-18.602-3.546c-4.937-1.977-10.387-3.361-17.671-4.49c-1.789-0.277-3.499-1.432-4.464-3.013
		c-0.817-1.337-1.012-2.835-0.552-4.217c1.014-3.04,0.213-5.929-0.94-9.391c-1.484-4.454-1.707-9.223-0.699-15.009
		c0.761-4.374,1.728-8.765,2.662-13.011c0.451-2.054,0.904-4.107,1.334-6.164c0.266-1.269,0.513-2.542,0.761-3.816
		c0.431-2.22,0.877-4.515,1.42-6.771c0.841-3.503,2.497-6.373,4.923-8.53c3.192-2.838,6.548-4.88,10.261-6.243
		c4.455-1.636,8.75-0.96,13.374,2.185c4.374,2.974,4.305,4.726,3.396,10.345c-0.047,0.292-0.104,0.578-0.161,0.859
		c-0.202,0.996-0.279,1.46-0.016,2.037c0.477,1.044,0.456,2.23-0.059,3.339c-0.66,1.42-2.063,2.578-3.662,3.023
		c-1.044,0.291-2.074,0.681-3.165,1.095c-0.627,0.238-1.255,0.476-1.888,0.697c-1.245,0.432-2.655,0.923-4.219,0.923
		c-0.3,0-0.597-0.019-0.891-0.056c0.382,3.101,0.951,6.209,1.506,9.236c0.924,5.045,1.872,10.22,2.013,15.557
		c0.623-0.632,1.269-1.229,1.976-1.775c4.899-3.781,10.862-5.195,17.577-4.156c1.391,0.215,2.699,0.62,3.965,1.012
		c0.819,0.253,1.594,0.494,2.368,0.677c0.027-0.015,0.072-0.037,0.096-0.054c4.792-5.009,11.113-7.601,19.276-7.88l2.047-0.07V95z
		 M60.016,78.568c1.704,0,3.132,0.666,4.246,1.981c1.961,2.314,4.007,4.465,6.08,6.391c0.349,0.324,0.755,0.62,1.208,0.914V42.008
		c-6.15,0.556-10.812,2.673-14.555,6.581c-0.873,0.911-2.417,1.441-3.592,1.175c-0.985-0.222-1.934-0.516-2.851-0.8
		c-1.181-0.366-2.296-0.711-3.399-0.881c-5.619-0.867-10.526,0.267-14.555,3.378c-1.117,0.862-2.109,1.958-3.258,3.228
		c-0.582,0.643-1.187,1.311-1.844,1.99l-3.891,4.015l0.498-5.569c0.601-6.723-0.568-13.108-1.806-19.867
		c-0.717-3.916-1.459-7.966-1.814-12.058l-0.187-2.15h2.158c0.084,0,0.171-0.01,0.258-0.018c0.643-0.056,1.244-0.028,1.758,0.171
		c1.165,0.448,2.531,0.018,4.024-0.502c0.598-0.208,1.192-0.433,1.786-0.659c1.125-0.427,2.288-0.868,3.507-1.207
		c0.685-0.191,1.147-0.772,1.166-0.977c-0.793-1.698-0.491-3.193-0.248-4.394c0.046-0.231,0.095-0.465,0.133-0.706
		c0.77-4.752,0.77-4.752-1.714-6.44c-3.6-2.449-6.487-2.953-9.783-1.742c-3.238,1.189-6.181,2.983-8.995,5.485
		c-1.809,1.609-3.056,3.796-3.705,6.497c-0.522,2.172-0.96,4.424-1.383,6.602c-0.251,1.292-0.502,2.584-0.771,3.872
		c-0.434,2.071-0.889,4.137-1.343,6.204c-0.925,4.205-1.881,8.552-2.628,12.84c-0.892,5.115-0.715,9.271,0.554,13.079
		c1.035,3.107,2.452,7.361,0.94,11.893c-0.088,0.264-0.029,0.569,0.175,0.904c0.358,0.586,1.053,1.064,1.691,1.163
		c7.593,1.176,13.309,2.634,18.536,4.727c5.939,2.378,11.439,3.444,17.004,3.264c4.614-0.148,9.295-0.867,14.312-2.198
		C58.279,78.762,59.114,78.568,60.016,78.568z"/>
</g>
</svg>
