<?xml version="1.0" encoding="utf-8"?>
<!-- Generator: Adobe Illustrator 17.0.0, SVG Export Plug-In . SVG Version: 6.00 Build 0)  -->
<!DOCTYPE svg PUBLIC "-//W3C//DTD SVG 1.1//EN" "http://www.w3.org/Graphics/SVG/1.1/DTD/svg11.dtd">
<svg version="1.1" id="Layer_1" xmlns="http://www.w3.org/2000/svg" xmlns:xlink="http://www.w3.org/1999/xlink" x="0px" y="0px"
	 width="104.266px" height="94.986px" viewBox="0 0 104.266 94.986" enable-background="new 0 0 104.266 94.986"
	 xml:space="preserve">
<path opacity="0.26" enable-background="new    " d="M102.492,17.898c-2.316-6.461-6.731-11.498-12.43-14.181
	c-3.949-1.865-8.385-2.85-12.828-2.85c-9.815,0-18.876,4.68-23.083,11.916l-2.056,3.508l-1.969-3.351
	C45.919,5.685,36.855,0.997,27.035,0.997c-4.441,0-8.875,0.984-12.82,2.846C8.513,6.526,4.096,11.56,1.778,18.015
	c-2.722,7.583-2.299,16.44,1.131,23.692c7.395,15.628,41.145,46.148,47.836,52.107l1.317,1.172l0.009-0.008l-1.308-1.164
	c-7.053-6.282-30.491-27.673-35.931-39.167c-0.658-1.392-1.171-2.862-1.538-4.374c-3.009-3.803-5.417-7.325-6.806-10.26
	c-2.99-6.322-3.358-14.045-0.982-20.66c1.959-5.459,5.651-9.695,10.397-11.929c3.422-1.614,7.271-2.468,11.132-2.468
	c8.434,0,16.153,3.913,19.67,9.979l2.126,3.619c0.655,1.117,1.819,1.813,3.107,1.862l0.154,0.003c1.236,0,2.395-0.61,3.107-1.641
	c0.051-0.075,0.238-0.359,0.245-0.372l2.127-3.627c3.514-6.045,11.231-9.952,19.662-9.952c3.862,0,7.714,0.855,11.14,2.472
	c4.743,2.233,8.432,6.471,10.39,11.935c2.37,6.611,2.001,14.324-0.985,20.633c-1.389,2.938-3.795,6.46-6.8,10.261
	c-0.368,1.525-0.882,3.007-1.546,4.41c-4.552,9.624-22.195,26.599-31.338,35.019c11.615-10.615,36.961-34.672,43.263-47.996
	C104.785,34.322,105.209,25.476,102.492,17.898z"/>
<path opacity="0.38" enable-background="new    " d="M90.301,36.443c-1.779-4.963-5.176-8.834-9.562-10.898
	c-3.022-1.427-6.416-2.181-9.816-2.181c-7.521,0-14.474,3.601-17.709,9.167l-1.11,1.895l-1.042-1.775
	c-3.237-5.582-10.192-9.188-17.717-9.188c-3.398,0-6.79,0.753-9.808,2.178c-4.39,2.065-7.787,5.933-9.568,10.892
	c-1.559,4.343-1.768,9.232-0.673,13.743c0.367,1.512,0.88,2.982,1.538,4.374c5.44,11.494,28.877,32.884,35.931,39.167l1.308,1.164
	l0.009-0.008l-1.299-1.156c-4.568-4.07-19.743-17.922-23.303-25.446c-0.506-1.07-0.87-2.211-1.12-3.382
	c-0.084-0.392-0.165-0.785-0.219-1.184c-3.479-4.055-6.314-7.865-7.728-10.851c-2.182-4.615-2.451-10.255-0.717-15.085
	c1.421-3.961,4.095-7.032,7.528-8.647c2.495-1.178,5.303-1.8,8.12-1.8c6.14,0,11.75,2.832,14.296,7.225l1.593,2.709
	c0.577,0.984,1.602,1.597,2.734,1.639l0.136,0.002c1.091,0,2.112-0.538,2.72-1.423c0.036-0.05,0.203-0.304,0.219-0.331l1.593-2.716
	c2.543-4.375,8.152-7.202,14.289-7.202c2.819,0,5.628,0.623,8.128,1.803c3.428,1.614,6.1,4.687,7.521,8.653
	c1.731,4.826,1.462,10.457-0.719,15.065c-1.342,2.836-4.117,6.601-7.719,10.805c-0.053,0.402-0.13,0.799-0.213,1.196
	c-0.25,1.197-0.618,2.364-1.135,3.456c-2.824,5.97-12.93,15.9-19.301,21.812c0.2-0.182,0.4-0.364,0.609-0.555
	c9.143-8.42,26.787-25.395,31.338-35.019c0.664-1.403,1.178-2.885,1.546-4.41C92.062,45.635,91.852,40.769,90.301,36.443z"/>
<path opacity="0.87" enable-background="new    " d="M77.372,56.11c-1.208-3.373-3.524-6.008-6.519-7.417
	c-2.039-0.963-4.329-1.472-6.621-1.472c-5.09,0-9.805,2.456-12.01,6.25l-0.108,0.183l-0.06-0.102
	c-2.208-3.807-6.926-6.267-12.018-6.267c-2.291,0-4.578,0.508-6.616,1.469c-2.997,1.41-5.314,4.043-6.523,7.413
	c-0.865,2.412-1.109,5.075-0.756,7.638c0.055,0.398,0.135,0.791,0.219,1.184c0.25,1.171,0.614,2.312,1.12,3.382
	c3.56,7.524,18.735,21.377,23.302,25.443l1.299,1.156l1.299-1.156c0.91-0.81,2.332-2.085,4.106-3.702
	c6.37-5.911,16.477-15.842,19.301-21.812c0.517-1.092,0.885-2.259,1.135-3.456c0.083-0.396,0.16-0.793,0.213-1.196
	C78.469,61.116,78.225,58.492,77.372,56.11z M53.883,88.048c-0.6,0.552-1.197,1.097-1.784,1.627
	c-0.002-0.002-0.005-0.004-0.007-0.007c-0.003,0.003-0.007,0.006-0.01,0.009c-0.003-0.003-0.006-0.006-0.009-0.008
	c0.003-0.003,0.007-0.006,0.01-0.009c-8.464-7.647-18.575-17.811-21.023-22.983c-1.326-2.806-1.49-6.235-0.435-9.173
	c0.851-2.373,2.443-4.208,4.483-5.168c1.513-0.714,3.218-1.092,4.927-1.092c3.707,0,7.08,1.685,8.597,4.304l1.026,1.746
	c0.495,0.842,1.373,1.366,2.336,1.401l0.12,0.003c0.931,0,1.804-0.459,2.363-1.267c0.046-0.069,0.124-0.19,0.135-0.21l1.029-1.753
	c1.513-2.604,4.885-4.286,8.59-4.286c1.711,0,3.416,0.378,4.932,1.094c2.037,0.959,3.629,2.795,4.479,5.171
	c1.052,2.935,0.89,6.359-0.436,9.16c-2.222,4.696-10.732,13.48-18.621,20.79c0.533-0.485,1.089-0.991,1.688-1.54
	C55.47,86.599,54.673,87.329,53.883,88.048z"/>
</svg>
