<?xml version="1.0" encoding="utf-8"?>
<!-- Generator: Adobe Illustrator 17.0.0, SVG Export Plug-In . SVG Version: 6.00 Build 0)  -->
<!DOCTYPE svg PUBLIC "-//W3C//DTD SVG 1.1//EN" "http://www.w3.org/Graphics/SVG/1.1/DTD/svg11.dtd">
<svg version="1.1" id="Layer_1" xmlns="http://www.w3.org/2000/svg" xmlns:xlink="http://www.w3.org/1999/xlink" x="0px" y="0px"
	 fill="#000000" width="79.023px" height="94.986px" viewBox="0 0 79.023 94.986" enable-background="new 0 0 79.023 94.986" xml:space="preserve">
<g id="Layer_1_1_">
	<path  d="M75.464,65.356c-3.711-9.138-9.634-15.585-16.677-18.153l-2.846-1.038l0.167,3.025
		c0.156,2.828,0.317,5.76,0.458,8.758l-4.634-4.023V38.046h-3.996v15.901l-4.311,3.88c0.14-2.957,0.298-5.847,0.452-8.637
		l0.167-3.025l-2.846,1.038c-7.043,2.568-12.966,9.015-16.677,18.152c-3.562,8.767-4.518,19.141-2.559,27.751L22.593,95l2.128-0.42
		c0.649-0.126,1.383-0.268,2.723-0.7c5.144-1.668,9.267-3.549,13.051-5.971c1.155-0.814,2.297-1.754,2.843-3.11l0.165-0.412
		l-0.024-0.442c-0.381-6.906-0.314-13.845-0.08-20.536l6.559-5.904l6.831,5.931c0.232,6.683,0.299,13.613-0.081,20.51l-0.024,0.442
		l0.165,0.412c0.545,1.356,1.688,2.296,2.918,3.161c3.709,2.372,7.832,4.254,12.979,5.922c1.336,0.431,2.071,0.573,2.72,0.699
		L77.592,95l0.431-1.893C79.983,84.497,79.027,74.122,75.464,65.356z M39.457,83.579c-0.338,0.41-0.998,0.876-1.189,1.013
		c-3.414,2.184-7.246,3.927-12.054,5.486c-0.197,0.063-0.378,0.119-0.543,0.169c-1.236-7.424-0.245-16.013,2.751-23.387
		c2.698-6.642,6.785-11.778,11.482-14.543C39.377,62.068,38.902,72.823,39.457,83.579z M74.514,90.247
		c-0.165-0.049-0.344-0.104-0.54-0.168c-4.811-1.56-8.643-3.303-11.982-5.437c-0.253-0.178-0.925-0.652-1.264-1.063
		c0.555-10.757,0.08-21.511-0.447-31.262c4.697,2.765,8.784,7.9,11.482,14.543C74.759,74.234,75.75,82.823,74.514,90.247z"/>
	<g>
		<circle  cx="30.312" cy="30.313" r="4.13"/>
		<polygon  points="18.319,14.54 24.489,25.924 27.577,23.586 		"/>
		<path  d="M24.328,55.876C12.724,53.16,4.053,42.733,4.053,30.313c0-14.48,11.779-26.26,26.259-26.26
			c14.479,0,26.26,11.78,26.26,26.26c0,2.076-0.252,4.093-0.711,6.031h4.153c0.396-1.95,0.611-3.965,0.611-6.031
			C60.625,13.598,47.027,0,30.312,0C13.598,0,0,13.598,0,30.313C0,44.979,10.471,57.244,24.328,60.03V55.876z"/>
	</g>
</g>
<g id="Layer_2">
</g>
</svg>
