<?xml version="1.0" encoding="utf-8"?>
<!-- Generator: Adobe Illustrator 17.0.0, SVG Export Plug-In . SVG Version: 6.00 Build 0)  -->
<!DOCTYPE svg PUBLIC "-//W3C//DTD SVG 1.1//EN" "http://www.w3.org/Graphics/SVG/1.1/DTD/svg11.dtd">
<svg version="1.1" xmlns="http://www.w3.org/2000/svg" xmlns:xlink="http://www.w3.org/1999/xlink" x="0px" y="0px"
	 width="95.001px" height="94.986px" viewBox="0 0 95.001 94.986" enable-background="new 0 0 95.001 94.986" xml:space="preserve">
<g id="Layer_1">
	<g>
		<g>
			<path fill="#0C4C8A" d="M22.769,71.111c-5.481,0-9.938-4.459-9.938-9.938s4.458-9.939,9.938-9.939
				c5.48,0,9.938,4.459,9.938,9.938S28.249,71.111,22.769,71.111z M22.769,54.691c-3.575,0-6.482,2.908-6.482,6.482
				c0,3.574,2.908,6.482,6.482,6.482s6.482-2.908,6.482-6.482S26.343,54.691,22.769,54.691z"/>
		</g>
	</g>
</g>
<g id="Layer_2">
	<g>
		<path fill="#0C4C8A" d="M83.857,47.07c-3.125,0-6.955-1.705-9.996-4.449c-3.07-2.77-4.979-6.306-4.979-9.229v-8.647
			c-1.284-0.468-2.895-1.204-4.479-2.476c-1.103,0.889-2.351,1.619-3.774,2.21v8.913c-0.001,2.923-1.909,6.459-4.979,9.229
			c-3.041,2.744-6.871,4.449-9.997,4.449c-1.562,0-3.124-1.017-4.287-2.788c-0.976-1.486-1.605-3.469-1.605-5.051
			c0-14.279,3.81-24.297,11.323-29.776c1.627-1.181,2.852-1.418,4.301-1.418c1.385,0,2.656,0.439,3.579,1.237
			c0.083,0.072,0.163,0.146,0.24,0.223c0-0.997,0-2.701,0.001-5.606L59.207,0h10.378v3.892c0.002,4.075,0.001,5.794,0,6.534
			c0.253-0.431,0.573-0.814,0.961-1.15c0.924-0.799,2.195-1.238,3.581-1.238c1.448,0,2.672,0.236,4.297,1.415
			c7.517,5.482,11.326,15.501,11.326,29.779c0,1.583-0.63,3.565-1.604,5.051C86.98,46.055,85.417,47.07,83.857,47.07z
			 M55.384,12.037c-0.761,0-1.126,0.057-1.947,0.652c-6.42,4.682-9.677,13.612-9.677,26.542c0,0.684,0.333,1.916,0.949,2.855
			c0.475,0.723,0.891,0.962,0.999,0.988c2.088-0.005,4.96-1.347,7.262-3.423c2.188-1.975,3.657-4.49,3.658-6.261v-11.75l1.375-0.452
			c1.79-0.59,3.228-1.396,4.392-2.467c0.067-0.067,0.236-0.26,0.443-0.505l1.472-1.748l1.537,1.69
			c0.199,0.219,0.408,0.426,0.627,0.622c1.555,1.396,3.279,2.057,4.441,2.432l1.967,0.631v11.548c0,1.771,1.47,4.285,3.658,6.259
			c2.287,2.064,5.139,3.403,7.278,3.419c0.129-0.044,0.528-0.293,0.983-0.984c0.615-0.938,0.947-2.171,0.947-2.854
			c0-12.93-3.257-21.86-9.68-26.544c-0.818-0.594-1.184-0.65-1.943-0.65c-0.486,0-0.823,0.142-0.963,0.263
			c-0.098,0.084-0.281,0.243-0.281,0.981v6.438l-2.879-1.408c-0.754-0.369-1.392-0.792-1.949-1.292
			c-1.026-0.923-2.397-2.56-2.47-6.122c0.001-0.397,0.002-1.69,0-6.896h-2.38c-0.002,5.231-0.001,6.494,0.001,6.83
			c-0.028,1.639-0.311,2.958-0.863,4.08c-0.382,0.772-0.886,1.44-1.543,2.045c-0.322,0.294-0.688,0.573-1.09,0.832l-3.081,1.98
			v-6.486c0-0.737-0.184-0.896-0.282-0.981C56.207,12.179,55.871,12.037,55.384,12.037z"/>
	</g>
	<g>
		<path fill="#0C4C8A" d="M94.822,94.986H84.811V85.97h-74.8v9.017H0V45.903h10.011v27.05h26.744V51.914H80.8
			c7.731,0,14.021,6.29,14.021,14.022V94.986z M88.811,90.986h2.011v-25.05c0-5.526-4.496-10.022-10.021-10.022H40.755v21.039H6.011
			v-27.05H4v41.083h2.011V81.97h82.8V90.986z"/>
	</g>
</g>
</svg>
