<?xml version="1.0" encoding="utf-8"?>
<!-- Generator: Adobe Illustrator 17.0.0, SVG Export Plug-In . SVG Version: 6.00 Build 0)  -->
<!DOCTYPE svg PUBLIC "-//W3C//DTD SVG 1.1//EN" "http://www.w3.org/Graphics/SVG/1.1/DTD/svg11.dtd">
<svg fill="#CB2424" version="1.1" xmlns="http://www.w3.org/2000/svg" xmlns:xlink="http://www.w3.org/1999/xlink" x="0px" y="0px" width="95px"
	 height="95px" viewBox="0 0 95 95" enable-background="new 0 0 95 95" xml:space="preserve">
<g id="Layer_1">
	<g>
		<g>
			<path d="M44.468,72.785c0,0-16.981-5.761-16.981-19.306s8.389-14.454,13.847-22.338
				c5.458-7.985,5.357-10.007,5.357-10.007s4.245,3.133,6.974,10.007s0,16.172,0,16.172s3.234-1.617,5.357-4.65
				c2.123-3.032,3.133-6.974,3.133-6.974s5.357,5.155,5.357,15.465c0,14.757-11.523,21.63-11.523,21.63s-7.075-6.267-9.299-10.815
				c-2.224-4.447-3.841-10.007-3.841-10.007s-3.133,4.346-3.133,8.49C39.92,68.641,44.468,72.785,44.468,72.785z"/>
		</g>
		<g>
			<path d="M47.501,95C21.309,95,0,73.692,0,47.5C0,21.308,21.309,0,47.501,0C73.692,0,95,21.308,95,47.5
				C95,73.692,73.692,95,47.501,95z M47.501,4.004C23.517,4.004,4.004,23.516,4.004,47.5s19.513,43.496,43.497,43.496
				S90.997,71.484,90.997,47.5S71.485,4.004,47.501,4.004z"/>
		</g>
	</g>
</g>
<g id="Layer_2">
</g>
</svg>
