<?xml version="1.0" encoding="utf-8"?>
<!-- Generator: Adobe Illustrator 17.0.0, SVG Export Plug-In . SVG Version: 6.00 Build 0)  -->
<!DOCTYPE svg PUBLIC "-//W3C//DTD SVG 1.1//EN" "http://www.w3.org/Graphics/SVG/1.1/DTD/svg11.dtd">
<svg version="1.1" xmlns="http://www.w3.org/2000/svg" xmlns:xlink="http://www.w3.org/1999/xlink" x="0px" y="0px"
	 width="68.907px" height="94.986px" viewBox="0 0 68.907 94.986" enable-background="new 0 0 68.907 94.986" xml:space="preserve">
<g id="Layer_1">
	<path fill="#CB2424" d="M34.764,18.009L14.801,46.977C8.134,56.596,9.322,69.599,17.622,77.9
		c4.564,4.564,10.652,7.078,17.142,7.078c6.49,0,12.578-2.514,17.142-7.078c8.368-8.26,9.553-21.258,2.826-30.916L34.764,18.009z"/>
	<path fill="#CB2424" d="M34.42-0.007L6.105,41.082c-9.458,13.644-7.775,32.093,3.999,43.867
		c6.477,6.477,15.113,10.044,24.317,10.044c9.205,0,17.84-3.567,24.309-10.035C70.6,73.241,72.284,54.787,62.74,41.086L34.42-0.007z
		 M55.914,82.125c-5.723,5.722-13.357,8.874-21.494,8.874c-8.137,0-15.77-3.152-21.493-8.874C2.519,71.717,1.03,55.413,9.39,43.352
		L34.42,7.031l25.037,36.329C67.892,55.47,66.406,71.768,55.914,82.125z"/>
</g>
<g id="Layer_2">
</g>
</svg>
