<?xml version="1.0" encoding="utf-8"?>
<!-- Generator: Adobe Illustrator 17.0.0, SVG Export Plug-In . SVG Version: 6.00 Build 0)  -->
<!DOCTYPE svg PUBLIC "-//W3C//DTD SVG 1.1//EN" "http://www.w3.org/Graphics/SVG/1.1/DTD/svg11.dtd">
<svg version="1.1" id="Layer_1" xmlns="http://www.w3.org/2000/svg" xmlns:xlink="http://www.w3.org/1999/xlink" x="0px" y="0px"
	 fill="#000000" width="117.112px" height="95.112px" viewBox="0 0 117.112 95.112" enable-background="new 0 0 117.112 95.112"
	 xml:space="preserve">
<g>
	<g>
		<path  d="M10.719,49.042c-0.73,0-1.479-0.27-2.002-0.721c-1.87-1.613-2.933-3.724-3.728-5.577
			C2.432,36.775,0.793,30.368,0.12,23.701c-0.305-3.024,0.032-5.963,0.359-8.805l0.064-0.561c0.323-2.84,0.996-5.289,2.059-7.486
			c2.355-4.865,6.596-7.236,12.206-6.797c3.615,0.281,6.665,2.147,9.326,5.704c2.744,3.669,4.014,7.826,4.978,11.772
			c0.795,3.26,1.185,6.651,1.156,10.08c-0.107,4.936-0.459,10.187-2.293,15.324c-0.653,1.821-1.97,2.492-2.961,2.733l-1.22,0.298
			c-4.146,1.011-8.292,2.022-12.443,3.007C11.149,49.016,10.936,49.042,10.719,49.042z M13.504,3.992
			c-3.421,0-5.811,1.503-7.308,4.595c-0.863,1.785-1.414,3.812-1.685,6.199L4.447,15.35c-0.317,2.753-0.616,5.353-0.353,7.948
			c0.633,6.264,2.169,12.277,4.566,17.873c0.58,1.354,1.26,2.737,2.302,3.786c3.967-0.944,7.927-1.91,11.888-2.875l1.22-0.297
			c0.056-0.006,0.095-0.053,0.147-0.199c1.643-4.6,1.961-9.465,2.06-14.039c0.026-3.072-0.325-6.133-1.042-9.072
			c-0.864-3.535-1.982-7.232-4.297-10.328c-1.986-2.653-3.971-3.923-6.439-4.115C14.159,4.005,13.828,3.992,13.504,3.992z"/>
	</g>
	<g>
		<path  d="M68.292,70.996c-0.219,0.003-0.432-0.018-0.634-0.062c-4.599-1.017-9.191-2.068-13.782-3.119
			c-1.418-0.325-2.426-1.242-2.914-2.652c-2.488-7.167-3.172-14.819-2.034-22.743c0.752-5.243,2.199-9.56,4.422-13.199
			c1.38-2.258,3.668-5.399,7.588-6.602c1.333-0.409,2.679-0.627,4.001-0.647c4.733-0.074,8.672,2.355,10.805,6.664
			c1.143,2.308,1.89,4.949,2.282,8.075c0.129,1.038,0.235,2.077,0.341,3.116l0.139,1.343c0.384,4.335-0.392,8.495-1.221,12.386
			c-0.878,4.121-1.982,8.501-4.11,12.614c-0.613,1.186-1.398,2.202-2.157,3.186l-0.429,0.559
			C69.998,70.695,69.015,70.986,68.292,70.996z M65.001,25.966c-0.945,0.015-1.919,0.174-2.892,0.472
			c-2.024,0.621-3.675,2.122-5.352,4.866c-1.936,3.167-3.205,6.989-3.878,11.684c-1.046,7.287-0.421,14.307,1.855,20.866
			c0.028,0.079,0.048,0.109,0.048,0.109c4.354,0.961,8.722,1.959,13.096,2.93c0.674-0.873,1.308-1.698,1.752-2.556
			c1.91-3.694,2.932-7.763,3.751-11.61c0.797-3.743,1.484-7.415,1.151-11.168l-0.138-1.326c-0.103-1.009-0.205-2.018-0.331-3.024
			c-0.34-2.711-0.944-4.872-1.898-6.799C70.722,27.495,68.178,25.917,65.001,25.966z"/>
	</g>
	<g>
		<path  d="M54.896,95.11c-3.909,0.061-7.525-2.563-9-6.528c-1.13-3.037-1.18-6.321-0.152-10.04
			c0.677-2.451,1.8-4.903,3.432-7.495c0.701-1.113,1.764-1.538,2.958-1.194c3.503,1.009,7.01,2.003,10.517,2.998l3.383,0.96
			c0.131,0.037,0.253,0.082,0.454,0.164l1.769,0.693l-0.285,1.612c-0.115,0.648-0.222,1.3-0.329,1.954
			c-0.245,1.484-0.498,3.018-0.839,4.541c-0.753,3.377-2.166,6.251-4.2,8.543c-2.166,2.439-4.729,3.715-7.616,3.792H54.896z
			 M52.061,73.986c-1.163,1.971-1.968,3.809-2.469,5.62c-0.808,2.921-0.792,5.331,0.045,7.584c0.873,2.347,3.01,3.962,5.196,3.928
			l0.031,1.996l0.018-1.997c1.788-0.047,3.293-0.826,4.736-2.451c1.601-1.803,2.677-4.016,3.289-6.762
			c0.316-1.413,0.56-2.891,0.795-4.321c0.015-0.09,0.03-0.181,0.045-0.272l-2.186-0.619C58.394,75.793,55.225,74.895,52.061,73.986z
			"/>
	</g>
	<g>
		<path  d="M24.259,73.378c-2.288,0-4.498-0.848-6.391-2.453c-2.635-2.234-4.442-5.29-5.524-9.342
			c-0.425-1.594-0.715-3.218-0.994-4.789c-0.123-0.694-0.248-1.392-0.384-2.091l-0.347-1.779l3.254-0.968
			c1.068-0.317,2.082-0.618,3.093-0.924l1.603-0.484c2.634-0.796,5.269-1.592,7.894-2.412c0.356-0.111,0.679-0.164,0.994-0.164
			c0.67,0,1.621,0.244,2.353,1.404c2.146,3.404,3.401,6.401,3.951,9.433c0.716,3.95,0.202,7.226-1.572,10.015
			C30.346,71.717,27.456,73.378,24.259,73.378z M15.215,55.721c0.022,0.124,0.044,0.248,0.066,0.372
			c0.277,1.557,0.539,3.029,0.921,4.459c0.876,3.285,2.226,5.613,4.247,7.326c1.163,0.985,2.48,1.506,3.81,1.506
			c1.804,0,3.466-0.986,4.56-2.705c1.227-1.928,1.549-4.203,1.013-7.159c-0.42-2.315-1.371-4.66-2.975-7.326
			c-2.379,0.738-4.756,1.456-7.134,2.175l-1.602,0.484C17.169,55.141,16.215,55.425,15.215,55.721z"/>
	</g>
</g>
<g>
	<path  d="M100.975,64.631c-0.077,0.078-0.166,0.168-0.267,0.269c-0.097,0.097-0.201,0.208-0.321,0.323
		c-0.12,0.113-0.251,0.237-0.39,0.368c-0.138,0.132-0.286,0.272-0.441,0.419c-0.16,0.142-0.329,0.293-0.505,0.449
		c-0.178,0.154-0.354,0.323-0.551,0.483c-0.195,0.162-0.396,0.33-0.602,0.502c-0.203,0.175-0.423,0.342-0.646,0.515
		c-0.224,0.172-0.446,0.355-0.683,0.527s-0.477,0.348-0.72,0.524c-0.12,0.091-0.245,0.176-0.371,0.261
		c-0.126,0.086-0.252,0.171-0.379,0.258c-0.126,0.086-0.253,0.173-0.381,0.26c-0.127,0.087-0.261,0.166-0.391,0.25
		c-0.263,0.164-0.522,0.335-0.787,0.497c-0.267,0.157-0.535,0.315-0.801,0.472l-0.199,0.118l-0.203,0.11
		c-0.135,0.073-0.269,0.147-0.403,0.22c-0.529,0.302-1.074,0.558-1.586,0.824c-0.262,0.123-0.521,0.242-0.773,0.36
		c-0.126,0.059-0.25,0.117-0.373,0.175c-0.125,0.053-0.249,0.106-0.371,0.157c-0.243,0.105-0.479,0.206-0.708,0.304
		c-0.232,0.091-0.456,0.179-0.671,0.263c-0.107,0.042-0.212,0.083-0.315,0.124c-0.1,0.038-0.208,0.085-0.292,0.111
		c-0.175,0.06-0.341,0.117-0.497,0.17c-0.155,0.054-0.3,0.106-0.434,0.153c-0.185,0.062-0.355,0.119-0.508,0.171
		c-0.172,0.057-0.323,0.107-0.453,0.15c-0.291,0.097-0.44,0.42-0.325,0.704l4.075,10.143c7.685-3.611,14.249-9.019,19.066-15.649
		l-6.077-5.02C101.481,64.42,101.169,64.435,100.975,64.631z"/>
	<path opacity="0.6"  enable-background="new    " d="M106.497,19.22c0.063,0.111,0.137,0.242,0.222,0.392
		c0.072,0.131,0.158,0.273,0.241,0.432c0.083,0.16,0.173,0.332,0.269,0.517c0.096,0.184,0.199,0.38,0.306,0.586
		c0.1,0.209,0.206,0.43,0.317,0.66c0.108,0.231,0.231,0.466,0.338,0.719c0.11,0.251,0.224,0.51,0.341,0.777
		c0.122,0.265,0.228,0.544,0.342,0.827c0.11,0.284,0.235,0.569,0.341,0.868c0.107,0.297,0.216,0.6,0.326,0.906
		c0.058,0.151,0.106,0.308,0.156,0.464c0.05,0.156,0.101,0.314,0.152,0.471s0.102,0.315,0.153,0.473
		c0.048,0.159,0.091,0.321,0.138,0.481c0.089,0.322,0.188,0.642,0.271,0.966c0.08,0.325,0.16,0.649,0.241,0.973
		c0.042,0.161,0.076,0.323,0.109,0.485c0.034,0.162,0.068,0.323,0.102,0.484c0.034,0.16,0.068,0.32,0.101,0.479
		c0.032,0.159,0.056,0.319,0.085,0.477c0.055,0.316,0.109,0.628,0.162,0.935c0.043,0.308,0.085,0.612,0.126,0.908
		c0.02,0.148,0.044,0.294,0.059,0.439c0.015,0.146,0.029,0.289,0.044,0.431c0.03,0.283,0.058,0.558,0.086,0.824
		c0.018,0.267,0.035,0.525,0.052,0.772c0.009,0.124,0.017,0.245,0.025,0.363s0.018,0.236,0.018,0.337
		c0.006,0.209,0.011,0.406,0.016,0.592c0.006,0.185,0.011,0.359,0.016,0.519c0.001,0.197,0.002,0.379,0.004,0.543
		c0.001,0.181,0.002,0.34,0.002,0.477c0.002,0.307,0.262,0.548,0.568,0.528l4.11-0.269c-0.691-7.985-3.484-15.404-7.863-21.772
		l-1.81,1.231C106.433,18.673,106.361,18.978,106.497,19.22z"/>
	<path opacity="0.4"  enable-background="new    " d="M87.366,1.712c0.125,0.06,0.273,0.131,0.443,0.212
		c0.141,0.068,0.297,0.142,0.466,0.224c0.167,0.086,0.348,0.181,0.541,0.28c0.193,0.1,0.398,0.206,0.614,0.318
		c0.215,0.113,0.437,0.243,0.67,0.372c0.233,0.131,0.475,0.267,0.726,0.408c0.245,0.149,0.5,0.302,0.761,0.46
		c0.13,0.079,0.263,0.158,0.397,0.239c0.132,0.085,0.265,0.171,0.399,0.258c0.268,0.174,0.542,0.351,0.821,0.532
		c0.543,0.383,1.115,0.758,1.666,1.182c0.139,0.103,0.279,0.208,0.419,0.311L95.5,6.664l0.206,0.164
		c0.275,0.218,0.55,0.437,0.826,0.656c0.272,0.223,0.537,0.454,0.804,0.679c0.132,0.114,0.268,0.223,0.397,0.34
		c0.129,0.117,0.257,0.233,0.385,0.349s0.255,0.231,0.382,0.345c0.127,0.114,0.252,0.228,0.372,0.347
		c0.243,0.235,0.483,0.466,0.718,0.693s0.454,0.464,0.675,0.688c0.219,0.225,0.435,0.444,0.634,0.668
		c0.201,0.221,0.397,0.436,0.586,0.644c0.191,0.206,0.361,0.419,0.531,0.615c0.168,0.198,0.329,0.388,0.483,0.568
		c0.14,0.177,0.273,0.345,0.398,0.502s0.242,0.304,0.35,0.439c0.051,0.062,0.113,0.147,0.167,0.218
		c0.055,0.073,0.108,0.143,0.157,0.209c0.109,0.144,0.205,0.271,0.287,0.38c0.185,0.245,0.538,0.283,0.771,0.084l1.41-1.203
		c-4.889-5.953-11.248-10.773-18.57-13.98l-0.372,0.969C86.999,1.3,87.115,1.592,87.366,1.712z"/>
	<path opacity="0.8"  enable-background="new    " d="M111.887,42.949c-0.276-0.013-0.516,0.186-0.554,0.46
		c-0.016,0.116-0.035,0.252-0.056,0.407c-0.019,0.141-0.041,0.297-0.064,0.467c-0.029,0.169-0.061,0.352-0.095,0.547
		c-0.01,0.058-0.021,0.119-0.031,0.179l0,0c0,0,0,0.001,0,0.002c-0.024,0.142-0.049,0.287-0.076,0.441
		c-0.032,0.19-0.078,0.387-0.12,0.592l0.03,0.015c-1.332,7.299-6.137,14.017-6.137,14.017c-0.101,0.142-0.196,0.273-0.283,0.395
		c-0.036,0.053-0.103,0.14-0.156,0.211c-0.055,0.073-0.107,0.144-0.157,0.21c-0.108,0.145-0.203,0.273-0.285,0.382
		c-0.183,0.246-0.122,0.596,0.135,0.764l6.087,3.996c4.029-6.768,6.346-14.56,6.387-22.864L111.887,42.949z"/>
</g>
</svg>
