<?xml version="1.0" encoding="utf-8"?>
<!-- Generator: Adobe Illustrator 17.0.0, SVG Export Plug-In . SVG Version: 6.00 Build 0)  -->
<!DOCTYPE svg PUBLIC "-//W3C//DTD SVG 1.1//EN" "http://www.w3.org/Graphics/SVG/1.1/DTD/svg11.dtd">
<svg version="1.1" id="Layer_1" xmlns="http://www.w3.org/2000/svg" xmlns:xlink="http://www.w3.org/1999/xlink" x="0px" y="0px"
	 width="100px" height="100px" viewBox="0 0 100 100" enable-background="new 0 0 100 100" xml:space="preserve">
<g>
	<path d="M15.517,84.483c20.69,20.69,54.273,20.69,74.963,0c3.936-3.936,7.084-8.283,9.52-12.969
		c-19.978,10.457-45.202,7.271-61.994-9.52S18.028,19.978,28.486,0c-4.685,2.436-9.033,5.585-12.969,9.52
		C-5.173,30.21-5.173,63.793,15.517,84.483z"/>
	<path  d="M62.998,56l8.033,4.848l-2.132-9.138l7.097-6.148l-9.346-0.793l-3.653-8.618l-3.653,8.618l-9.346,0.793
		l7.097,6.148l-2.132,9.138L62.998,56z"/>
	<path  d="M50,26.659l3.852,2.325l-1.022-4.382l3.403-2.948l-4.481-0.38l-1.751-4.132l-1.751,4.132l-4.481,0.38
		l3.403,2.948l-1.022,4.382L50,26.659z"/>
</g>
</svg>
