<?xml version="1.0" encoding="utf-8"?>
<!-- Generator: Adobe Illustrator 17.0.0, SVG Export Plug-In . SVG Version: 6.00 Build 0)  -->
<!DOCTYPE svg PUBLIC "-//W3C//DTD SVG 1.1//EN" "http://www.w3.org/Graphics/SVG/1.1/DTD/svg11.dtd">
<svg fill="#66ACBE" version="1.1" xmlns="http://www.w3.org/2000/svg" xmlns:xlink="http://www.w3.org/1999/xlink" x="0px" y="0px"
	 width="78.606px" height="95px" viewBox="0 0 78.606 95" enable-background="new 0 0 78.606 95" xml:space="preserve">
<g id="Layer_1">
	<g>
		<path  d="M10.719,49.042c-0.73,0-1.479-0.27-2.002-0.721c-1.87-1.613-2.933-3.724-3.728-5.577
			C2.432,36.775,0.793,30.368,0.12,23.7c-0.305-3.024,0.032-5.963,0.359-8.805l0.064-0.561c0.323-2.84,0.996-5.289,2.059-7.486
			c2.355-4.865,6.596-7.236,12.206-6.797c3.615,0.281,6.665,2.147,9.326,5.704c2.744,3.669,4.014,7.826,4.978,11.772
			c0.795,3.26,1.185,6.651,1.156,10.08c-0.107,4.936-0.459,10.187-2.293,15.324c-0.653,1.821-1.97,2.492-2.961,2.733l-1.22,0.298
			c-4.146,1.011-8.292,2.022-12.443,3.007C11.149,49.017,10.936,49.042,10.719,49.042z M13.504,3.993
			c-3.421,0-5.811,1.503-7.308,4.595C5.333,10.372,4.781,12.4,4.51,14.786l-0.064,0.564c-0.317,2.753-0.616,5.353-0.353,7.948
			c0.633,6.264,2.169,12.277,4.566,17.873c0.58,1.354,1.26,2.737,2.302,3.786c3.967-0.944,7.927-1.91,11.888-2.875l1.219-0.297
			c0.056-0.006,0.095-0.053,0.147-0.199c1.643-4.6,1.961-9.465,2.06-14.039c0.026-3.072-0.325-6.133-1.042-9.072
			c-0.864-3.535-1.982-7.232-4.297-10.328c-1.986-2.653-3.971-3.923-6.439-4.115C14.159,4.006,13.828,3.993,13.504,3.993z"/>
	</g>
	<g>
		<path d="M68.292,70.997c-0.219,0.003-0.432-0.018-0.634-0.062c-4.599-1.017-9.191-2.068-13.782-3.119
			c-1.418-0.325-2.425-1.242-2.914-2.652c-2.488-7.167-3.172-14.819-2.034-22.743c0.752-5.243,2.199-9.56,4.422-13.199
			c1.38-2.258,3.668-5.399,7.588-6.602c1.333-0.409,2.679-0.627,4.001-0.647c4.733-0.074,8.672,2.355,10.805,6.664
			c1.143,2.308,1.89,4.949,2.282,8.075c0.129,1.038,0.235,2.077,0.341,3.116l0.139,1.343c0.384,4.335-0.392,8.495-1.221,12.386
			c-0.878,4.121-1.982,8.501-4.11,12.614c-0.613,1.186-1.398,2.202-2.157,3.186l-0.429,0.559
			C69.998,70.696,69.015,70.986,68.292,70.997z M65,25.967c-0.945,0.015-1.919,0.174-2.892,0.472
			c-2.024,0.621-3.675,2.122-5.352,4.866c-1.936,3.167-3.205,6.989-3.878,11.684c-1.046,7.287-0.421,14.307,1.855,20.866
			c0.028,0.079,0.048,0.109,0.048,0.109c4.354,0.961,8.722,1.959,13.096,2.93c0.674-0.873,1.308-1.698,1.752-2.556
			c1.91-3.694,2.932-7.763,3.751-11.61c0.797-3.743,1.484-7.415,1.151-11.168l-0.137-1.327c-0.102-1.009-0.205-2.018-0.331-3.024
			c-0.34-2.711-0.944-4.872-1.898-6.799C70.722,27.496,68.178,25.917,65,25.967z"/>
	</g>
	<g>
		<path d="M54.896,95.111c-3.909,0.061-7.525-2.563-9-6.528c-1.13-3.037-1.18-6.321-0.152-10.04
			c0.677-2.451,1.8-4.903,3.432-7.495c0.701-1.113,1.764-1.538,2.958-1.194c3.503,1.009,7.01,2.003,10.517,2.998l3.383,0.96
			c0.131,0.037,0.253,0.082,0.454,0.164l1.769,0.693l-0.285,1.612c-0.115,0.648-0.222,1.3-0.329,1.954
			c-0.245,1.484-0.498,3.018-0.839,4.541c-0.753,3.377-2.166,6.251-4.2,8.543c-2.166,2.439-4.729,3.715-7.616,3.792L54.896,95.111z
			 M52.061,73.987c-1.163,1.971-1.968,3.809-2.469,5.62c-0.808,2.921-0.792,5.331,0.045,7.584c0.873,2.347,3.01,3.962,5.196,3.928
			l0.031,1.996l0.018-1.997c1.788-0.047,3.293-0.826,4.736-2.451c1.601-1.803,2.677-4.016,3.289-6.762
			c0.316-1.413,0.56-2.891,0.795-4.321c0.015-0.09,0.03-0.181,0.045-0.272l-2.186-0.619C58.394,75.794,55.225,74.896,52.061,73.987z
			"/>
	</g>
	<g>
		<path d="M24.259,73.378c-2.288,0-4.498-0.848-6.391-2.453c-2.635-2.234-4.442-5.29-5.524-9.342
			c-0.425-1.594-0.715-3.218-0.994-4.789c-0.123-0.694-0.248-1.392-0.384-2.091l-0.347-1.779l3.254-0.968
			c1.068-0.317,2.082-0.618,3.093-0.924l1.603-0.484c2.634-0.796,5.269-1.592,7.894-2.412c0.356-0.111,0.679-0.164,0.994-0.164
			c0.67,0,1.621,0.244,2.353,1.404c2.146,3.404,3.401,6.401,3.951,9.433c0.716,3.95,0.202,7.226-1.572,10.015
			C30.346,71.718,27.456,73.378,24.259,73.378z M15.215,55.722c0.022,0.124,0.044,0.248,0.066,0.372
			c0.277,1.557,0.539,3.029,0.921,4.459c0.876,3.285,2.226,5.613,4.247,7.326c1.163,0.985,2.48,1.506,3.81,1.506
			c1.804,0,3.466-0.986,4.56-2.705c1.227-1.928,1.549-4.203,1.013-7.159c-0.42-2.315-1.371-4.66-2.975-7.326
			c-2.38,0.738-4.756,1.456-7.134,2.175l-1.602,0.484C17.169,55.142,16.215,55.425,15.215,55.722z"/>
	</g>
</g>
<g id="Layer_2">
</g>
</svg>
