<?xml version="1.0" encoding="utf-8"?>
<!-- Generator: Adobe Illustrator 17.0.0, SVG Export Plug-In . SVG Version: 6.00 Build 0)  -->
<!DOCTYPE svg PUBLIC "-//W3C//DTD SVG 1.1//EN" "http://www.w3.org/Graphics/SVG/1.1/DTD/svg11.dtd">
<svg fill="#D13076" version="1.1" xmlns="http://www.w3.org/2000/svg" xmlns:xlink="http://www.w3.org/1999/xlink" x="0px" y="0px"
	 width="84.985px" height="95px" viewBox="0 0 84.985 95" enable-background="new 0 0 84.985 95" xml:space="preserve">
<g id="Layer_1">
	<g>
		<g>
			<path  d="M42.259,21.937c-6.048,0-10.969-4.92-10.969-10.968S36.211,0,42.259,0c6.048,0,10.968,4.92,10.968,10.968
				S48.307,21.937,42.259,21.937z M42.259,3.815c-3.945,0-7.154,3.209-7.154,7.153s3.209,7.153,7.154,7.153
				c3.944,0,7.153-3.209,7.153-7.153S46.203,3.815,42.259,3.815z"/>
		</g>
	</g>
	<g>
		<path d="M57.984,95H45.002V67.999h-5.019V95H27.002V36.498H0V23.516h84.985v12.982H57.984V95z M48.983,91.018h5.02
			V32.516h27.001v-5.019H3.981v5.019h27.002v58.502h5.019V64.017h12.981V91.018z"/>
	</g>
	<g>
		<polygon points="11.414,64.645 8.586,61.817 14.331,56.072 8.586,50.326 11.414,47.498 19.987,56.072 		"/>
	</g>
	<g>
		<polygon points="73.57,64.645 64.997,56.072 73.57,47.498 76.399,50.326 70.653,56.072 76.399,61.817 		"/>
	</g>
</g>
<g id="Layer_2">
</g>
</svg>
