<?xml version="1.0" encoding="utf-8"?>
<!-- Generator: Adobe Illustrator 17.0.0, SVG Export Plug-In . SVG Version: 6.00 Build 0)  -->
<!DOCTYPE svg PUBLIC "-//W3C//DTD SVG 1.1//EN" "http://www.w3.org/Graphics/SVG/1.1/DTD/svg11.dtd">
<svg fill="#0C4C8A" version="1.1" id="Layer_1" xmlns="http://www.w3.org/2000/svg" xmlns:xlink="http://www.w3.org/1999/xlink" x="0px" y="0px"
	 width="95px" height="95px" viewBox="0 0 95 95" enable-background="new 0 0 95 95" xml:space="preserve">
<g>
	<g>
		<path  d="M47.5,95C21.308,95,0,73.692,0,47.5S21.308,0,47.5,0S95,21.308,95,47.5S73.692,95,47.5,95z M47.5,3.992
			C23.509,3.992,3.992,23.51,3.992,47.5S23.509,91.008,47.5,91.008S91.008,71.49,91.008,47.5S71.49,3.992,47.5,3.992z"/>
	</g>
</g>
<g id="Layer_2">
</g>
<path d="M63.954,26.344H31.046c-2.586,0-4.701,2.116-4.701,4.701v32.909c0,2.586,2.116,4.701,4.701,4.701h32.909
	c2.586,0,4.701-2.116,4.701-4.701V31.046C68.656,28.46,66.54,26.344,63.954,26.344z M40.448,59.253h-4.701V42.799h4.701V59.253z
	 M49.851,59.253h-4.701V35.747h4.701V59.253z M59.253,59.253h-4.701v-9.402h4.701V59.253z"/>
</svg>
