<?xml version="1.0" encoding="utf-8"?>
<!-- Generator: Adobe Illustrator 17.0.0, SVG Export Plug-In . SVG Version: 6.00 Build 0)  -->
<!DOCTYPE svg PUBLIC "-//W3C//DTD SVG 1.1//EN" "http://www.w3.org/Graphics/SVG/1.1/DTD/svg11.dtd">
<svg version="1.1" id="Layer_1" xmlns="http://www.w3.org/2000/svg" xmlns:xlink="http://www.w3.org/1999/xlink" x="0px" y="0px"
	 width="100px" height="100px" viewBox="0 0 100 100" enable-background="new 0 0 100 100" xml:space="preserve">
<g id="Layer_1_1_">
	<g>
		<path fill="#6D9EEB" d="M37.319,33.862c-4.817,0-8.736-3.919-8.736-8.736s3.918-8.737,8.736-8.737
			c4.817,0,8.736,3.919,8.736,8.736S42.135,33.862,37.319,33.862z M37.319,19.428c-3.142,0-5.697,2.556-5.697,5.697
			s2.556,5.697,5.697,5.697s5.697-2.556,5.697-5.697S40.46,19.428,37.319,19.428z"/>
	</g>
	<g>
		<path fill="#6D9EEB" d="M40.061,100H29.096V76.658l-5.023-4.783L17.745,100H6.376l10.216-51.448l-2.83,1.101l-2.841,13.12H0
			l3.209-20.497l20.418-8.629c0.85-0.267,2.385-0.539,3.575-0.453c3.017,0.025,5.829,1.664,7.724,4.506l3.751,5.999
			c2.872,5.023,8.42,8.107,14.515,8.107h1.76v10.965h-1.76c-7.12,0-14.15-2.744-19.4-7.467l-1.393,6.963l7.662,7.297
			C40.061,69.564,40.061,100,40.061,100z M32.616,96.48h3.926V71.074l-7.974-7.594l3.127-15.64l2.352,2.714
			c4.339,5.007,10.736,8.159,17.385,8.636v-3.935c-6.654-0.548-12.592-4.179-15.776-9.749l-3.687-5.896
			c-0.704-1.054-2.309-2.896-4.837-2.896l-0.143-0.006c-0.667-0.05-1.671,0.112-2.234,0.275L6.384,44.755L4.114,59.253h3.968
			l2.64-12.195l10.571-4.111L10.664,96.48h4.267l7.073-31.438L32.616,75.15V96.48z"/>
	</g>
</g>
<g>
	
		<rect x="72.771" y="29.504" transform="matrix(0.8698 0.4933 -0.4933 0.8698 25.1672 -32.0441)" fill="#6D9EEB" width="1.082" height="4.339"/>
	
		<rect x="66.286" y="26.333" transform="matrix(-0.8635 0.5044 -0.5044 -0.8635 141.1203 15.5527)" fill="#6D9EEB" width="4.339" height="1.083"/>
	
		<rect x="70.98" y="8.386" transform="matrix(-0.5056 -0.8628 0.8628 -0.5056 102.431 76.5523)" fill="#6D9EEB" width="4.339" height="1.083"/>
	
		<rect x="77.617" y="32.844" transform="matrix(-0.0062 -1 1 -0.0062 46.8968 113.3787)" fill="#6D9EEB" width="4.34" height="1.083"/>
	
		<rect x="66.199" y="13.228" transform="matrix(-0.8697 -0.4935 0.4935 -0.8697 121.0341 59.487)" fill="#6D9EEB" width="4.339" height="1.083"/>
	<rect x="64.413" y="19.68" transform="matrix(-1 0.004 -0.004 -1 133.2459 40.1766)" fill="#6D9EEB" width="4.34" height="1.084"/>
	
		<rect x="83.887" y="31.129" transform="matrix(-0.4934 -0.8698 0.8698 -0.4934 100.9701 122.1496)" fill="#6D9EEB" width="4.339" height="1.083"/>
	
		<rect x="88.744" y="26.335" transform="matrix(-0.8633 -0.5047 0.5047 -0.8633 155.8339 95.9628)" fill="#6D9EEB" width="4.338" height="1.083"/>
	<path fill="#6D9EEB" d="M79.693,40.616c11.197,0,20.307-9.11,20.307-20.308S90.89,0,79.693,0C68.495,0,59.385,9.11,59.385,20.308
		S68.495,40.616,79.693,40.616z M87.812,7.162l-2.193,3.744l-0.935-0.548l2.194-3.744L87.812,7.162z M93.185,13.009l-3.729,2.116
		c-0.166-0.322-0.348-0.634-0.545-0.937l3.739-2.121L93.185,13.009z M79.67,3.391v16.917h16.941c0,9.329-7.589,16.918-16.918,16.918
		s-16.919-7.59-16.919-16.919C62.774,10.987,70.352,3.403,79.67,3.391z"/>
</g>
</svg>
