<?xml version="1.0" encoding="utf-8"?>
<!-- Generator: Adobe Illustrator 17.0.0, SVG Export Plug-In . SVG Version: 6.00 Build 0)  -->
<!DOCTYPE svg PUBLIC "-//W3C//DTD SVG 1.1//EN" "http://www.w3.org/Graphics/SVG/1.1/DTD/svg11.dtd">
<svg fill="#E52323" version="1.1" xmlns="http://www.w3.org/2000/svg" xmlns:xlink="http://www.w3.org/1999/xlink" x="0px" y="0px"
	 width="36.876px" height="95px" viewBox="0 0 36.876 95" enable-background="new 0 0 36.876 95" xml:space="preserve">
<g id="Layer_1">
	<g>
		<path d="M28.68,61.225l-0.712-0.475V9.536c0.004-2.545-0.988-4.94-2.791-6.744C23.377,0.991,20.987,0,18.428,0
			c-5.152,0-9.514,4.363-9.526,9.532l0.004,51.219l-0.722,0.481C3.055,64.685-0.004,70.416,0,76.56
			c-0.002,4.927,1.917,9.557,5.4,13.037C8.88,93.081,13.51,95,18.438,95h0.001c4.924-0.002,9.553-1.92,13.035-5.401
			c3.484-3.488,5.402-8.119,5.402-13.041C36.874,70.395,33.81,64.664,28.68,61.225z M28.652,86.779
			c-2.728,2.727-6.356,4.23-10.215,4.232c-3.861,0-7.488-1.503-10.216-4.234C5.49,84.049,3.987,80.422,3.989,76.56
			c-0.004-4.816,2.398-9.309,6.416-12.015l2.49-1.66L12.892,9.536c0.007-2.955,2.594-5.547,5.555-5.547
			c1.474,0,2.862,0.577,3.909,1.623c1.048,1.049,1.625,2.441,1.623,3.921v53.349l2.483,1.659c4.022,2.695,6.424,7.188,6.426,12.018
			C32.887,80.416,31.383,84.045,28.652,86.779z"/>
		<path d="M20.309,66.947V40.442H16.32v26.515c-4.24,0.945-7.53,4.82-7.537,9.305
			c-0.003,2.547,0.99,4.943,2.794,6.747c1.801,1.797,4.187,2.786,6.72,2.786h0.033c2.54,0,4.928-0.99,6.724-2.786
			c1.804-1.803,2.796-4.198,2.793-6.738c0.003-2.547-0.989-4.943-2.791-6.744C23.736,68.206,22.096,67.326,20.309,66.947z
			 M22.233,80.188c-1.043,1.043-2.429,1.618-3.921,1.618h-0.016c-1.469,0-2.854-0.576-3.901-1.62
			c-1.049-1.048-1.625-2.441-1.625-3.919c0.004-2.902,2.642-5.544,5.546-5.544c1.479,0,2.869,0.577,3.917,1.625
			c1.048,1.047,1.623,2.439,1.622,3.923C23.859,77.748,23.282,79.139,22.233,80.188z"/>
	</g>
</g>
<g id="Layer_2">
</g>
</svg>
