<?xml version="1.0" encoding="utf-8"?>
<!-- Generator: Adobe Illustrator 17.0.0, SVG Export Plug-In . SVG Version: 6.00 Build 0)  -->
<!DOCTYPE svg PUBLIC "-//W3C//DTD SVG 1.1//EN" "http://www.w3.org/Graphics/SVG/1.1/DTD/svg11.dtd">
<svg fill="#66ACBE" version="1.1" xmlns="http://www.w3.org/2000/svg" xmlns:xlink="http://www.w3.org/1999/xlink" x="0px" y="0px"
	 width="99.946px" height="95px" viewBox="0 0 99.946 95" enable-background="new 0 0 99.946 95" xml:space="preserve">
<g id="Layer_1">
	<g>
		<g>
			<path  d="M43.483,13.476c0-0.867,0.279-1.577,0.837-2.132c0.558-0.555,1.29-0.832,2.196-0.832
				c0.919,0,1.656,0.277,2.211,0.832c0.555,0.555,0.832,1.282,0.832,2.181v0.709c0,0.86-0.277,1.566-0.832,2.117
				c-0.555,0.551-1.285,0.827-2.191,0.827c-0.886,0-1.617-0.271-2.191-0.812c-0.575-0.542-0.862-1.272-0.862-2.191V13.476z
				 M45.157,14.23c0,0.454,0.127,0.821,0.379,1.101c0.253,0.28,0.586,0.42,1,0.42c0.407,0,0.735-0.14,0.985-0.42
				c0.25-0.28,0.374-0.66,0.374-1.14V13.47c0-0.454-0.127-0.823-0.379-1.106c-0.253-0.283-0.586-0.424-1-0.424
				c-0.414,0-0.744,0.143-0.99,0.429c-0.246,0.287-0.369,0.663-0.369,1.131V14.23z M47.028,23.984l-1.231-0.709l7.002-11.207
				l1.231,0.709L47.028,23.984z M50.376,21.542c0-0.88,0.286-1.592,0.857-2.137c0.571-0.545,1.3-0.817,2.186-0.817
				c0.893,0,1.623,0.273,2.191,0.817c0.568,0.545,0.852,1.28,0.852,2.206v0.699c0,0.854-0.274,1.558-0.822,2.112
				c-0.548,0.555-1.282,0.832-2.201,0.832c-0.919,0-1.659-0.274-2.221-0.822c-0.561-0.548-0.842-1.272-0.842-2.171V21.542z
				 M52.05,22.3c0,0.447,0.129,0.812,0.389,1.098c0.259,0.286,0.592,0.428,1,0.428c0.42,0,0.75-0.136,0.99-0.409
				c0.24-0.272,0.359-0.655,0.359-1.147v-0.739c0-0.459-0.128-0.827-0.384-1.103c-0.256-0.276-0.584-0.414-0.985-0.414
				c-0.407,0-0.737,0.138-0.99,0.414c-0.253,0.276-0.379,0.657-0.379,1.142V22.3z"/>
		</g>
	</g>
	<path d="M51.986,42.662L99.946,0H0l47.958,42.668v48.304h-20.12V95h44.269v-4.028h-20.12V42.662z M89.357,4.028
		L49.97,39.065L10.587,4.028H89.357z"/>
</g>
<g id="Layer_2">
</g>
</svg>
