<?xml version="1.0" encoding="utf-8"?>
<!-- Generator: Adobe Illustrator 17.0.0, SVG Export Plug-In . SVG Version: 6.00 Build 0)  -->
<!DOCTYPE svg PUBLIC "-//W3C//DTD SVG 1.1//EN" "http://www.w3.org/Graphics/SVG/1.1/DTD/svg11.dtd">
<svg fill="#66ACBE" version="1.1" xmlns="http://www.w3.org/2000/svg" xmlns:xlink="http://www.w3.org/1999/xlink" x="0px" y="0px"
	 width="107.338px" height="94.798px" viewBox="0 0 107.338 94.798" enable-background="new 0 0 107.338 94.798"
	 xml:space="preserve">
<g id="Layer_1">
	<g>
		<g>
			<g>
				<path d="M70.549,21.875c-6.031,0-10.938-4.906-10.938-10.937S64.518,0,70.549,0
					c6.031,0,10.937,4.906,10.937,10.937S76.58,21.875,70.549,21.875z M70.549,3.804c-3.933,0-7.134,3.2-7.134,7.133
					s3.2,7.133,7.134,7.133c3.933,0,7.133-3.2,7.133-7.133S74.482,3.804,70.549,3.804z"/>
			</g>
		</g>
		<g>
			<g>
				<path d="M22.379,95C9.829,95,0,85.171,0,72.622s9.829-22.378,22.379-22.378c12.548,0,22.378,9.829,22.378,22.378
					S34.927,95,22.379,95z M22.379,54.232c-10.312,0-18.39,8.078-18.39,18.39s8.078,18.39,18.39,18.39
					c10.311,0,18.389-8.078,18.389-18.39S32.69,54.232,22.379,54.232z"/>
			</g>
			<g>
				<path d="M84.959,95c-12.548,0-22.378-9.829-22.378-22.378s9.829-22.378,22.378-22.378
					c12.549,0,22.379,9.829,22.379,22.378S97.509,95,84.959,95z M84.959,54.232c-10.311,0-18.389,8.078-18.389,18.39
					s8.078,18.39,18.389,18.39c10.312,0,18.39-8.078,18.39-18.39S95.272,54.232,84.959,54.232z"/>
			</g>
		</g>
		<g>
			<path d="M59.934,81.997H47.66V60.195L35.137,49.238c-2.077-1.593-3.219-4.198-3.219-7.346
				c0-2.67,1.091-5.23,3.07-7.21l11.506-11.507c1.597-2.04,4.183-3.162,7.302-3.162c2.88,0,5.383,0.929,7.875,2.923l0.164,0.147
				l7.87,7.871c3.736,3.735,8.279,5.629,13.504,5.629h1.994v12.274H83.21c-8.793,0-16.376-3.123-22.537-9.283l-1.904-1.904
				l-7.153,7.153l8.318,8.696V81.997z M51.649,78.009h4.296V55.119L46.036,44.76l12.732-12.732l4.724,4.725
				c4.916,4.914,10.869,7.617,17.723,8.053V40.49c-5.441-0.449-10.361-2.748-14.329-6.716l-7.789-7.79
				c-1.739-1.37-3.378-1.982-5.299-1.982c-1.34,0-3.158,0.293-4.205,1.688l-0.185,0.213L37.808,37.501
				c-1.226,1.226-1.902,2.786-1.902,4.39c0,1.34,0.293,3.158,1.688,4.204l0.118,0.094l13.937,12.195V78.009z"/>
		</g>
	</g>
</g>
<g id="Layer_2">
</g>
</svg>
