<?xml version="1.0" encoding="utf-8"?>
<!-- Generator: Adobe Illustrator 17.0.0, SVG Export Plug-In . SVG Version: 6.00 Build 0)  -->
<!DOCTYPE svg PUBLIC "-//W3C//DTD SVG 1.1//EN" "http://www.w3.org/Graphics/SVG/1.1/DTD/svg11.dtd">
<svg version="1.1" id="Layer_1" xmlns="http://www.w3.org/2000/svg" xmlns:xlink="http://www.w3.org/1999/xlink" x="0px" y="0px"
	 fill="#000000" width="107px" height="95px" viewBox="0 0 107 95" enable-background="new 0 0 107 95" xml:space="preserve">
<g>
	<g>
		
			<rect x="79.767" y="29.501" transform="matrix(-0.8698 -0.4933 0.4933 -0.8698 134.5403 98.836)"  width="1.082" height="4.339"/>
		
			<rect x="73.284" y="26.335" transform="matrix(0.8635 -0.5044 0.5044 0.8635 -3.2554 41.7258)"  width="4.339" height="1.083"/>
		
			<rect x="77.983" y="8.381" transform="matrix(0.5056 0.8628 -0.8628 0.5056 47.3234 -64.7401)"  width="4.339" height="1.083"/>
		
			<rect x="84.618" y="32.842" transform="matrix(0.0062 1 -1 0.0062 119.6325 -53.6092)"  width="4.34" height="1.083"/>
		
			<rect x="73.201" y="13.23" transform="matrix(0.8697 0.4935 -0.4935 0.8697 16.6142 -35.4024)"  width="4.339" height="1.083"/>
		<rect x="71.412" y="19.68" transform="matrix(1 -0.004 0.004 1 -0.0801 0.2939)"  width="4.34" height="1.084"/>
		
			<rect x="90.886" y="31.13" transform="matrix(0.4934 0.8698 -0.8698 0.4934 74.6911 -64.8956)"  width="4.339" height="1.083"/>
		
			<rect x="95.743" y="26.336" transform="matrix(0.8633 0.5047 -0.5047 0.8633 26.9511 -45.7428)"  width="4.338" height="1.083"/>
		<path  d="M86.693,40.616c11.197,0,20.307-9.11,20.307-20.308C107,9.11,97.89,0,86.693,0
			C75.495,0,66.385,9.11,66.385,20.308C66.385,31.506,75.495,40.616,86.693,40.616z M94.812,7.162l-2.193,3.744l-0.935-0.548
			l2.194-3.744L94.812,7.162z M100.185,13.009l-3.729,2.116c-0.166-0.322-0.348-0.634-0.545-0.937l3.739-2.121L100.185,13.009z
			 M86.67,3.391v16.917h16.941c0,9.329-7.589,16.918-16.918,16.918s-16.919-7.59-16.919-16.919
			C69.774,10.987,77.352,3.403,86.67,3.391z"/>
	</g>
	<g>
		<g>
			<g>
				<path  d="M28.683,28.54c-6.048,0-10.969-4.92-10.969-10.968S22.634,6.603,28.683,6.603
					c6.048,0,10.968,4.92,10.968,10.968S34.73,28.54,28.683,28.54z M28.683,10.418c-3.945,0-7.154,3.209-7.154,7.153
					s3.209,7.153,7.154,7.153c3.944,0,7.153-3.209,7.153-7.153S32.627,10.418,28.683,10.418z"/>
			</g>
		</g>
		<g>
			<path  d="M33.253,95.576H17.992l1.006-2.698c1.041-2.795,5.722-14.48,7.894-19.891
				c-6.32-0.001-17.352-0.003-17.52-0.006c-4.897-0.099-7.188-2.054-8.245-3.676C0.108,67.742-0.74,65,1.008,60.805
				c2.003-4.808,4.141-9.643,6.208-14.318c1.534-3.47,3.12-7.058,4.636-10.6c1.721-4.023,4.772-5.979,9.329-5.979l0.202,0.001
				h43.249L58.714,41.95H32.101l-6.123,14.882l14.864,0.014c1.32,0.158,3.847,1.087,4.94,3.569c0.899,2.041,0.636,4.646-0.783,7.744
				c-0.631,1.426-2.09,4.921-3.78,8.968c-2.949,7.064-6.293,15.071-7.416,17.337L33.253,95.576z M23.789,91.576h6.951
				c1.421-3.135,4.363-10.182,6.789-15.99c1.698-4.068,3.165-7.581,3.823-9.069c0.907-1.981,1.177-3.566,0.771-4.489
				c-0.378-0.858-1.4-1.135-1.682-1.196H20.007l9.414-22.882h26.802l1.985-4.041l-37.027-0.001c-2.935,0-4.572,1.029-5.651,3.553
				c-1.525,3.564-3.116,7.163-4.655,10.644C8.816,52.76,6.687,57.575,4.7,62.343c-0.593,1.425-1.114,3.41-0.224,4.775
				c0.751,1.151,2.519,1.813,4.976,1.862c0.346,0.002,13.495,0.005,20.397,0.006l2.96,0l-1.104,2.746
				C31.64,71.893,26.274,85.239,23.789,91.576z"/>
		</g>
	</g>
</g>
</svg>
