<?xml version="1.0" encoding="utf-8"?>
<!-- Generator: Adobe Illustrator 17.0.0, SVG Export Plug-In . SVG Version: 6.00 Build 0)  -->
<!DOCTYPE svg PUBLIC "-//W3C//DTD SVG 1.1//EN" "http://www.w3.org/Graphics/SVG/1.1/DTD/svg11.dtd">
<svg fill="#0C4C8A" version="1.1" xmlns="http://www.w3.org/2000/svg" xmlns:xlink="http://www.w3.org/1999/xlink" x="0px" y="0px"
	 width="104.416px" height="94.986px" viewBox="0 0 104.416 94.986" enable-background="new 0 0 104.416 94.986"
	 xml:space="preserve">
<g id="Layer_1">
	<g>
		<g>
			<path  d="M40.826,19.857c-5.475,0-9.928-4.454-9.928-9.928S35.351,0,40.826,0c5.474,0,9.928,4.454,9.928,9.928
				S46.3,19.857,40.826,19.857z M40.826,3.453c-3.571,0-6.475,2.905-6.475,6.475s2.905,6.475,6.475,6.475s6.475-2.905,6.475-6.475
				S44.396,3.453,40.826,3.453z"/>
		</g>
	</g>
	<path d="M43.794,31.095l-4.256-6.807c-2.167-3.25-5.391-5.114-8.844-5.114c-0.832,0-1.496,0.133-2.082,0.25
		c-0.481,0.096-0.861,0.172-1.297,0.172H26.91L3.545,29.482L0,52.738h12.396l3.137-14.888l3.202-1.245L0,94.948l11.947,0.025
		l14.219-33.086l6.751,6.603v26.483h12.447V60.44l-8.691-8.278l1.578-7.891c5.956,5.355,13.931,8.468,22.007,8.468h2V40.292h-2
		C53.344,40.292,47.051,36.794,43.794,31.095z M58.258,48.667c-7.541-0.542-14.796-4.118-19.717-9.796l-2.673-3.084l-3.551,17.752
		l9.047,8.615v28.819h-4.447V66.776L24.878,55.309L8.306,92.517l-3.744,0.015L24.069,30.24l-12.003,4.668l-2.914,13.83H4.656
		l2.506-16.444l20.588-8.71c0.634-0.035,1.166-0.142,1.646-0.238c0.481-0.096,0.862-0.172,1.298-0.172
		c2.865,0,4.686,2.088,5.483,3.284l4.184,6.689c3.61,6.32,10.348,10.439,17.896,11.062L58.258,48.667L58.258,48.667z"/>
	<polygon points="77.416,29.086 77.416,33.086 77.416,60.086 50.416,60.086 50.416,62.482 50.416,64.086 
		50.416,90.986 22.916,90.986 22.916,94.986 50.416,94.986 50.416,94.986 54.416,94.986 54.416,64.086 77.416,64.086 81.416,64.086 
		81.416,60.086 81.416,33.086 104.416,33.086 104.416,29.086 	"/>
</g>
<g id="Layer_2">
</g>
</svg>
