<?xml version="1.0" encoding="utf-8"?>
<!-- Generator: Adobe Illustrator 17.0.0, SVG Export Plug-In . SVG Version: 6.00 Build 0)  -->
<!DOCTYPE svg PUBLIC "-//W3C//DTD SVG 1.1//EN" "http://www.w3.org/Graphics/SVG/1.1/DTD/svg11.dtd">
<svg version="1.1" id="Layer_1" xmlns="http://www.w3.org/2000/svg" xmlns:xlink="http://www.w3.org/1999/xlink" x="0px" y="0px"
	  fill="#000000" width="145.213px" height="95px" viewBox="0 0 145.213 95" enable-background="new 0 0 145.213 95" xml:space="preserve">
<g>
	<g>
		<path  d="M12.643,51.418h5.06c-3.616-4.428-6.522-8.543-8.11-11.899C6.575,33.135,6.203,25.336,8.6,18.655
			c1.98-5.513,5.709-9.791,10.503-12.047c3.456-1.631,7.342-2.492,11.24-2.492c8.517,0,16.314,3.952,19.867,10.078l2.146,3.655
			c0.661,1.126,1.834,1.827,3.13,1.875l0.155,0.003c1.246,0,2.414-0.614,3.107-1.62c0.042-0.059,0.243-0.361,0.27-0.408l2.147-3.662
			C64.713,7.931,72.507,3.986,81.022,3.986c3.9,0,7.788,0.863,11.249,2.497c4.789,2.255,8.516,6.535,10.494,12.053
			c2.393,6.676,2.022,14.465-0.995,20.837c-1.606,3.396-4.554,7.564-8.223,12.047h5.062c2.964-3.807,5.341-7.346,6.76-10.344
			c3.46-7.309,3.888-16.238,1.145-23.886c-2.337-6.521-6.792-11.604-12.545-14.312c-3.985-1.882-8.462-2.877-12.946-2.877
			c-9.907,0-19.052,4.723-23.296,12.026l-2.083,3.554l-1.994-3.396C49.403,4.863,40.256,0.133,30.344,0.133
			c-4.481,0-8.956,0.993-12.938,2.873C11.651,5.714,7.194,10.793,4.853,17.309c-2.746,7.654-2.32,16.593,1.141,23.912
			C7.394,44.179,9.729,47.666,12.643,51.418z"/>
		<path  d="M55.612,89.665c-5.334-4.791-18.331-16.687-29.362-28.526h-5.371c12.731,14.068,28.97,28.73,33.409,32.684
			l1.324,1.178l1.324-1.179c4.443-3.955,20.672-18.603,33.429-32.684h-5.373C73.941,72.988,60.948,84.874,55.612,89.665z"/>
		<path  d="M112.067,54.567H66.899L62.538,36.55l-6.427,25.611l-9.338-38.012l-7.726,30.418L1.989,54.571
			C0.89,54.571,0,55.462,0,56.56s0.891,1.989,1.989,1.989h40.155l4.565-17.972l9.361,38.107l6.398-25.498l1.299,5.363h48.3
			c1.1,0,1.991-0.891,1.991-1.991C114.058,55.459,113.166,54.567,112.067,54.567z"/>
	</g>
	<g>
		<path  d="M129.677,64.56c-0.077,0.078-0.166,0.168-0.267,0.269c-0.097,0.097-0.201,0.208-0.321,0.323
			c-0.12,0.113-0.251,0.237-0.39,0.368c-0.138,0.132-0.286,0.272-0.441,0.419c-0.16,0.142-0.329,0.293-0.505,0.449
			c-0.178,0.154-0.354,0.323-0.551,0.483c-0.195,0.162-0.396,0.33-0.602,0.502c-0.203,0.175-0.423,0.342-0.646,0.515
			c-0.224,0.172-0.446,0.355-0.683,0.527s-0.477,0.348-0.72,0.524c-0.12,0.091-0.245,0.176-0.371,0.261
			c-0.126,0.086-0.252,0.171-0.379,0.258c-0.126,0.086-0.253,0.173-0.381,0.26c-0.127,0.087-0.261,0.166-0.391,0.25
			c-0.263,0.164-0.522,0.335-0.787,0.497c-0.267,0.157-0.535,0.315-0.801,0.472l-0.199,0.118l-0.203,0.11
			c-0.135,0.073-0.269,0.147-0.403,0.22c-0.529,0.302-1.074,0.558-1.586,0.824c-0.262,0.123-0.521,0.242-0.773,0.36
			c-0.126,0.059-0.25,0.117-0.373,0.175c-0.125,0.053-0.249,0.106-0.371,0.157c-0.243,0.105-0.479,0.206-0.708,0.304
			c-0.232,0.091-0.456,0.179-0.671,0.263c-0.107,0.042-0.212,0.083-0.315,0.124c-0.1,0.038-0.208,0.085-0.292,0.111
			c-0.175,0.06-0.341,0.117-0.497,0.17c-0.155,0.054-0.3,0.106-0.434,0.153c-0.185,0.062-0.355,0.119-0.508,0.171
			c-0.172,0.057-0.323,0.107-0.453,0.15c-0.291,0.097-0.44,0.42-0.325,0.704l4.075,10.143c7.685-3.611,14.249-9.019,19.066-15.649
			l-6.077-5.02C130.182,64.35,129.87,64.364,129.677,64.56z"/>
		<path opacity="0.6"  enable-background="new    " d="M135.199,19.149c0.063,0.111,0.137,0.242,0.222,0.392
			c0.072,0.131,0.158,0.273,0.241,0.432c0.083,0.16,0.173,0.332,0.269,0.517c0.096,0.184,0.199,0.38,0.306,0.586
			c0.1,0.209,0.206,0.43,0.317,0.66c0.108,0.231,0.231,0.466,0.338,0.719c0.11,0.251,0.224,0.51,0.341,0.777
			c0.122,0.265,0.228,0.544,0.342,0.827c0.11,0.284,0.235,0.569,0.341,0.868c0.107,0.297,0.216,0.6,0.326,0.906
			c0.058,0.151,0.106,0.308,0.156,0.464c0.05,0.156,0.101,0.314,0.152,0.471s0.102,0.315,0.153,0.473
			c0.048,0.159,0.091,0.321,0.138,0.481c0.089,0.322,0.188,0.642,0.271,0.966c0.08,0.325,0.16,0.649,0.241,0.973
			c0.042,0.161,0.076,0.323,0.109,0.485c0.034,0.162,0.068,0.323,0.102,0.484c0.034,0.16,0.068,0.32,0.101,0.479
			c0.032,0.159,0.056,0.319,0.085,0.477c0.055,0.316,0.109,0.628,0.162,0.935c0.043,0.308,0.085,0.612,0.126,0.908
			c0.02,0.148,0.044,0.294,0.059,0.439c0.015,0.146,0.029,0.289,0.044,0.431c0.03,0.283,0.058,0.558,0.086,0.824
			c0.018,0.267,0.035,0.525,0.052,0.772c0.009,0.124,0.017,0.245,0.025,0.363s0.018,0.236,0.018,0.337
			c0.006,0.209,0.011,0.406,0.016,0.592c0.006,0.185,0.011,0.359,0.016,0.519c0.001,0.197,0.002,0.379,0.004,0.543
			c0.001,0.181,0.002,0.34,0.002,0.477c0.002,0.307,0.262,0.548,0.568,0.528l4.11-0.269c-0.691-7.985-3.484-15.404-7.863-21.772
			l-1.81,1.231C135.135,18.603,135.062,18.908,135.199,19.149z"/>
		<path opacity="0.4"  enable-background="new    " d="M116.067,1.642c0.125,0.06,0.273,0.131,0.443,0.212
			c0.141,0.068,0.297,0.142,0.466,0.224c0.167,0.086,0.348,0.181,0.541,0.28c0.193,0.1,0.398,0.206,0.614,0.318
			c0.215,0.113,0.437,0.243,0.67,0.372c0.233,0.131,0.475,0.267,0.726,0.408c0.245,0.149,0.5,0.302,0.761,0.46
			c0.13,0.079,0.263,0.158,0.397,0.239c0.132,0.085,0.265,0.171,0.399,0.258c0.268,0.174,0.542,0.351,0.821,0.532
			c0.543,0.383,1.115,0.758,1.666,1.182c0.139,0.103,0.279,0.208,0.419,0.311l0.211,0.156l0.206,0.164
			c0.275,0.218,0.55,0.437,0.826,0.656c0.272,0.223,0.537,0.454,0.804,0.679c0.132,0.114,0.268,0.223,0.397,0.34
			s0.257,0.233,0.385,0.349c0.128,0.116,0.255,0.231,0.382,0.345c0.127,0.114,0.252,0.228,0.372,0.347
			c0.243,0.235,0.483,0.466,0.718,0.693s0.454,0.464,0.675,0.688c0.219,0.225,0.435,0.444,0.634,0.668
			c0.201,0.221,0.397,0.436,0.586,0.644c0.191,0.206,0.361,0.419,0.531,0.615c0.168,0.198,0.329,0.388,0.483,0.568
			c0.14,0.177,0.273,0.345,0.398,0.502s0.242,0.304,0.35,0.439c0.051,0.062,0.113,0.147,0.167,0.218
			c0.055,0.073,0.108,0.143,0.157,0.209c0.109,0.144,0.205,0.271,0.287,0.38c0.185,0.245,0.538,0.283,0.771,0.084l1.41-1.203
			c-4.889-5.953-11.248-10.773-18.57-13.98l-0.372,0.969C115.7,1.23,115.816,1.522,116.067,1.642z"/>
		<path opacity="0.8"  enable-background="new    " d="M140.588,42.878c-0.276-0.013-0.516,0.186-0.554,0.46
			c-0.016,0.116-0.035,0.252-0.056,0.407c-0.019,0.141-0.041,0.297-0.064,0.467c-0.029,0.169-0.061,0.352-0.095,0.547
			c-0.01,0.058-0.021,0.119-0.031,0.179l0,0c0,0,0,0.001,0,0.002c-0.024,0.142-0.049,0.287-0.076,0.441
			c-0.032,0.19-0.078,0.387-0.12,0.592l0.03,0.015c-1.332,7.299-6.137,14.017-6.137,14.017c-0.101,0.142-0.196,0.273-0.283,0.395
			c-0.036,0.053-0.103,0.14-0.156,0.211c-0.055,0.073-0.107,0.144-0.157,0.21c-0.108,0.145-0.203,0.273-0.285,0.382
			c-0.183,0.246-0.122,0.596,0.135,0.764l6.087,3.996c4.029-6.768,6.346-14.56,6.387-22.864L140.588,42.878z"/>
	</g>
</g>
</svg>
