<?xml version="1.0" encoding="utf-8"?>
<!-- Generator: Adobe Illustrator 17.0.0, SVG Export Plug-In . SVG Version: 6.00 Build 0)  -->
<!DOCTYPE svg PUBLIC "-//W3C//DTD SVG 1.1//EN" "http://www.w3.org/Graphics/SVG/1.1/DTD/svg11.dtd">
<svg fill="#FFA300" version="1.1" xmlns="http://www.w3.org/2000/svg" xmlns:xlink="http://www.w3.org/1999/xlink" x="0px" y="0px"
	 width="88.393px" height="95px" viewBox="0 0 88.393 95" enable-background="new 0 0 88.393 95" xml:space="preserve">
<g id="Layer_1">
	<circle  cx="30.346" cy="30.346" r="4.134"/>
	<polygon points="27.608,23.612 18.339,14.556 24.516,25.953 	"/>
	<path d="M84.224,66.071c-1.702,0-3.16,1.023-3.808,2.485h-5.99l-5.728-16.895l-8.967,27.104L49.559,24.254
		l-9.562,43.801H16.26v4.057h27.004l5.984-27.409L58.633,95l10.112-30.565l2.773,8.178h9.285c0.753,1.083,2.002,1.795,3.421,1.795
		c2.302,0,4.169-1.866,4.169-4.169S86.526,66.071,84.224,66.071z"/>
	<path d="M30.346,56.635c-14.496,0-26.289-11.793-26.289-26.289S15.85,4.057,30.346,4.057s26.29,11.793,26.29,26.289
		c0,3.733-0.787,7.283-2.196,10.503h4.377c1.212-3.274,1.876-6.812,1.876-10.503C60.693,13.613,47.08,0,30.346,0
		C13.613,0,0,13.613,0,30.346s13.613,30.346,30.346,30.346c2.6,0,5.125-0.33,7.535-0.948V55.53
		C35.493,56.246,32.964,56.635,30.346,56.635z"/>
</g>
<g id="Layer_2">
</g>
</svg>
