<?xml version="1.0" encoding="utf-8"?>
<!-- Generator: Adobe Illustrator 17.0.0, SVG Export Plug-In . SVG Version: 6.00 Build 0)  -->
<!DOCTYPE svg PUBLIC "-//W3C//DTD SVG 1.1//EN" "http://www.w3.org/Graphics/SVG/1.1/DTD/svg11.dtd">
<svg version="1.1" xmlns="http://www.w3.org/2000/svg" xmlns:xlink="http://www.w3.org/1999/xlink" x="0px" y="0px"
	 width="115.139px" height="95px" viewBox="0 0 115.139 95" enable-background="new 0 0 115.139 95" xml:space="preserve">
<g id="Layer_1">
	<polygon fill="#E52323" points="99.807,54.566 67.949,54.566 63.588,36.549 57.161,62.16 47.823,24.149 40.097,54.566
		13.658,54.566 4.11,54.566 4.11,58.548 13.658,58.548 43.194,58.548 47.759,40.576 57.12,78.683 63.518,53.185 64.817,58.548
		99.807,58.548 109.355,58.548 109.355,54.566 	"/>
	<path fill="#E52323" d="M107.565,17.189c-2.337-6.521-6.792-11.604-12.545-14.312C91.034,0.995,86.558,0,82.073,0
		c-9.907,0-19.052,4.723-23.296,12.026l-2.083,3.554L54.7,12.184C50.453,4.862,41.306,0.132,31.395,0.132
		c-4.481,0-8.956,0.993-12.938,2.873C12.702,5.712,8.245,10.792,5.904,17.307C3.158,24.961,3.584,33.9,7.045,41.219
		c1.072,2.264,2.695,4.841,4.703,7.607h4.952c-2.654-3.436-4.783-6.618-6.056-9.309c-3.018-6.384-3.39-14.183-0.993-20.864
		c1.98-5.513,5.709-9.791,10.503-12.047c3.456-1.631,7.342-2.492,11.24-2.492c8.517,0,16.314,3.952,19.867,10.078l2.146,3.655
		c0.661,1.126,1.834,1.827,3.13,1.875l0.155,0.003c1.246,0,2.414-0.614,3.107-1.62c0.042-0.059,0.243-0.361,0.27-0.408l2.147-3.662
		C65.765,7.927,73.559,3.982,82.073,3.982c3.9,0,7.788,0.863,11.249,2.497c4.789,2.255,8.516,6.535,10.494,12.053
		c2.393,6.676,2.022,14.465-0.995,20.837c-1.291,2.731-3.46,5.965-6.164,9.456h4.955c2.055-2.821,3.717-5.448,4.808-7.753
		C109.879,33.766,110.307,24.837,107.565,17.189z"/>
	<path fill="#E52323" d="M56.662,89.664c-4.889-4.391-16.212-14.752-26.561-25.565h-5.449C36.878,77.207,51.21,90.145,55.338,93.822
		L56.662,95l1.324-1.179c4.132-3.678,18.456-16.605,30.703-29.722h-5.451C72.873,74.92,61.552,85.273,56.662,89.664z"/>
</g>
<g id="Layer_2">
</g>
</svg>