<?xml version="1.0" encoding="utf-8"?>
<!-- Generator: Adobe Illustrator 17.0.0, SVG Export Plug-In . SVG Version: 6.00 Build 0)  -->
<!DOCTYPE svg PUBLIC "-//W3C//DTD SVG 1.1//EN" "http://www.w3.org/Graphics/SVG/1.1/DTD/svg11.dtd">
<svg version="1.1" xmlns="http://www.w3.org/2000/svg" xmlns:xlink="http://www.w3.org/1999/xlink" x="0px" y="0px"
	 fill="#4186d9" width="95.001px" height="94.986px" viewBox="0 0 95.001 94.986" enable-background="new 0 0 95.001 94.986" xml:space="preserve">
<g id="Layer_1">
</g>
<g id="Layer_2">
	<g>
		<g>
			<path  d="M95.001,95.455H65.688v-8.28l12.21-12.837c3.265-3.719,3.76-5.622,3.76-6.42
				c0-1.057-0.192-1.845-0.556-2.279c-0.114-0.137-0.422-0.504-1.431-0.504c-0.643,0-1.077,0.236-1.501,0.813
				c-0.545,0.744-0.81,1.69-0.81,2.892v2H64.94v-2c0-2.578,0.655-4.994,1.948-7.183c1.294-2.194,3.114-3.933,5.408-5.167
				c2.262-1.217,4.811-1.833,7.574-1.833c4.391,0,7.875,1.075,10.355,3.195c2.573,2.199,3.878,5.334,3.878,9.319
				c0,1.674-0.315,3.324-0.937,4.905c-0.595,1.516-1.518,3.109-2.743,4.733c-1.181,1.564-2.996,3.569-5.551,6.125l-1.77,2.043
				h11.896V95.455z M69.688,91.455h21.313v-2.478H74.346l7.648-8.821c2.414-2.415,4.176-4.352,5.236-5.757
				c1.006-1.334,1.751-2.608,2.213-3.787c0.438-1.114,0.66-2.271,0.66-3.442c0-2.8-0.81-4.854-2.477-6.278
				c-1.736-1.484-4.346-2.236-7.757-2.236c-2.096,0-4.007,0.456-5.68,1.356c-1.665,0.896-2.927,2.098-3.858,3.677
				c-0.593,1.003-0.992,2.045-1.206,3.15h4.42c0.238-1.221,0.705-2.311,1.397-3.255c1.174-1.603,2.809-2.45,4.728-2.45
				c2.377,0,3.758,1.053,4.498,1.936c0.988,1.182,1.488,2.812,1.488,4.847c0,2.486-1.527,5.384-4.808,9.118L69.688,88.774V91.455z"
				/>
		</g>
	</g>
	<path  d="M47.501,90.989c-23.98,0-43.49-19.509-43.49-43.489s19.51-43.489,43.49-43.489S90.99,23.52,90.99,47.5
		c0,1.084-0.053,2.156-0.132,3.22h4.021c0.072-1.065,0.121-2.137,0.121-3.22c0-26.192-21.309-47.5-47.5-47.5
		C21.309,0,0,21.308,0,47.5S21.309,95,47.501,95c3.439,0,6.79-0.376,10.023-1.074V89.81C54.304,90.573,50.951,90.989,47.501,90.989z
		"/>
</g>
</svg>
