<svg width="110" height="94" viewBox="0 0 110 94" fill="none" xmlns="http://www.w3.org/2000/svg">
	<g clip-path="url(#clip0_1_3)">
		<path d="M59.9072 9.347L54.9554 14.3198L50.0624 9.4142C44.3588 3.6896 36.908 0.833603 29.4614 0.837803C22.019 0.837803 14.5808 3.6896 8.90237 9.3806C-2.43763 20.75 -2.44183 39.2468 8.93597 50.6498L48.899 90.722C50.5454 92.3726 52.7084 93.2 54.8756 93.2C57.026 93.2 59.168 92.3852 60.8018 90.7472L73.5992 77.9162C74.3174 77.3114 75.023 76.6772 75.7034 75.9968L101.046 50.591C112.462 39.1502 112.432 20.7164 101.071 9.3218C95.4098 3.6434 87.959 0.800003 80.5124 0.800003C73.0574 0.800003 65.5982 3.6476 59.9072 9.347ZM80.5124 9.2C86.0396 9.2 91.2266 11.3504 95.1242 15.2522C103.201 23.3582 103.192 36.5504 95.099 44.6606L69.7646 70.058C69.2564 70.5662 68.7314 71.0366 68.1896 71.4902L67.9124 71.7254L67.6478 71.9858L54.8462 84.7916L14.8832 44.7194C6.78557 36.605 6.77297 23.4128 14.8496 15.3152C18.7556 11.3924 23.951 9.2378 29.4614 9.2378C34.9844 9.2378 40.1882 11.405 44.111 15.3404L49.004 20.246L54.9554 26.2184L60.9068 20.2502L65.8544 15.2816C69.7646 11.3588 74.9768 9.2 80.5124 9.2Z" fill="black"/>
		<mask id="mask0_1_3" style="mask-type:luminance" maskUnits="userSpaceOnUse" x="0" y="0" width="110" height="94">
			<path d="M59.9072 9.347L54.9554 14.3198L50.0624 9.4142C44.3588 3.6896 36.908 0.833603 29.4614 0.837803C22.019 0.837803 14.5808 3.6896 8.90237 9.3806C-2.43763 20.75 -2.44183 39.2468 8.93597 50.6498L48.899 90.722C50.5454 92.3726 52.7084 93.2 54.8756 93.2C57.026 93.2 59.168 92.3852 60.8018 90.7472L73.5992 77.9162C74.3174 77.3114 75.023 76.6772 75.7034 75.9968L101.046 50.591C112.462 39.1502 112.432 20.7164 101.071 9.3218C95.4098 3.6434 87.959 0.800003 80.5124 0.800003C73.0574 0.800003 65.5982 3.6476 59.9072 9.347ZM80.5124 9.2C86.0396 9.2 91.2266 11.3504 95.1242 15.2522C103.201 23.3582 103.192 36.5504 95.099 44.6606L69.7646 70.058C69.2564 70.5662 68.7314 71.0366 68.1896 71.4902L67.9124 71.7254L67.6478 71.9858L54.8462 84.7916L14.8832 44.7194C6.78557 36.605 6.77297 23.4128 14.8496 15.3152C18.7556 11.3924 23.951 9.2378 29.4614 9.2378C34.9844 9.2378 40.1882 11.405 44.111 15.3404L49.004 20.246L54.9554 26.2184L60.9068 20.2502L65.8544 15.2816C69.7646 11.3588 74.9768 9.2 80.5124 9.2Z" fill="white"/>
		</mask>
		<g mask="url(#mask0_1_3)">
			<path d="M118 -16H-8V110H118V-16Z" fill="#05B0AE"/>
		</g>
	</g>
	<defs>
		<clipPath id="clip0_1_3">
			<rect width="110" height="94" fill="white"/>
		</clipPath>
	</defs>
</svg>