<?xml version="1.0" encoding="UTF-8"?>
<svg width="20px" height="18px" viewBox="0 0 20 18" version="1.1" xmlns="http://www.w3.org/2000/svg" xmlns:xlink="http://www.w3.org/1999/xlink">
    <title>Combined Shape Copy</title>
    <g id="🗣-Icons" stroke="none" stroke-width="1" fill="none" fill-rule="evenodd">
        <path d="M14.6725963,0.497975992 C16.0364424,0.497975992 17.4010578,1.02123692 18.4379808,2.06621297 C20.4592994,4.10320959 20.5221327,7.36264015 18.6074413,9.47728404 L18.4333654,9.66083914 L13.7918271,14.3361794 L13.601731,14.5180068 L13.4064425,14.6893999 L11.0625964,17.0506438 C10.7633657,17.3520792 10.371058,17.502024 9.97721186,17.502024 C9.62990418,17.502024 9.28318544,17.3854472 8.99992523,17.1528115 L8.88259651,17.0460064 L1.56336599,9.6716599 C-0.520480099,7.57320579 -0.519710868,4.16930454 1.55721214,2.07703372 C2.59721211,1.02973895 3.95951975,0.504932193 5.32259663,0.504932193 C6.60120236,0.504207589 7.88048416,0.966097555 8.89613636,1.89187581 L9.09567343,2.08321701 L9.99182724,2.98597738 L10.8987503,2.07085043 C11.9410579,1.02200984 13.3072117,0.497975992 14.6725963,0.497975992 Z M14.6725963,1.99797599 C13.7399027,1.99797599 12.8423095,2.33488777 12.1365327,2.96351591 L11.9641754,3.12672421 L9.99271124,5.11602191 L8.03054234,3.13938735 C7.29778904,2.40041722 6.33060981,2.00436118 5.32259663,2.00493219 C4.3163504,2.00493219 3.35055891,2.39988106 2.62176964,3.13378219 C1.52049532,4.24319458 1.22987488,5.86743746 1.7509486,7.25096772 L3.566,7.25 L5.01851426,4.08218876 C5.26030494,3.55462539 5.96983497,3.499096 6.29973654,3.94312552 L6.36040407,4.03860036 L9.983,10.754 L11.5748429,7.65736402 C11.6869922,7.43899418 11.8975784,7.29136987 12.1364215,7.25745151 L12.2403083,7.25000191 L13.531252,7.24658027 C13.7910923,6.80011579 14.2747955,6.5 14.8285945,6.5 C15.6570216,6.5 16.3285945,7.17157288 16.3285945,8 C16.3285945,8.82842712 15.6570216,9.5 14.8285945,9.5 C14.2723176,9.5 13.7867653,9.1971926 13.5277777,8.74741815 L12.7,8.748 L10.6671586,12.7081161 C10.40861,13.2115452 9.72020848,13.2498136 9.3990189,12.8148538 L9.33991331,12.7215497 L5.755,6.075 L4.72974042,8.31248121 C4.62282906,8.54575125 4.40553444,8.70577404 4.15641982,8.7421349 L4.0479373,8.75 L2.761,8.74997599 L9.94713211,15.9892358 C9.95647783,15.9986502 9.96474628,16.002024 9.97721186,16.002024 L9.9890842,16.0003803 L9.99802157,15.9939128 L12.3418677,13.6326689 L12.6393158,13.3648892 L12.7273258,13.2793743 L17.3690109,8.60388622 C18.8763789,7.08596254 18.8762074,4.63740168 17.3732259,3.12276249 C16.6484133,2.39232081 15.6811692,1.99797599 14.6725963,1.99797599 Z" id="Combined-Shape-Copy" fill="#ffa300"></path>
    </g>
</svg>