<?xml version="1.0" encoding="utf-8"?>
<!-- Generator: Adobe Illustrator 17.0.0, SVG Export Plug-In . SVG Version: 6.00 Build 0)  -->
<!DOCTYPE svg PUBLIC "-//W3C//DTD SVG 1.1//EN" "http://www.w3.org/Graphics/SVG/1.1/DTD/svg11.dtd">
<svg fill="#CB2424" version="1.1" xmlns="http://www.w3.org/2000/svg" xmlns:xlink="http://www.w3.org/1999/xlink" x="0px" y="0px"
	 width="129.138px" height="94.986px" viewBox="0 0 129.138 94.986" enable-background="new 0 0 129.138 94.986"
	 xml:space="preserve">
<g id="Layer_1">
	<g>
		<g>
			<g>
				<g>
					<path  d="M119.199,35.169c-5.481,0-9.938-4.459-9.938-9.938s4.458-9.939,9.938-9.939
						c5.48,0,9.938,4.459,9.938,9.938S124.679,35.169,119.199,35.169z M119.199,18.748c-3.575,0-6.482,2.908-6.482,6.482
						s2.908,6.482,6.482,6.482c3.574,0,6.482-2.908,6.482-6.482S122.773,18.748,119.199,18.748z"/>
				</g>
			</g>
		</g>
		<g>
			<path d="M0,79.695V65.788l45.86-22.931c0.634-6.751,6.278-12.068,13.166-12.183L92.87,23.23h0.218
				c7.177,0,13.258,5.355,13.845,12.192c0.242,2.674-0.275,5.233-1.539,7.603v0.006l-0.078,0.165
				c-0.041,0.108-0.093,0.218-0.158,0.329c-0.769,1.581-1.78,2.938-3.007,4.036l-8.181,7.38c-6.155,5.585-9.918,13.937-9.816,21.791
				l0.026,2.026H68.691l0.012-2.011c0.048-8.412,4.398-19.32,9.473-27.363L59.94,56.071L0,79.695z M72.803,74.757H80.2
				c0.492-8.349,4.627-16.921,11.086-22.782l8.191-7.39c0.76-0.679,1.401-1.511,1.916-2.482v-0.356l0.323-0.337
				c0.997-1.748,1.411-3.645,1.23-5.636c-0.405-4.73-4.624-8.442-9.651-8.542L59.47,34.673h-0.218c-5.211,0-9.45,4.239-9.45,9.45
				v1.236L4,68.26v5.559l54.519-21.486l31.34-11.496l-4.735,5.708C79.6,53.204,73.64,65.446,72.803,74.757z"/>
		</g>
	</g>
</g>
<g id="Layer_2">
</g>
</svg>
