<?xml version="1.0" encoding="utf-8"?>
<!-- Generator: Adobe Illustrator 17.0.0, SVG Export Plug-In . SVG Version: 6.00 Build 0)  -->
<!DOCTYPE svg PUBLIC "-//W3C//DTD SVG 1.1//EN" "http://www.w3.org/Graphics/SVG/1.1/DTD/svg11.dtd">
<svg version="1.1" xmlns="http://www.w3.org/2000/svg" xmlns:xlink="http://www.w3.org/1999/xlink" x="0px" y="0px" width="107px"
	 height="95px" viewBox="0 0 107 95" enable-background="new 0 0 107 95" xml:space="preserve">
<g id="Layer_1">
	<g>
		<path fill="#58AE1F" d="M19.556,21.937c-6.048,0-10.969-4.92-10.969-10.968S13.508,0,19.556,0c6.048,0,10.968,4.92,10.968,10.968
			S25.604,21.937,19.556,21.937z M19.556,3.815c-3.945,0-7.154,3.209-7.154,7.153s3.209,7.153,7.154,7.153
			c3.944,0,7.153-3.209,7.153-7.153S23.5,3.815,19.556,3.815z"/>
	</g>
	<path fill="#58AE1F" d="M66.05,84.111H32.695c-6.982,0-12.927-5.095-13.965-11.983L9.436,27.497H0l9.389,46.046
		c1.793,11.512,11.7,20.004,23.353,20.004H66.05V84.111z"/>
	<g>
		<path fill="#58AE1F" d="M89.424,95.309L70.045,80.09H37.514c-7.892,0-14.734-5.655-16.27-13.447l-6.557-28.76
			c-1.205-6.997,3.524-13.711,10.542-14.967l0.279-0.031c1.753-0.288,3.639-0.162,5.514,0.366c1.691,0.501,3.155,1.237,4.377,2.194
			l7.946,6.153c5.977,4.686,14.367,6.967,21.148,5.679l2.374-0.451v14.434l-1.663,0.284c-1.668,0.286-3.373,0.43-5.068,0.43
			c-6.521,0-12.515-2.176-17.216-4.461l3.524,14.028h22.796l30.312,23.64L89.424,95.309z M18.621,37.154l6.535,28.657
			c1.18,5.98,6.371,10.279,12.357,10.279h33.914l17.676,13.882l4.422-4.421L67.866,65.541h-24.54l-6.511-25.912l4.056,2.284
			c8.595,4.84,15.228,6.634,21.997,5.917v-6.292c-7.388,0.674-15.811-1.948-21.981-6.786l-7.944-6.152
			c-0.845-0.661-1.833-1.152-3.029-1.507c-1.316-0.37-2.671-0.46-3.876-0.241l-0.269,0.032
			C21.016,27.827,17.828,32.39,18.621,37.154z"/>
	</g>
	<g>
		<g>
			<polygon fill="#58AE1F" points="78.342,32.831 74.22,21.937 71.97,27.093 52.608,27.093 52.608,24.093 70.005,24.093 
				74.417,13.982 78.723,25.361 81.464,19.88 83.741,24.093 87.621,24.093 87.621,27.093 81.952,27.093 81.568,26.38 			"/>
		</g>
		<path fill="#58AE1F" d="M101.246,12.375c-1.003-2.799-2.929-4.987-5.42-6.159C94.143,5.42,92.252,5,90.36,5
			c-4.012,0-7.748,1.854-9.679,4.759c-1.945-2.878-5.658-4.708-9.642-4.708c-1.892,0-3.78,0.42-5.461,1.213
			c-2.495,1.174-4.422,3.36-5.426,6.157c-1.076,2.999-0.98,6.461,0.213,9.411h4.471c-0.228-0.373-0.433-0.731-0.587-1.056
			c-1.013-2.142-1.137-4.76-0.331-7.004c0.642-1.789,1.837-3.17,3.365-3.89c1.152-0.544,2.451-0.832,3.756-0.832
			c2.77,0,5.381,1.294,6.504,3.229l0.817,1.393c0.468,0.797,1.298,1.293,2.212,1.327l0.111,0.002c0.883,0,1.709-0.434,2.212-1.162
			c0.026-0.039,0.146-0.227,0.146-0.227c0,0,0,0,0,0l0.82-1.398C84.98,10.292,87.591,9,90.36,9c1.306,0,2.604,0.288,3.761,0.834
			c1.525,0.718,2.719,2.1,3.36,3.892c0.805,2.242,0.68,4.856-0.332,6.994c-1.909,4.035-9.781,11.968-16.477,18.035
			c-3.172-2.876-6.603-6.17-9.541-9.268v0.004h-5.42c4.757,5.413,11.147,11.235,13.631,13.446l1.33,1.185l1.33-1.185
			c3.672-3.27,15.879-14.411,18.762-20.506C102.221,19.354,102.401,15.595,101.246,12.375z"/>
	</g>
	<rect y="0" fill="none" width="107" height="95.309"/>
</g>
<g id="Layer_2">
</g>
</svg>
