<?xml version="1.0" encoding="utf-8"?>
<!-- Generator: Adobe Illustrator 17.0.0, SVG Export Plug-In . SVG Version: 6.00 Build 0)  -->
<!DOCTYPE svg PUBLIC "-//W3C//DTD SVG 1.1//EN" "http://www.w3.org/Graphics/SVG/1.1/DTD/svg11.dtd">
<svg version="1.1" xmlns="http://www.w3.org/2000/svg" xmlns:xlink="http://www.w3.org/1999/xlink" x="0px" y="0px"
	 fill="#ffa300" width="101.166px" height="94.986px" viewBox="0 0 101.166 94.986" enable-background="new 0 0 101.166 94.986"
	 xml:space="preserve">
<g id="Layer_1">
</g>
<g id="Layer_2">
	<g>
		<path d="M90.939,95.455c-6.075,0-13.598-3.382-19.631-8.826c-6.034-5.444-9.783-12.283-9.784-17.849V46.928
			c-2.995-0.976-7.376-3.699-11.471-7.377c-0.072-0.065-0.144-0.13-0.215-0.195c-0.009,0.008-0.017,0.015-0.024,0.023
			c-2.814,2.583-6.151,5.574-10.169,7.058v22.344c-0.001,5.566-3.75,12.405-9.784,17.849c-6.034,5.444-13.556,8.826-19.631,8.826
			c-2.537,0-5.162-1.782-7.201-4.888C1.217,87.809,0,84.011,0,81.116C0,51.7,7.742,31.14,23.009,20.005
			c2.961-2.149,5.093-2.569,7.777-2.569c2.395,0,4.565,0.736,6.109,2.073c1.849,1.6,2.748,3.819,2.748,6.784v1.262
			c1.633-2.115,3.73-5.248,3.75-6.449c-0.004-0.671,0-18.646,0-18.646V0.455h12.857v20.716c0.081,4.016,2.642,6.079,4.512,7.587
			c0.278,0.224,0.535,0.432,0.76,0.626v-3.091c0-2.965,0.899-5.183,2.749-6.784c1.543-1.336,3.713-2.073,6.108-2.073
			c2.684,0,4.816,0.42,7.773,2.566C93.425,31.14,101.166,51.7,101.166,81.116c0,2.895-1.217,6.694-3.027,9.452
			C96.101,93.674,93.476,95.455,90.939,95.455z M49.709,33.4l1.541,1.696c0.469,0.516,0.967,1.011,1.481,1.472
			c3.602,3.234,7.538,5.743,10.186,6.597l2.616,0.842v24.773c0.001,4.398,3.322,10.237,8.461,14.873
			c5.247,4.734,11.899,7.793,16.946,7.793c0.844,0,2.358-0.806,3.849-3.079c1.373-2.092,2.37-5.142,2.37-7.252
			c0-28.063-7.188-47.534-21.363-57.872c-2.134-1.548-3.343-1.799-5.414-1.799c-1.41,0-2.681,0.399-3.484,1.096
			c-0.675,0.583-1.364,1.485-1.364,3.752v10.043l-2.886-1.413c-1.408-0.69-2.591-1.472-3.612-2.39
			c-0.22-0.198-0.489-0.413-0.788-0.653c-2.056-1.657-5.884-4.743-6.005-10.667V4.464h-4.839c-0.001,4.703-0.003,16.098,0,16.666
			c-0.069,3.923-6.147,10.8-6.681,11.29c-0.616,0.565-1.116,0.917-1.946,1.488l-3.142,2.163v-9.778c0-2.267-0.689-3.169-1.363-3.752
			c-0.805-0.697-2.075-1.096-3.485-1.096c-2.071,0-3.281,0.251-5.418,1.802C11.197,33.582,4.009,53.052,4.009,81.116
			c0,2.11,0.996,5.16,2.37,7.252c1.492,2.273,3.006,3.079,3.849,3.079c5.046,0,11.699-3.059,16.946-7.793
			c5.139-4.636,8.46-10.474,8.461-14.873V43.563l1.378-0.454c4.087-1.345,7.387-4.204,10.09-6.685
			c0.091-0.085,0.487-0.51,1.13-1.272L49.709,33.4z"/>
	</g>
</g>
</svg>
