<?xml version="1.0" encoding="utf-8"?>
<!-- Generator: Adobe Illustrator 17.0.0, SVG Export Plug-In . SVG Version: 6.00 Build 0)  -->
<!DOCTYPE svg PUBLIC "-//W3C//DTD SVG 1.1//EN" "http://www.w3.org/Graphics/SVG/1.1/DTD/svg11.dtd">
<svg version="1.1" xmlns="http://www.w3.org/2000/svg" xmlns:xlink="http://www.w3.org/1999/xlink" x="0px" y="0px"
	 width="95.001px" height="94.986px" viewBox="0 0 95.001 94.986" enable-background="new 0 0 95.001 94.986" xml:space="preserve">
<g id="Layer_1">
</g>
<g id="Layer_2">
	<circle fill="#4186D9" cx="47.5" cy="47.493" r="47.5"/>
	<g>
		<path fill="#FFFFFF" d="M42.577,62.17c-2.77,0-5.283-0.541-7.538-1.624c-2.255-1.083-4.19-2.522-5.806-4.315
			c-1.618-1.793-2.869-3.844-3.756-6.153c-0.89-2.308-1.332-4.67-1.332-7.085c0-2.52,0.471-4.936,1.412-7.244
			c0.939-2.308,2.237-4.35,3.889-6.127c1.652-1.775,3.613-3.186,5.886-4.235c2.271-1.047,4.739-1.571,7.403-1.571
			c2.736,0,5.231,0.559,7.486,1.678s4.183,2.583,5.78,4.395s2.84,3.872,3.73,6.179c0.887,2.31,1.332,4.653,1.332,7.032
			c0,2.522-0.463,4.928-1.386,7.218c-0.923,2.29-2.203,4.315-3.837,6.074c-1.633,1.757-3.587,3.16-5.858,4.207
			C47.709,61.645,45.24,62.17,42.577,62.17z M31.603,42.992c0,1.635,0.247,3.215,0.747,4.742c0.497,1.527,1.215,2.876,2.156,4.049
			c0.942,1.172,2.096,2.113,3.462,2.822c1.368,0.711,2.921,1.066,4.661,1.066c1.777,0,3.348-0.364,4.716-1.092
			c1.366-0.727,2.52-1.696,3.462-2.903c0.942-1.207,1.652-2.566,2.13-4.076c0.481-1.509,0.721-3.045,0.721-4.608
			c0-1.632-0.258-3.214-0.773-4.741c-0.515-1.527-1.243-2.877-2.185-4.049c-0.942-1.172-2.096-2.104-3.462-2.797
			c-1.368-0.692-2.903-1.038-4.609-1.038c-1.774,0-3.355,0.364-4.739,1.091c-1.386,0.728-2.541,1.688-3.462,2.877
			c-0.926,1.19-1.626,2.54-2.104,4.049C31.842,39.894,31.603,41.43,31.603,42.992z"/>
		<path fill="#FFFFFF" d="M70.855,71.172H60.501v-2.055l4.886-5.21c0.672-0.733,1.168-1.373,1.491-1.919
			c0.32-0.546,0.483-1.066,0.483-1.556c0-0.672-0.171-1.199-0.509-1.583c-0.338-0.384-0.823-0.576-1.453-0.576
			c-0.679,0-1.213,0.234-1.602,0.701c-0.392,0.467-0.587,1.081-0.587,1.842h-3.01c0-0.92,0.22-1.761,0.661-2.522
			c0.438-0.761,1.059-1.357,1.862-1.79c0.801-0.433,1.711-0.649,2.728-0.649c1.557,0,2.766,0.374,3.629,1.12
			c0.861,0.748,1.29,1.802,1.29,3.165c0,0.748-0.194,1.508-0.581,2.283c-0.387,0.775-1.052,1.679-1.991,2.709l-3.435,3.622h6.495
			V71.172z"/>
	</g>
</g>
</svg>
