<?xml version="1.0" encoding="utf-8"?>
<!-- Generator: Adobe Illustrator 17.0.0, SVG Export Plug-In . SVG Version: 6.00 Build 0)  -->
<!DOCTYPE svg PUBLIC "-//W3C//DTD SVG 1.1//EN" "http://www.w3.org/Graphics/SVG/1.1/DTD/svg11.dtd">
<svg version="1.1" xmlns="http://www.w3.org/2000/svg" xmlns:xlink="http://www.w3.org/1999/xlink" x="0px" y="0px"
	 width="94.424px" height="94.986px" viewBox="0 0 94.424 94.986" enable-background="new 0 0 94.424 94.986" xml:space="preserve">
<g id="Layer_1">
	<g>
		<g>
			<g>
				<path fill="#4A8BDB" d="M71.771,32.544c-5.481,0-9.938-4.459-9.938-9.938s4.458-9.939,9.938-9.939s9.938,4.459,9.938,9.938
					S77.251,32.544,71.771,32.544z M71.771,16.124c-3.575,0-6.482,2.908-6.482,6.482s2.908,6.482,6.482,6.482
					s6.482-2.908,6.482-6.482C78.253,19.032,75.345,16.124,71.771,16.124z"/>
			</g>
		</g>
		<g>
			<path fill="#4A8BDB" d="M67.207,57.391c-3.313,0-4.853-0.915-6.802-2.073c-2.266-1.36-5.003-3.004-10.102-3.004
				c-5.039,0-7.812,1.628-10.04,2.936c-2.146,1.332-3.615,2.141-6.916,2.141s-4.771-0.809-6.895-2.129L26.2,55.119
				c-0.957-0.55-2.042-1.175-3.323-1.67l-2.867-1.11l17.258-17.256l-3.661-3.661c-5.191-5.19-10.046-7.029-18.555-7.029
				l-2.337,0.012V7.706l2.403-0.009c13.358,0,20.904,2.81,28.833,10.74l34.505,34.45L76.07,54.16
				c-0.738,0.393-1.426,0.787-2.017,1.131C71.971,56.587,70.443,57.391,67.207,57.391z M50.303,48.31
				c6.208,0,9.752,2.127,12.096,3.535c1.798,1.068,2.594,1.542,4.808,1.542c2.176,0,2.99-0.417,4.64-1.438L41.121,21.27
				c-6.837-6.838-13.132-9.345-24.402-9.554v8.696c8.629,0.253,14.094,2.553,19.719,8.178l6.492,6.492L27.026,50.987
				c0.421,0.23,0.811,0.454,1.17,0.661l0.307,0.176c1.748,1.085,2.517,1.563,4.844,1.563s3.096-0.478,4.781-1.526l0.108-0.064
				C40.601,50.409,44.175,48.31,50.303,48.31z"/>
		</g>
	</g>
	<g>
		<rect x="3.286" y="80.527" fill="#4A8BDB" width="88.917" height="3.815"/>
	</g>
	<polygon fill="#4A8BDB" points="5.657,82.435 15.38,72.712 12.551,69.884 0,82.435 12.551,94.986 15.38,92.158 	"/>
	<polygon fill="#4A8BDB" points="88.768,82.435 79.045,72.712 81.873,69.884 94.424,82.435 81.873,94.986 79.045,92.158 	"/>
	<rect x="0" fill="none" width="94.424" height="94.986"/>
</g>
<g id="Layer_2">
</g>
</svg>
