<?xml version="1.0" encoding="UTF-8"?>
<svg xmlns="http://www.w3.org/2000/svg" version="1.1" viewBox="0 0 24 24">
  <defs>
    <style>
      .cls-1 {
        fill: #838383;
      }
    </style>
  </defs>
  <!-- Generator: Adobe Illustrator 28.6.0, SVG Export Plug-In . SVG Version: 1.2.0 Build 709)  -->
  <g>
    <g id="Layer_1">
      <path class="cls-1" d="M11.5,16.5h1v-5.5h-1v5.5ZM12,9.6c.2,0,.3,0,.4-.2.1-.1.2-.3.2-.4s0-.3-.2-.4c-.1-.1-.3-.2-.4-.2s-.3,0-.4.2c-.1.1-.2.3-.2.4s0,.3.2.4c.1.1.3.2.4.2ZM12,21c-1.2,0-2.4-.2-3.5-.7-1.1-.5-2-1.1-2.9-1.9s-1.5-1.8-1.9-2.9c-.5-1.1-.7-2.3-.7-3.5s.2-2.4.7-3.5c.5-1.1,1.1-2,1.9-2.9.8-.8,1.8-1.5,2.9-1.9,1.1-.5,2.3-.7,3.5-.7s2.4.2,3.5.7c1.1.5,2,1.1,2.9,1.9.8.8,1.5,1.8,1.9,2.9.5,1.1.7,2.3.7,3.5s-.2,2.4-.7,3.5c-.5,1.1-1.1,2-1.9,2.9s-1.8,1.5-2.9,1.9c-1.1.5-2.3.7-3.5.7ZM12,20c2.2,0,4.1-.8,5.7-2.3,1.6-1.6,2.3-3.4,2.3-5.7s-.8-4.1-2.3-5.7-3.4-2.3-5.7-2.3-4.1.8-5.7,2.3-2.3,3.4-2.3,5.7.8,4.1,2.3,5.7,3.4,2.3,5.7,2.3Z"/>
    </g>
  </g>
</svg>