<?xml version="1.0" encoding="utf-8"?>
<!-- Generator: Adobe Illustrator 17.0.0, SVG Export Plug-In . SVG Version: 6.00 Build 0)  -->
<!DOCTYPE svg PUBLIC "-//W3C//DTD SVG 1.1//EN" "http://www.w3.org/Graphics/SVG/1.1/DTD/svg11.dtd">
<svg fill="#97D5E0" version="1.1" xmlns="http://www.w3.org/2000/svg" xmlns:xlink="http://www.w3.org/1999/xlink" x="0px" y="0px"
	 width="107.261px" height="94.986px" viewBox="0 0 107.261 94.986" enable-background="new 0 0 107.261 94.986"
	 xml:space="preserve">
<g id="Layer_1">
	<g>
		<g>
			<path  d="M73.514,24.847c-5.481,0-9.938-4.459-9.938-9.938s4.458-9.939,9.938-9.939
				c5.48,0,9.938,4.459,9.938,9.938S78.994,24.847,73.514,24.847z M73.514,8.426c-3.575,0-6.482,2.908-6.482,6.482
				s2.908,6.482,6.482,6.482s6.482-2.908,6.482-6.482S77.088,8.426,73.514,8.426z"/>
		</g>
	</g>
	<g>
		<path d="M68.95,49.694c-3.313,0-4.853-0.915-6.802-2.073c-2.266-1.36-5.003-3.004-10.102-3.004
			c-5.039,0-7.812,1.628-10.04,2.936c-2.146,1.332-3.615,2.141-6.916,2.141s-4.771-0.809-6.895-2.129l-0.252-0.143
			c-0.957-0.55-2.042-1.175-3.323-1.67l-2.867-1.11l17.258-17.256l-3.661-3.661c-5.191-5.19-10.046-7.029-18.555-7.029l-2.337,0.012
			V0.009L16.861,0c13.358,0,20.904,2.81,28.833,10.74l34.505,34.45l-2.386,1.273c-0.738,0.393-1.426,0.787-2.017,1.131
			C73.714,48.889,72.186,49.694,68.95,49.694z M52.046,40.613c6.208,0,9.752,2.127,12.096,3.535
			c1.798,1.068,2.594,1.542,4.808,1.542c2.176,0,2.99-0.417,4.64-1.438L42.864,13.573c-6.837-6.838-13.132-9.345-24.402-9.554v8.696
			c8.629,0.253,14.094,2.553,19.719,8.178l6.492,6.492L28.77,43.29c0.421,0.23,0.811,0.454,1.17,0.661l0.307,0.176
			c1.748,1.085,2.517,1.563,4.844,1.563s3.096-0.478,4.781-1.526l0.108-0.064C42.344,42.711,45.918,40.613,52.046,40.613z"/>
	</g>
	<path d="M107.261,90.883c-0.119-0.005-0.243-0.012-0.353-0.016c-1.131-0.043-1.599-0.061-4.495-1.683
		c-10.089-6.177-20.044-4.042-25.997,0.016c-1.833,1.251-3.266,1.639-4.156,1.752l0.001-0.009c-0.501-0.045-0.909-0.062-1.272-0.076
		c-1.132-0.043-1.6-0.061-4.495-1.683c-10.092-6.177-20.046-4.042-25.997,0.016c-1.763,1.203-3.151,1.605-4.049,1.735
		C36,90.897,35.62,90.88,35.286,90.867c-1.132-0.043-1.6-0.061-4.495-1.683C20.702,83.007,10.745,85.143,4.793,89.2
		C2.425,90.816,0.712,91.004,0,90.998V95c1.42,0,3.954-0.38,7.049-2.492c1.698-1.158,10.726-6.597,21.718,0.13
		c3.064,1.719,4.228,2.086,5.737,2.197l-0.012,0.054C34.609,94.915,35.032,95,35.703,95c1.42,0,3.954-0.38,7.05-2.491
		c1.698-1.159,10.724-6.598,21.717,0.13c3.207,1.799,4.334,2.117,5.952,2.211l-0.009,0.04C70.529,94.915,70.952,95,71.623,95
		c1.42,0,3.954-0.38,7.049-2.492c1.698-1.158,10.724-6.598,21.717,0.13c3.475,1.948,4.506,2.159,6.367,2.23
		c0.156,0.006,0.324,0.013,0.505,0.022V90.883z"/>
	<path d="M107.261,66.472c-0.108-0.005-0.222-0.011-0.323-0.014c-1.131-0.043-1.599-0.061-4.495-1.683
		c-10.095-6.181-20.049-4.042-25.997,0.016c-1.832,1.25-3.266,1.639-4.157,1.752l0.001-0.01c-0.501-0.045-0.909-0.062-1.272-0.076
		c-1.132-0.043-1.6-0.061-4.495-1.683c-10.091-6.179-20.046-4.042-25.997,0.016c-1.761,1.201-3.148,1.604-4.046,1.735
		c-0.449-0.038-0.83-0.055-1.165-0.068c-1.132-0.043-1.6-0.061-4.495-1.683c-10.092-6.178-20.048-4.042-25.998,0.016
		C2.418,66.432,0.689,66.601,0,66.588v4.001c0.011,0,0.019,0.001,0.029,0.001c1.42,0,3.954-0.379,7.05-2.491
		c1.698-1.158,10.725-6.599,21.718,0.129c3.065,1.719,4.229,2.086,5.738,2.197l-0.012,0.054c0.117,0.027,0.54,0.111,1.209,0.111
		c1.42,0,3.954-0.379,7.051-2.491c1.698-1.158,10.718-6.601,21.717,0.129c3.208,1.8,4.335,2.117,5.953,2.211l-0.009,0.041
		c0.117,0.027,0.54,0.111,1.209,0.111c1.42,0,3.954-0.379,7.05-2.491c1.698-1.16,10.725-6.599,21.717,0.13
		c3.475,1.948,4.506,2.159,6.366,2.23c0.148,0.006,0.306,0.012,0.476,0.021V66.472z"/>
</g>
<g id="Layer_2">
</g>
</svg>
