<?xml version="1.0" encoding="utf-8"?>
<!-- Generator: Adobe Illustrator 17.0.0, SVG Export Plug-In . SVG Version: 6.00 Build 0)  -->
<!DOCTYPE svg PUBLIC "-//W3C//DTD SVG 1.1//EN" "http://www.w3.org/Graphics/SVG/1.1/DTD/svg11.dtd">
<svg version="1.1" xmlns="http://www.w3.org/2000/svg" xmlns:xlink="http://www.w3.org/1999/xlink" x="0px" y="0px" width="95px"
	 height="95px" viewBox="0 0 95 95" enable-background="new 0 0 95 95" xml:space="preserve">
<g id="Layer_1">
	<g>
		<g>
			<path fill="#6E3269" d="M45.924,95c-9.204,0-17.84-3.567-24.317-10.044C9.833,73.182,8.151,54.733,17.608,41.089L45.924,0
				l28.32,41.093c9.544,13.7,7.86,32.155-4.011,43.872C63.764,91.433,55.129,95,45.924,95z M45.924,7.038L20.894,43.359
				c-8.359,12.06-6.87,28.365,3.538,38.772c5.723,5.722,13.356,8.874,21.493,8.874s15.771-3.152,21.494-8.874
				c10.492-10.356,11.978-26.655,3.543-38.764L45.924,7.038z"/>
		</g>
	</g>
	<g>
		<g>
			<path fill="#6E3269" d="M34.563,63.547h-7.132v7.484h-3.079V53.313H35.61v2.483h-8.178v5.269h7.132V63.547z"/>
			<path fill="#6E3269" d="M43.3,71.275c-1.874,0-3.393-0.59-4.558-1.771c-1.164-1.18-1.746-2.752-1.746-4.716v-0.365
				c0-1.314,0.254-2.489,0.76-3.523c0.507-1.034,1.22-1.84,2.136-2.416c0.917-0.576,1.94-0.864,3.067-0.864
				c1.793,0,3.178,0.572,4.156,1.716c0.977,1.144,1.466,2.762,1.466,4.856v1.192h-8.604c0.089,1.087,0.453,1.947,1.089,2.579
				c0.637,0.633,1.437,0.95,2.403,0.95c1.354,0,2.458-0.548,3.31-1.643l1.594,1.521c-0.527,0.787-1.231,1.397-2.112,1.832
				C45.384,71.058,44.396,71.275,43.3,71.275z M42.948,59.994c-0.811,0-1.466,0.284-1.965,0.852s-0.817,1.359-0.955,2.373h5.635V63
				c-0.066-0.989-0.329-1.738-0.792-2.245C44.408,60.248,43.768,59.994,42.948,59.994z"/>
		</g>
	</g>
	<g>
		<g>
			<path fill="#6E3269" d="M55.119,57.257h0.98c0.467,0,0.812-0.117,1.037-0.35c0.225-0.234,0.337-0.543,0.337-0.929
				c0-0.373-0.111-0.663-0.334-0.871c-0.223-0.208-0.529-0.312-0.919-0.312c-0.352,0-0.647,0.097-0.885,0.289
				c-0.237,0.193-0.356,0.445-0.356,0.754H53.14c0-0.483,0.131-0.917,0.392-1.301c0.261-0.384,0.625-0.684,1.093-0.9
				c0.469-0.216,0.985-0.324,1.55-0.324c0.98,0,1.747,0.234,2.302,0.703c0.557,0.469,0.834,1.115,0.834,1.937
				c0,0.424-0.129,0.814-0.387,1.17c-0.26,0.356-0.598,0.63-1.018,0.821c0.522,0.187,0.91,0.467,1.168,0.84
				c0.256,0.374,0.384,0.815,0.384,1.324c0,0.823-0.3,1.482-0.9,1.978c-0.6,0.496-1.393,0.744-2.382,0.744
				c-0.924,0-1.68-0.244-2.268-0.732c-0.588-0.488-0.882-1.132-0.882-1.934h1.839c0,0.348,0.131,0.632,0.392,0.852
				c0.261,0.22,0.582,0.331,0.964,0.331c0.436,0,0.779-0.115,1.027-0.346c0.249-0.231,0.372-0.537,0.372-0.919
				c0-0.924-0.509-1.387-1.527-1.387h-0.973V57.257z"/>
			<path fill="#6E3269" d="M64.508,57.518h2.297v1.66h-2.297v2.596h-1.749v-2.596h-2.304v-1.66h2.304v-2.487h1.749V57.518z"/>
		</g>
	</g>
</g>
<g id="Layer_2">
</g>
</svg>
