<?xml version="1.0" encoding="utf-8"?>
<!-- Generator: Adobe Illustrator 17.0.0, SVG Export Plug-In . SVG Version: 6.00 Build 0)  -->
<!DOCTYPE svg PUBLIC "-//W3C//DTD SVG 1.1//EN" "http://www.w3.org/Graphics/SVG/1.1/DTD/svg11.dtd">
<svg version="1.1" id="Layer_1" xmlns="http://www.w3.org/2000/svg" xmlns:xlink="http://www.w3.org/1999/xlink" x="0px" y="0px"
	 fill="#000000" width="95px" height="95px" viewBox="0 0 95 95" enable-background="new 0 0 95 95" xml:space="preserve">
<g id="Layer_1_1_">
	<g>
		<g>
			<path  d="M47.5,95C21.308,95,0,73.692,0,47.5S21.308,0,47.5,0S95,21.308,95,47.5S73.692,95,47.5,95z M47.5,4.043
				C23.538,4.043,4.043,23.537,4.043,47.5S23.538,90.957,47.5,90.957S90.957,71.463,90.957,47.5S71.462,4.043,47.5,4.043z"/>
		</g>
		<g>
			<path  d="M18.928,35.979l6.647,17.661l6.631-17.661h5.175V59.02h-3.988v-7.596l0.396-10.16L26.984,59.02H24.12
				l-6.789-17.74l0.396,10.144v7.596h-3.988V35.979H18.928z"/>
			<path  d="M50.23,54.004l5.855-18.025h4.399L52.192,59.02h-3.877l-8.261-23.041h4.384L50.23,54.004z"/>
			<path  d="M81.263,48.101c0,2.258-0.39,4.239-1.171,5.942c-0.781,1.704-1.897,3.012-3.347,3.925
				s-3.12,1.369-5.009,1.369c-1.867,0-3.531-0.456-4.993-1.369c-1.461-0.912-2.59-2.213-3.387-3.901
				c-0.797-1.688-1.2-3.634-1.211-5.839V46.93c0-2.247,0.398-4.23,1.195-5.95c0.797-1.719,1.92-3.036,3.371-3.948
				c1.45-0.912,3.115-1.369,4.993-1.369s3.542,0.451,4.993,1.353c1.45,0.902,2.572,2.2,3.363,3.893s1.192,3.664,1.203,5.911
				C81.263,46.82,81.263,48.101,81.263,48.101z M77.259,46.899c0-2.553-0.483-4.51-1.448-5.871s-2.334-2.041-4.107-2.041
				c-1.73,0-3.084,0.678-4.059,2.034c-0.976,1.356-1.474,3.273-1.495,5.752v1.329c0,2.532,0.493,4.489,1.48,5.871
				c0.987,1.382,2.356,2.073,4.107,2.073c1.772,0,3.136-0.675,4.091-2.026c0.955-1.35,1.432-3.323,1.432-5.919v-1.202H77.259z"/>
		</g>
	</g>
</g>
<g id="Layer_2">
</g>
</svg>
