<?xml version="1.0" encoding="utf-8"?>
<!-- Generator: Adobe Illustrator 17.0.0, SVG Export Plug-In . SVG Version: 6.00 Build 0)  -->
<!DOCTYPE svg PUBLIC "-//W3C//DTD SVG 1.1//EN" "http://www.w3.org/Graphics/SVG/1.1/DTD/svg11.dtd">
<svg version="1.1" xmlns="http://www.w3.org/2000/svg" xmlns:xlink="http://www.w3.org/1999/xlink" x="0px" y="0px"
	 width="91.509px" height="95px" viewBox="0 0 91.509 95" enable-background="new 0 0 91.509 95" xml:space="preserve">
<g id="Layer_1">
	<g>
		<path fill="#58AE1F" d="M0,0.1v94.997h91.509V0.1H0z M87.509,91.097H47.755v-31.84h-4v31.84H4V4.1h83.509V91.097z"/>
		<path fill="#58AE1F" d="M36.893,39.373c2.636-1.465,5.699-2.239,8.858-2.239c3.158,0,6.221,0.774,8.858,2.239l1.239,0.689
			l18.517-16.453l-1.842-1.482c-7.588-6.104-17.094-9.466-26.769-9.466c-9.676,0-19.183,3.362-26.769,9.466l-1.842,1.482
			l18.509,16.454L36.893,39.373z M45.755,16.66c7.977,0,15.83,2.524,22.363,7.149L55.274,35.223c-2.238-1.05-4.679-1.714-7.2-1.968
			l-2.319-13.233l-2.319,13.232c-2.524,0.254-4.967,0.918-7.206,1.968L23.391,23.81C29.923,19.185,37.776,16.66,45.755,16.66z"/>
	</g>
</g>
<g id="Layer_2">
</g>
</svg>
