<?xml version="1.0" encoding="utf-8"?>
<!-- Generator: Adobe Illustrator 17.0.0, SVG Export Plug-In . SVG Version: 6.00 Build 0)  -->
<!DOCTYPE svg PUBLIC "-//W3C//DTD SVG 1.1//EN" "http://www.w3.org/Graphics/SVG/1.1/DTD/svg11.dtd">
<svg version="1.1" xmlns="http://www.w3.org/2000/svg" xmlns:xlink="http://www.w3.org/1999/xlink" x="0px" y="0px" width="107px"
	 height="94.767px" viewBox="0 0 107 94.767" enable-background="new 0 0 107 94.767" xml:space="preserve">
<g id="Layer_1">
	<g>
		<g>
			<path  d="M42.412,19.729c-5.475,0-9.928-4.454-9.928-9.928s4.454-9.928,9.928-9.928
				c5.474,0,9.928,4.454,9.928,9.928S47.886,19.729,42.412,19.729z M42.412,3.326c-3.571,0-6.475,2.905-6.475,6.475
				s2.905,6.475,6.475,6.475c3.57,0,6.475-2.905,6.475-6.475S45.982,3.326,42.412,3.326z"/>
		</g>
		<g>
			<path d="M45.529,94.895H33.067V68.366l-5.708-5.436l-7.192,31.964H7.246l11.61-58.47l-3.216,1.251l-3.229,14.911
				H0l3.647-23.293l23.205-9.807c0.966-0.304,2.711-0.612,4.063-0.515c3.429,0.028,6.625,1.891,8.778,5.121l4.263,6.818
				c3.264,5.709,9.569,9.214,16.496,9.214h2v12.461h-2c-8.092,0-16.081-3.119-22.048-8.486l-1.583,7.913l8.708,8.293V94.895z
				 M37.067,90.895h4.462V62.02l-9.062-8.63l3.554-17.775l2.673,3.084c4.931,5.69,12.201,9.272,19.758,9.815v-4.472
				c-7.562-0.623-14.311-4.749-17.929-11.08l-4.19-6.701c-0.8-1.198-2.624-3.291-5.497-3.291l-0.163-0.007
				c-0.758-0.057-1.899,0.127-2.539,0.313L7.255,32.11L4.676,48.586h4.51l3-13.859L24.2,30.055L12.119,90.895h4.849l8.038-35.729
				l12.062,11.487V90.895z"/>
		</g>
	</g>
	<g>
		<g>
			<polygon points="78.342,32.831 74.22,21.937 71.97,27.093 52.608,27.093 52.608,24.093 70.005,24.093 
				74.417,13.982 78.723,25.361 81.464,19.88 83.741,24.093 87.621,24.093 87.621,27.093 81.952,27.093 81.568,26.38 			"/>
		</g>
		<path d="M101.246,12.375c-1.003-2.799-2.929-4.987-5.42-6.159C94.143,5.42,92.252,5,90.36,5
			c-4.012,0-7.748,1.854-9.679,4.759c-1.945-2.878-5.658-4.708-9.642-4.708c-1.892,0-3.78,0.42-5.461,1.213
			c-2.495,1.174-4.422,3.36-5.426,6.157c-1.076,2.999-0.98,6.461,0.213,9.411h4.471c-0.228-0.373-0.433-0.731-0.587-1.056
			c-1.013-2.142-1.137-4.76-0.331-7.004c0.642-1.789,1.837-3.17,3.365-3.89c1.152-0.544,2.451-0.832,3.756-0.832
			c2.77,0,5.381,1.294,6.504,3.229l0.817,1.393c0.468,0.797,1.298,1.293,2.212,1.327l0.111,0.002c0.883,0,1.709-0.434,2.212-1.162
			c0.026-0.039,0.146-0.227,0.146-0.227v0l0.82-1.398C84.98,10.292,87.591,9,90.36,9c1.306,0,2.604,0.288,3.761,0.834
			c1.525,0.718,2.719,2.1,3.36,3.892c0.805,2.242,0.68,4.856-0.332,6.994c-1.909,4.035-9.781,11.968-16.477,18.035
			c-3.172-2.876-6.603-6.17-9.541-9.268v0.004h-5.42c4.757,5.413,11.147,11.235,13.631,13.446l1.33,1.185l1.33-1.185
			c3.672-3.27,15.879-14.411,18.762-20.506C102.221,19.354,102.401,15.595,101.246,12.375z"/>
	</g>
	<rect x="0" y="0" fill="none" width="107" height="94.767"/>
</g>
<g id="Layer_2">
</g>
</svg>
