<?xml version="1.0" encoding="utf-8"?>
<!-- Generator: Adobe Illustrator 17.0.0, SVG Export Plug-In . SVG Version: 6.00 Build 0)  -->
<!DOCTYPE svg PUBLIC "-//W3C//DTD SVG 1.1//EN" "http://www.w3.org/Graphics/SVG/1.1/DTD/svg11.dtd">
<svg version="1.1" id="Layer_1" xmlns="http://www.w3.org/2000/svg" xmlns:xlink="http://www.w3.org/1999/xlink" x="0px" y="0px"
	 fill="#000000" width="62.452px" height="94.973px" viewBox="7.365 0 62.452 94.973" enable-background="new 7.365 0 62.452 94.973"
	 xml:space="preserve">
<g id="Layer_1_1_">
	<g>
		<path fill="#FFA300" d="M49.777,19.857c-5.475,0-9.928-4.454-9.928-9.928S44.302,0,49.777,0c5.474,0,9.928,4.454,9.928,9.928
			S55.251,19.857,49.777,19.857z M49.777,3.453c-3.571,0-6.475,2.905-6.475,6.475s2.905,6.475,6.475,6.475s6.475-2.905,6.475-6.475
			S53.347,3.453,49.777,3.453z"/>
	</g>
	<g>
		<path fill="#FFA300" d="M52.894,95.022H40.432V68.494l-5.708-5.436l-7.192,31.964H14.611l11.61-58.47l-3.216,1.251l-3.229,14.911
			H7.365l3.647-23.293l23.205-9.807c0.966-0.304,2.711-0.612,4.063-0.515c3.429,0.028,6.625,1.891,8.778,5.121l4.263,6.818
			c3.264,5.709,9.569,9.214,16.496,9.214h2v12.461h-2c-8.092,0-16.081-3.119-22.048-8.486l-1.583,7.913l8.708,8.293V95.022z
			 M44.432,91.022h4.462V62.148l-9.062-8.63l3.554-17.775l2.673,3.084c4.931,5.69,12.201,9.272,19.758,9.815V44.17
			c-7.562-0.623-14.311-4.749-17.929-11.08l-4.19-6.701c-0.8-1.198-2.624-3.291-5.497-3.291l-0.163-0.007
			c-0.758-0.057-1.899,0.127-2.539,0.313L14.62,32.237l-2.58,16.477h4.51l3-13.859l12.015-4.672L19.484,91.022h4.849l8.038-35.729
			L44.432,66.78V91.022z"/>
	</g>
</g>
<g id="Layer_2">
</g>
</svg>
