<?xml version="1.0" encoding="utf-8"?>
<!-- Generator: Adobe Illustrator 17.0.0, SVG Export Plug-In . SVG Version: 6.00 Build 0)  -->
<!DOCTYPE svg PUBLIC "-//W3C//DTD SVG 1.1//EN" "http://www.w3.org/Graphics/SVG/1.1/DTD/svg11.dtd">
<svg version="1.1" id="Layer_1" xmlns="http://www.w3.org/2000/svg" xmlns:xlink="http://www.w3.org/1999/xlink" x="0px" y="0px"
	 fill="#000000" width="65.828px" height="94.75px" viewBox="0 0 65.828 94.75" enable-background="new 0 0 65.828 94.75" xml:space="preserve">
<g id="Layer_1_1_">
	<g>
		<g>
			<g>
				<path  d="M33.411,21.937c-6.048,0-10.969-4.92-10.969-10.968S27.362,0,33.411,0
					c6.048,0,10.968,4.92,10.968,10.968S39.458,21.937,33.411,21.937z M33.411,3.815c-3.945,0-7.154,3.209-7.154,7.153
					s3.209,7.153,7.154,7.153c3.944,0,7.153-3.209,7.153-7.153S37.355,3.815,33.411,3.815z"/>
			</g>
		</g>
		<g>
			<path  d="M65.828,94.75H50.183V74.007H33.114c-6.602,0-11.972-5.371-11.972-11.972V37.517
				c0-6.346,4.774-11.726,10.869-12.248c0.36-0.033,0.73-0.05,1.1-0.05c1.958,0,3.837,0.466,5.586,1.386l0.029,0.013
				c0.128,0.053,0.252,0.112,0.372,0.178c1.386,0.682,2.582,1.58,3.558,2.669l5.342,5.922c3.141,3.462,7.621,5.22,13.312,5.22
				l3.918-0.049v13.557l-3.696-0.021c-6.16-0.036-11.675-1.296-16.445-3.754v5.946h8.771c6.601,0,11.971,5.371,11.971,11.972
				L65.828,94.75L65.828,94.75z M54.183,90.75h7.646V68.258c0-4.396-3.575-7.972-7.971-7.972H41.086V43.065l3.121,2.112
				c4.686,3.171,10.41,4.824,17.021,4.914v-5.484c-6.841-0.022-12.281-2.221-16.196-6.536l-5.352-5.932
				c-0.645-0.721-1.445-1.315-2.385-1.772l-0.394-0.189c-1.469-0.771-2.981-1.068-4.536-0.925c-4.056,0.347-7.223,3.977-7.223,8.264
				v24.519c0,4.396,3.576,7.972,7.972,7.972h21.068L54.183,90.75L54.183,90.75z"/>
		</g>
		<path  d="M39.977,78.105C37.598,85.52,30.748,90.75,22.441,90.75C12.101,90.75,4,82.65,4,72.308
			c0-7.989,4.844-14.622,11.811-17.235v-4.246C6.562,53.593,0,62.042,0,72.308C0,84.893,9.857,94.75,22.441,94.75
			c10.573,0,19.218-6.958,21.713-16.645C44.154,78.105,39.977,78.105,39.977,78.105z"/>
	</g>
</g>
<g id="Layer_2">
</g>
</svg>
