<?xml version="1.0" encoding="utf-8"?>
<!-- Generator: Adobe Illustrator 17.0.0, SVG Export Plug-In . SVG Version: 6.00 Build 0)  -->
<!DOCTYPE svg PUBLIC "-//W3C//DTD SVG 1.1//EN" "http://www.w3.org/Graphics/SVG/1.1/DTD/svg11.dtd">
<svg version="1.1" id="Layer_1" xmlns="http://www.w3.org/2000/svg" xmlns:xlink="http://www.w3.org/1999/xlink" x="0px" y="0px"
	 width="24px" height="24px" viewBox="0 0 24 24" enable-background="new 0 0 24 24" xml:space="preserve">
<rect fill="none" width="24" height="24"/>
<g>
	<path fill="#66ACBE" d="M5.793,18.207c3.724,3.724,9.769,3.724,13.493,0c0.708-0.708,1.275-1.491,1.714-2.334
		c-3.596,1.882-8.136,1.309-11.159-1.714S6.245,6.596,8.128,3C7.284,3.438,6.502,4.005,5.793,4.714
		C2.069,8.438,2.069,14.483,5.793,18.207z"/>
	<path fill="#66ACBE" d="M14.34,13.08l1.446,0.873l-0.384-1.645l1.277-1.107l-1.682-0.143l-0.658-1.551l-0.658,1.551L12,11.201
		l1.277,1.107l-0.384,1.645L14.34,13.08z"/>
	<path fill="#66ACBE" d="M12,7.799l0.693,0.418l-0.184-0.789l0.613-0.531l-0.807-0.068L12,6.086l-0.315,0.744l-0.807,0.068
		l0.613,0.531l-0.184,0.789L12,7.799z"/>
</g>
</svg>
