<svg width="33" height="32" viewBox="0 0 33 32" fill="none" xmlns="http://www.w3.org/2000/svg">
<path fill-rule="evenodd" clip-rule="evenodd" d="M5.5748 32H26.5045C29.5831 32 32.0793 29.51 32.0793 26.439V5.56102C32.0793 2.49001 29.5831 0 26.5045 0H5.5748C2.49618 0 0 2.49001 0 5.56102V26.439C0 29.51 2.49618 32 5.5748 32ZM21.5731 8.58272L25.3542 12.3545C25.6788 12.6783 25.6788 13.2035 25.3542 13.526L19.2201 19.6449L15.439 23.4166C15.3312 23.5241 15.2003 23.5962 15.0625 23.6316C14.7938 23.701 14.4978 23.6357 14.2823 23.433C14.2796 23.4302 14.2765 23.4275 14.2734 23.4248C14.2704 23.4221 14.2673 23.4194 14.2646 23.4166L10.4835 19.6449L7.50852 16.6773C6.14039 15.3125 6.14039 13.0988 7.50852 11.734C8.87664 10.3693 11.0959 10.3693 12.464 11.734L14.3109 13.5777C14.6179 13.8512 15.083 13.8512 15.3899 13.5791L20.3986 8.58272C20.7219 8.25888 21.2484 8.25888 21.5731 8.58272Z" fill="#E92134"/>
</svg>
