<svg width="33" height="32" fill="none" xmlns="http://www.w3.org/2000/svg"><path fill-rule="evenodd" clip-rule="evenodd" d="M5.575 32h20.93c3.078 0 5.574-2.49 5.574-5.561V5.561C32.08 2.49 29.583 0 26.504 0H5.575C2.497 0 0 2.49 0 5.561v20.878C0 29.51 2.496 32 5.575 32zM21.573 8.583l3.781 3.771a.826.826 0 010 1.172l-6.134 6.119-3.781 3.772a.832.832 0 01-1.166.008l-.008-.008-3.782-3.772-2.974-2.968a3.49 3.49 0 010-4.943 3.51 3.51 0 014.955 0l1.847 1.844a.814.814 0 001.079.001l5.009-4.996a.831.831 0 011.174 0z" fill="#E92134"/></svg>