<?xml version="1.0" encoding="utf-8"?>
<!-- Generator: Adobe Illustrator 17.0.0, SVG Export Plug-In . SVG Version: 6.00 Build 0)  -->
<!DOCTYPE svg PUBLIC "-//W3C//DTD SVG 1.1//EN" "http://www.w3.org/Graphics/SVG/1.1/DTD/svg11.dtd">
<svg version="1.1" id="Layer_1" xmlns="http://www.w3.org/2000/svg" xmlns:xlink="http://www.w3.org/1999/xlink" x="0px" y="0px"
	 width="18px" height="18px" viewBox="-21.313 0.688 18 18" enable-background="new -21.313 0.688 18 18" xml:space="preserve">
<g>
	<circle cx="-12.313" cy="9.688" r="7.2"/>
</g>
<g>
	<path fill="#FFFFFF" d="M-12.313,0.688c-4.968,0-9,4.032-9,9s4.032,9,9,9s9-4.032,9-9S-7.344,0.688-12.313,0.688z M-12.313,16.887
		c-3.978,0-7.2-3.222-7.2-7.2s3.222-7.2,7.2-7.2s7.2,3.222,7.2,7.2S-8.334,16.887-12.313,16.887z"/>
</g>
<polygon fill="#FFFFFF" points="-8.225,6.706 -9.331,5.6 -12.313,8.582 -15.294,5.6 -16.4,6.706 -13.418,9.688 -16.4,12.67 
	-15.294,13.775 -12.313,10.793 -9.331,13.775 -8.225,12.67 -11.207,9.688 "/>
</svg>
