<?xml version="1.0" encoding="utf-8"?>
<!-- Generator: Adobe Illustrator 17.0.0, SVG Export Plug-In . SVG Version: 6.00 Build 0)  -->
<!DOCTYPE svg PUBLIC "-//W3C//DTD SVG 1.1//EN" "http://www.w3.org/Graphics/SVG/1.1/DTD/svg11.dtd">
<svg version="1.1" id="icons" xmlns="http://www.w3.org/2000/svg" xmlns:xlink="http://www.w3.org/1999/xlink" x="0px" y="0px"
	 width="44.725px" height="35.203px" viewBox="0 0 44.725 35.203" enable-background="new 0 0 44.725 35.203" xml:space="preserve">
<linearGradient id="SVGID_1_" gradientUnits="userSpaceOnUse" x1="-0.0012" y1="17.6009" x2="44.7253" y2="17.6009">
	<stop  offset="0" style="stop-color:#4EA5F7"/>
	<stop  offset="1" style="stop-color:#378DF4"/>
</linearGradient>
<path fill="url(#SVGID_1_)" d="M6.977,24.783v9.419c0,0.552-0.448,1-1,1H1c-0.552,0-1-0.448-1-1v-9.419c0-0.552,0.448-1,1-1h4.977
	C6.529,23.783,6.977,24.231,6.977,24.783z M18.502,11.383h-4.977c-0.552,0-1,0.448-1,1v21.819c0,0.552,0.448,1,1,1h4.977
	c0.552,0,1-0.448,1-1V12.383C19.502,11.831,19.054,11.383,18.502,11.383z M31.026,23.783h-4.977c-0.552,0-1,0.448-1,1v9.419
	c0,0.552,0.448,1,1,1h4.977c0.552,0,1-0.448,1-1v-9.419C32.026,24.231,31.578,23.783,31.026,23.783z M43.725,17.783h-4.977
	c-0.552,0-1,0.448-1,1v15.419c0,0.552,0.448,1,1,1h4.977c0.552,0,1-0.448,1-1V18.783C44.725,18.231,44.277,17.783,43.725,17.783z
	 M25.265,18.643c-0.209-0.226-0.381-0.471-0.527-0.728c-0.207-0.367-0.366-0.754-0.444-1.158c-0.192-0.994,0.012-2.046,0.604-2.913
	l-6.705-6.705c-1.293,0.813-2.958,0.789-4.227-0.077l-6.889,6.87c0.985,1.499,0.844,3.519-0.474,4.838
	c-1.511,1.511-3.96,1.511-5.471,0c-1.511-1.511-1.511-3.96,0-5.471c1.311-1.311,3.317-1.459,4.814-0.491l6.918-6.896
	c-0.933-1.493-0.758-3.481,0.54-4.779c1.511-1.511,3.96-1.511,5.471,0c1.334,1.334,1.486,3.397,0.465,4.902l6.708,6.708
	c0.841-0.526,1.837-0.705,2.782-0.522c0.404,0.078,0.791,0.237,1.158,0.444c0.258,0.146,0.503,0.318,0.728,0.527
	c0.035,0.033,0.076,0.056,0.111,0.091c0.035,0.034,0.058,0.075,0.091,0.111c0.194,0.209,0.358,0.433,0.497,0.67l5.775-2.726
	c-0.429-1.336-0.13-2.857,0.931-3.918c1.511-1.511,3.96-1.511,5.471,0s1.511,3.96,0,5.471s-3.96,1.511-5.471,0
	c-0.052-0.052-0.088-0.113-0.136-0.167l-6.066,2.863c0.126,1.129-0.226,2.301-1.092,3.167c-0.189,0.189-0.392,0.354-0.607,0.496
	c-1.462,0.965-3.43,0.823-4.753-0.405c-0.035-0.033-0.076-0.056-0.111-0.091C25.321,18.72,25.298,18.679,25.265,18.643z
	 M39.456,11.555c0.773,0.773,2.027,0.773,2.8,0s0.773-2.027,0-2.8s-2.027-0.773-2.8,0S38.683,10.782,39.456,11.555z M26.112,16.018
	c0,0.507,0.193,1.013,0.58,1.4c0.097,0.097,0.201,0.182,0.311,0.254c0.33,0.217,0.71,0.326,1.09,0.326c0.507,0,1.013-0.193,1.4-0.58
	c0.193-0.193,0.338-0.417,0.435-0.655c0.049-0.119,0.085-0.242,0.109-0.367c0.048-0.249,0.048-0.506,0-0.756
	c-0.073-0.374-0.254-0.732-0.544-1.022c-0.774-0.773-2.027-0.773-2.801,0C26.305,15.004,26.112,15.511,26.112,16.018z M5.269,14.635
	c-0.773-0.773-2.027-0.773-2.8,0c-0.773,0.773-0.773,2.027,0,2.8c0.773,0.773,2.027,0.773,2.8,0S6.042,15.408,5.269,14.635z
	 M17.541,2.469c-0.773-0.773-2.027-0.773-2.8,0c-0.773,0.773-0.773,2.027,0,2.8c0.773,0.773,2.027,0.773,2.8,0
	C18.314,4.496,18.314,3.242,17.541,2.469z"/>
</svg>
