<?xml version="1.0" encoding="utf-8"?>
<!-- Generator: Adobe Illustrator 17.0.0, SVG Export Plug-In . SVG Version: 6.00 Build 0)  -->
<!DOCTYPE svg PUBLIC "-//W3C//DTD SVG 1.1//EN" "http://www.w3.org/Graphics/SVG/1.1/DTD/svg11.dtd">
<svg fill="#ffffff" version="1.1" id="Layer_1" xmlns="http://www.w3.org/2000/svg" xmlns:xlink="http://www.w3.org/1999/xlink" x="0px" y="0px"
	 width="14.591px" height="18px" viewBox="0 0 14.591 18" enable-background="new 0 0 14.591 18" xml:space="preserve">
<g>
	<path d="M12.87,8.235c0.03-0.24,0.052-0.48,0.052-0.735s-0.023-0.495-0.052-0.735l1.583-1.238c0.142-0.113,0.18-0.315,0.09-0.48
		l-1.5-2.595c-0.09-0.165-0.292-0.225-0.458-0.165l-1.868,0.75c-0.39-0.3-0.81-0.548-1.267-0.735L9.165,0.314
		C9.142,0.135,8.985,0,8.797,0h-3C5.61,0,5.452,0.135,5.43,0.315L5.145,2.303C4.687,2.49,4.267,2.745,3.877,3.038L2.01,2.288
		c-0.173-0.068-0.368,0-0.458,0.165l-1.5,2.595c-0.097,0.165-0.053,0.367,0.09,0.48l1.582,1.238c-0.03,0.24-0.052,0.488-0.052,0.735
		s0.023,0.495,0.052,0.735L0.142,9.474C0,9.586-0.038,9.789,0.052,9.954l1.5,2.595c0.09,0.165,0.293,0.225,0.457,0.165l1.868-0.75
		c0.39,0.3,0.81,0.547,1.267,0.735l0.285,1.987C5.452,14.865,5.61,15,5.797,15h3c0.188,0,0.345-0.135,0.368-0.315l0.285-1.987
		c0.457-0.188,0.877-0.442,1.267-0.735l1.868,0.75c0.172,0.067,0.367,0,0.458-0.165l1.5-2.595c0.09-0.165,0.052-0.367-0.09-0.48
		L12.87,8.235z M7.297,10.125c-1.447,0-2.625-1.177-2.625-2.625S5.85,4.875,7.297,4.875S9.922,6.052,9.922,7.5
		S8.745,10.125,7.297,10.125z"/>
</g>
</svg>
