<svg width="366" height="32" viewBox="0 0 366 32" fill="none" xmlns="http://www.w3.org/2000/svg">
<path fill-rule="evenodd" clip-rule="evenodd" d="M5.5748 32H26.5045C29.5831 32 32.0793 29.51 32.0793 26.439V5.56102C32.0793 2.49001 29.5831 0 26.5045 0H5.5748C2.49618 0 0 2.49001 0 5.56102V26.439C0 29.51 2.49618 32 5.5748 32ZM21.5731 8.58272L25.3542 12.3545C25.6788 12.6783 25.6788 13.2035 25.3542 13.526L19.2201 19.6449L15.439 23.4166C15.3312 23.5241 15.2003 23.5962 15.0625 23.6316C14.7938 23.701 14.4978 23.6357 14.2823 23.433C14.2796 23.4302 14.2765 23.4275 14.2734 23.4248C14.2704 23.4221 14.2673 23.4194 14.2646 23.4166L10.4835 19.6449L7.50852 16.6773C6.14039 15.3125 6.14039 13.0988 7.50852 11.734C8.87664 10.3693 11.0959 10.3693 12.464 11.734L14.3109 13.5777C14.6179 13.8512 15.083 13.8512 15.3899 13.5791L20.3986 8.58272C20.7219 8.25888 21.2484 8.25888 21.5731 8.58272Z" fill="#E92134"/>
<g clip-path="url(#clip0_1908_23774)">
<path d="M45.28 4.86374e-05C45.96 4.86374e-05 46.6067 0.206715 47.22 0.620049C47.8333 1.02005 48.3267 1.56672 48.7 2.26005C49.0733 2.94005 49.26 3.68672 49.26 4.50005C49.26 5.30005 49.0733 6.04672 48.7 6.74005C48.3267 7.43338 47.8333 7.98672 47.22 8.40005C46.6067 8.80005 45.96 9.00005 45.28 9.00005H41.8V12.7801C41.8 13.14 41.6933 13.4334 41.48 13.66C41.2667 13.8867 40.9867 14 40.64 14C40.3067 14 40.0333 13.8867 39.82 13.66C39.6067 13.42 39.5 13.1267 39.5 12.7801V1.22005C39.5 0.873383 39.6133 0.586715 39.84 0.360048C40.08 0.120048 40.3733 4.86374e-05 40.72 4.86374e-05H45.28ZM45.28 6.72005C45.5333 6.72005 45.78 6.61338 46.02 6.40005C46.2733 6.18672 46.4733 5.91338 46.62 5.58005C46.78 5.23338 46.86 4.87338 46.86 4.50005C46.86 4.12672 46.78 3.77338 46.62 3.44005C46.4733 3.09338 46.2733 2.82005 46.02 2.62005C45.78 2.40672 45.5333 2.30005 45.28 2.30005H41.8V6.72005H45.28Z" fill="#E92134"/>
<path d="M61.73 12.4401C61.7967 12.6134 61.83 12.7734 61.83 12.92C61.83 13.2667 61.7167 13.5534 61.49 13.7801C61.2633 13.9934 61.0033 14.1 60.71 14.1C60.47 14.1 60.25 14.0267 60.05 13.88C59.8633 13.7334 59.7167 13.5334 59.61 13.2801L58.57 10.8601H52.61L51.57 13.3C51.4767 13.5534 51.33 13.7534 51.13 13.9C50.9433 14.0334 50.7367 14.1 50.51 14.1C50.1633 14.1 49.8967 14.0067 49.71 13.82C49.5367 13.6334 49.45 13.38 49.45 13.06C49.45 12.94 49.47 12.8134 49.51 12.68L54.49 0.720049C54.5967 0.453382 54.7567 0.246715 54.97 0.100048C55.1833 -0.0466183 55.4233 -0.106618 55.69 -0.0799513C55.93 -0.0799513 56.15 -0.00661819 56.35 0.140049C56.5633 0.273382 56.7167 0.466716 56.81 0.720049L61.73 12.4401ZM53.59 8.56005H57.59L55.57 3.88005L53.59 8.56005Z" fill="#E92134"/>
<path d="M71.7273 4.86374e-05C72.0873 4.86374e-05 72.3807 0.106716 72.6073 0.320049C72.834 0.533382 72.9473 0.813383 72.9473 1.16005C72.9473 1.50672 72.834 1.78672 72.6073 2.00005C72.3807 2.20005 72.0873 2.30005 71.7273 2.30005H68.5873V12.7801C68.5873 13.1267 68.4607 13.42 68.2073 13.66C67.954 13.8867 67.6407 14 67.2673 14C66.894 14 66.5873 13.8867 66.3473 13.66C66.1073 13.42 65.9873 13.1267 65.9873 12.7801V2.30005H62.8473C62.4873 2.30005 62.194 2.19338 61.9673 1.98005C61.7407 1.76672 61.6273 1.48672 61.6273 1.14005C61.6273 0.806715 61.7407 0.533382 61.9673 0.320049C62.2073 0.106716 62.5007 4.86374e-05 62.8473 4.86374e-05H71.7273Z" fill="#E92134"/>
<path d="M77.5469 12.7801C77.5469 13.1267 77.4202 13.42 77.1669 13.66C76.9135 13.8867 76.6202 14 76.2869 14C75.9269 14 75.6269 13.8867 75.3869 13.66C75.1602 13.42 75.0469 13.1267 75.0469 12.7801V1.22005C75.0469 0.873383 75.1669 0.586715 75.4069 0.360048C75.6469 0.120048 75.9535 4.86374e-05 76.3269 4.86374e-05C76.6602 4.86374e-05 76.9469 0.120048 77.1869 0.360048C77.4269 0.586715 77.5469 0.873383 77.5469 1.22005V12.7801Z" fill="#E92134"/>
<path d="M88.4747 11.7001C88.8214 11.7001 89.108 11.82 89.3347 12.06C89.5747 12.2867 89.6947 12.5534 89.6947 12.8601C89.6947 13.1934 89.5747 13.4667 89.3347 13.68C89.108 13.8934 88.8214 14 88.4747 14H81.7747C81.428 14 81.1347 13.8867 80.8947 13.66C80.668 13.42 80.5547 13.1267 80.5547 12.7801V1.22005C80.5547 0.873383 80.668 0.586715 80.8947 0.360048C81.1347 0.120048 81.428 4.86374e-05 81.7747 4.86374e-05H88.4747C88.8214 4.86374e-05 89.108 0.113382 89.3347 0.340049C89.5747 0.553382 89.6947 0.833382 89.6947 1.18005C89.6947 1.51338 89.5814 1.78672 89.3547 2.00005C89.128 2.20005 88.8347 2.30005 88.4747 2.30005H83.0547V5.70005H87.5747C87.9214 5.70005 88.208 5.81338 88.4347 6.04005C88.6747 6.25338 88.7947 6.53338 88.7947 6.88005C88.7947 7.21338 88.6814 7.48672 88.4547 7.70005C88.228 7.90005 87.9347 8.00005 87.5747 8.00005H83.0547V11.7001H88.4747Z" fill="#E92134"/>
<path d="M102.62 4.86374e-05C102.94 4.86374e-05 103.2 0.106716 103.4 0.320049C103.6 0.533382 103.7 0.800049 103.7 1.12005V12.7801C103.7 13.1267 103.58 13.42 103.34 13.66C103.113 13.8867 102.827 14 102.48 14C102.293 14 102.107 13.9734 101.92 13.92C101.747 13.8534 101.62 13.7667 101.54 13.66L94.2 4.34005V12.88C94.2 13.2 94.0933 13.4667 93.88 13.68C93.68 13.8934 93.4133 14 93.08 14C92.76 14 92.5 13.8934 92.3 13.68C92.1 13.4667 92 13.2 92 12.88V1.22005C92 0.873383 92.1133 0.586715 92.34 0.360048C92.58 0.120048 92.8733 4.86374e-05 93.22 4.86374e-05C93.42 4.86374e-05 93.6133 0.0400489 93.8 0.120049C94 0.200049 94.1467 0.306716 94.24 0.440049L101.52 9.72005V1.12005C101.52 0.800049 101.62 0.533382 101.82 0.320049C102.033 0.106716 102.3 4.86374e-05 102.62 4.86374e-05Z" fill="#E92134"/>
<path d="M115.907 4.86374e-05C116.267 4.86374e-05 116.56 0.106716 116.787 0.320049C117.014 0.533382 117.127 0.813383 117.127 1.16005C117.127 1.50672 117.014 1.78672 116.787 2.00005C116.56 2.20005 116.267 2.30005 115.907 2.30005H112.767V12.7801C112.767 13.1267 112.64 13.42 112.387 13.66C112.134 13.8867 111.82 14 111.447 14C111.074 14 110.767 13.8867 110.527 13.66C110.287 13.42 110.167 13.1267 110.167 12.7801V2.30005H107.027C106.667 2.30005 106.374 2.19338 106.147 1.98005C105.92 1.76672 105.807 1.48672 105.807 1.14005C105.807 0.806715 105.92 0.533382 106.147 0.320049C106.387 0.106716 106.68 4.86374e-05 107.027 4.86374e-05H115.907Z" fill="#E92134"/>
<path d="M134.032 4.86374e-05C134.392 4.86374e-05 134.685 0.106716 134.912 0.320049C135.139 0.533382 135.252 0.813383 135.252 1.16005C135.252 1.50672 135.139 1.78672 134.912 2.00005C134.685 2.20005 134.392 2.30005 134.032 2.30005H130.892V12.7801C130.892 13.1267 130.765 13.42 130.512 13.66C130.259 13.8867 129.945 14 129.572 14C129.199 14 128.892 13.8867 128.652 13.66C128.412 13.42 128.292 13.1267 128.292 12.7801V2.30005H125.152C124.792 2.30005 124.499 2.19338 124.272 1.98005C124.045 1.76672 123.932 1.48672 123.932 1.14005C123.932 0.806715 124.045 0.533382 124.272 0.320049C124.512 0.106716 124.805 4.86374e-05 125.152 4.86374e-05H134.032Z" fill="#E92134"/>
<path d="M145.272 11.7001C145.618 11.7001 145.905 11.82 146.132 12.06C146.372 12.2867 146.492 12.5534 146.492 12.8601C146.492 13.1934 146.372 13.4667 146.132 13.68C145.905 13.8934 145.618 14 145.272 14H138.572C138.225 14 137.932 13.8867 137.692 13.66C137.465 13.42 137.352 13.1267 137.352 12.7801V1.22005C137.352 0.873383 137.465 0.586715 137.692 0.360048C137.932 0.120048 138.225 4.86374e-05 138.572 4.86374e-05H145.272C145.618 4.86374e-05 145.905 0.113382 146.132 0.340049C146.372 0.553382 146.492 0.833382 146.492 1.18005C146.492 1.51338 146.378 1.78672 146.152 2.00005C145.925 2.20005 145.632 2.30005 145.272 2.30005H139.852V5.70005H144.372C144.718 5.70005 145.005 5.81338 145.232 6.04005C145.472 6.25338 145.592 6.53338 145.592 6.88005C145.592 7.21338 145.478 7.48672 145.252 7.70005C145.025 7.90005 144.732 8.00005 144.372 8.00005H139.852V11.7001H145.272Z" fill="#E92134"/>
<path d="M158.597 0.68005C159.01 0.893383 159.217 1.23338 159.217 1.70005C159.217 1.98005 159.117 2.25338 158.917 2.52005C158.704 2.80005 158.43 2.94005 158.097 2.94005C157.87 2.94005 157.644 2.88005 157.417 2.76005C156.764 2.45338 156.057 2.30005 155.297 2.30005C154.364 2.30005 153.55 2.50005 152.857 2.90005C152.164 3.28672 151.63 3.84005 151.257 4.56005C150.884 5.26672 150.697 6.08005 150.697 7.00005C150.697 8.57338 151.117 9.76672 151.957 10.58C152.81 11.3934 153.924 11.8 155.297 11.8C156.11 11.8 156.817 11.6467 157.417 11.34C157.657 11.2334 157.87 11.18 158.057 11.18C158.404 11.18 158.697 11.3267 158.937 11.6201C159.137 11.8734 159.237 12.1467 159.237 12.4401C159.237 12.6534 159.184 12.8467 159.077 13.0201C158.97 13.1934 158.817 13.3267 158.617 13.42C157.577 13.9401 156.47 14.2001 155.297 14.2001C153.99 14.2001 152.79 13.9267 151.697 13.38C150.604 12.82 149.73 12 149.077 10.92C148.424 9.84005 148.097 8.53338 148.097 7.00005C148.097 5.64005 148.404 4.42005 149.017 3.34005C149.644 2.26005 150.504 1.42005 151.597 0.820049C152.69 0.206716 153.924 -0.0999508 155.297 -0.0999508C156.484 -0.0999508 157.584 0.160049 158.597 0.68005Z" fill="#E92134"/>
<path d="M171.476 4.86374e-05C171.849 4.86374e-05 172.149 0.113382 172.376 0.340049C172.603 0.566716 172.716 0.86005 172.716 1.22005V12.7801C172.716 13.1267 172.596 13.42 172.356 13.66C172.116 13.8867 171.809 14 171.436 14C171.103 14 170.816 13.8867 170.576 13.66C170.336 13.42 170.216 13.1267 170.216 12.7801V8.12005H163.836V12.7801C163.836 13.1267 163.709 13.42 163.456 13.66C163.203 13.8867 162.909 14 162.576 14C162.216 14 161.916 13.8867 161.676 13.66C161.449 13.42 161.336 13.1267 161.336 12.7801V1.22005C161.336 0.873383 161.456 0.586715 161.696 0.360048C161.936 0.120048 162.243 4.86374e-05 162.616 4.86374e-05C162.949 4.86374e-05 163.236 0.120048 163.476 0.360048C163.716 0.586715 163.836 0.873383 163.836 1.22005V5.82005H170.216V1.22005C170.216 0.873383 170.343 0.586715 170.596 0.360048C170.849 0.120048 171.143 4.86374e-05 171.476 4.86374e-05Z" fill="#E92134"/>
<path d="M186.331 4.86374e-05C186.651 4.86374e-05 186.911 0.106716 187.111 0.320049C187.311 0.533382 187.411 0.800049 187.411 1.12005V12.7801C187.411 13.1267 187.291 13.42 187.051 13.66C186.824 13.8867 186.538 14 186.191 14C186.004 14 185.818 13.9734 185.631 13.92C185.458 13.8534 185.331 13.7667 185.251 13.66L177.911 4.34005V12.88C177.911 13.2 177.804 13.4667 177.591 13.68C177.391 13.8934 177.124 14 176.791 14C176.471 14 176.211 13.8934 176.011 13.68C175.811 13.4667 175.711 13.2 175.711 12.88V1.22005C175.711 0.873383 175.824 0.586715 176.051 0.360048C176.291 0.120048 176.584 4.86374e-05 176.931 4.86374e-05C177.131 4.86374e-05 177.324 0.0400489 177.511 0.120049C177.711 0.200049 177.858 0.306716 177.951 0.440049L185.231 9.72005V1.12005C185.231 0.800049 185.331 0.533382 185.531 0.320049C185.744 0.106716 186.011 4.86374e-05 186.331 4.86374e-05Z" fill="#E92134"/>
<path d="M203.298 7.00005C203.298 8.32005 203.005 9.53338 202.418 10.64C201.831 11.7334 201.018 12.6 199.978 13.24C198.951 13.88 197.791 14.2001 196.498 14.2001C195.205 14.2001 194.038 13.88 192.998 13.24C191.971 12.6 191.165 11.7334 190.578 10.64C190.005 9.53338 189.718 8.32005 189.718 7.00005C189.718 5.68005 190.005 4.47338 190.578 3.38005C191.165 2.27338 191.971 1.40005 192.998 0.760048C194.038 0.120048 195.205 -0.199951 196.498 -0.199951C197.791 -0.199951 198.951 0.120048 199.978 0.760048C201.018 1.40005 201.831 2.27338 202.418 3.38005C203.005 4.47338 203.298 5.68005 203.298 7.00005ZM200.698 7.00005C200.698 6.10672 200.518 5.30005 200.158 4.58005C199.798 3.84672 199.298 3.26672 198.658 2.84005C198.018 2.41338 197.298 2.20005 196.498 2.20005C195.685 2.20005 194.958 2.41338 194.318 2.84005C193.691 3.25338 193.198 3.82672 192.838 4.56005C192.491 5.29338 192.318 6.10672 192.318 7.00005C192.318 7.89338 192.491 8.70672 192.838 9.44005C193.198 10.1734 193.691 10.7534 194.318 11.18C194.958 11.5934 195.685 11.8 196.498 11.8C197.298 11.8 198.018 11.5867 198.658 11.16C199.298 10.7334 199.798 10.1601 200.158 9.44005C200.518 8.70672 200.698 7.89338 200.698 7.00005Z" fill="#E92134"/>
<path d="M213.314 11.66C213.66 11.66 213.947 11.7734 214.174 12C214.414 12.2134 214.534 12.4934 214.534 12.84C214.534 13.1734 214.414 13.4534 214.174 13.68C213.947 13.8934 213.66 14 213.314 14H206.814C206.467 14 206.174 13.8867 205.934 13.66C205.707 13.42 205.594 13.1267 205.594 12.7801V1.22005C205.594 0.873383 205.714 0.586715 205.954 0.360048C206.194 0.120048 206.5 4.86374e-05 206.874 4.86374e-05C207.207 4.86374e-05 207.494 0.120048 207.734 0.360048C207.974 0.586715 208.094 0.873383 208.094 1.22005V11.66H213.314Z" fill="#E92134"/>
<path d="M229.509 7.00005C229.509 8.32005 229.216 9.53338 228.629 10.64C228.042 11.7334 227.229 12.6 226.189 13.24C225.162 13.88 224.002 14.2001 222.709 14.2001C221.416 14.2001 220.249 13.88 219.209 13.24C218.182 12.6 217.376 11.7334 216.789 10.64C216.216 9.53338 215.929 8.32005 215.929 7.00005C215.929 5.68005 216.216 4.47338 216.789 3.38005C217.376 2.27338 218.182 1.40005 219.209 0.760048C220.249 0.120048 221.416 -0.199951 222.709 -0.199951C224.002 -0.199951 225.162 0.120048 226.189 0.760048C227.229 1.40005 228.042 2.27338 228.629 3.38005C229.216 4.47338 229.509 5.68005 229.509 7.00005ZM226.909 7.00005C226.909 6.10672 226.729 5.30005 226.369 4.58005C226.009 3.84672 225.509 3.26672 224.869 2.84005C224.229 2.41338 223.509 2.20005 222.709 2.20005C221.896 2.20005 221.169 2.41338 220.529 2.84005C219.902 3.25338 219.409 3.82672 219.049 4.56005C218.702 5.29338 218.529 6.10672 218.529 7.00005C218.529 7.89338 218.702 8.70672 219.049 9.44005C219.409 10.1734 219.902 10.7534 220.529 11.18C221.169 11.5934 221.896 11.8 222.709 11.8C223.509 11.8 224.229 11.5867 224.869 11.16C225.509 10.7334 226.009 10.1601 226.369 9.44005C226.729 8.70672 226.909 7.89338 226.909 7.00005Z" fill="#E92134"/>
<path d="M242.125 6.44005C242.471 6.44005 242.758 6.56005 242.985 6.80005C243.211 7.02672 243.325 7.31338 243.325 7.66005V11.9C243.325 12.3667 243.118 12.7267 242.705 12.98C241.398 13.7934 239.965 14.2001 238.405 14.2001C237.085 14.2001 235.865 13.88 234.745 13.24C233.625 12.5867 232.738 11.7134 232.085 10.62C231.431 9.51338 231.105 8.30672 231.105 7.00005C231.105 5.69338 231.431 4.49338 232.085 3.40005C232.738 2.29338 233.625 1.42005 234.745 0.780049C235.865 0.126716 237.085 -0.199951 238.405 -0.199951C239.725 -0.199951 240.871 0.0667154 241.845 0.600049C242.045 0.706715 242.191 0.846715 242.285 1.02005C242.391 1.19338 242.445 1.38005 242.445 1.58005C242.445 1.91338 242.331 2.20672 242.105 2.46005C241.891 2.70005 241.625 2.82005 241.305 2.82005C241.105 2.82005 240.885 2.76672 240.645 2.66005C239.925 2.35338 239.178 2.20005 238.405 2.20005C237.551 2.20005 236.765 2.42005 236.045 2.86005C235.325 3.28672 234.751 3.86672 234.325 4.60005C233.911 5.33338 233.705 6.13338 233.705 7.00005C233.705 7.86672 233.911 8.66672 234.325 9.40005C234.751 10.1334 235.325 10.72 236.045 11.16C236.765 11.5867 237.551 11.8 238.405 11.8C238.778 11.8 239.178 11.7667 239.605 11.7001C240.031 11.6334 240.405 11.5467 240.725 11.4401V8.84005H238.845C238.498 8.84005 238.205 8.72672 237.965 8.50005C237.738 8.27338 237.625 7.98672 237.625 7.64005C237.625 7.29338 237.738 7.00672 237.965 6.78005C238.205 6.55338 238.498 6.44005 238.845 6.44005H242.125Z" fill="#E92134"/>
<path d="M248.23 12.7801C248.23 13.1267 248.104 13.42 247.85 13.66C247.597 13.8867 247.304 14 246.97 14C246.61 14 246.31 13.8867 246.07 13.66C245.844 13.42 245.73 13.1267 245.73 12.7801V1.22005C245.73 0.873383 245.85 0.586715 246.09 0.360048C246.33 0.120048 246.637 4.86374e-05 247.01 4.86374e-05C247.344 4.86374e-05 247.63 0.120048 247.87 0.360048C248.11 0.586715 248.23 0.873383 248.23 1.22005V12.7801Z" fill="#E92134"/>
<path d="M259.158 11.7001C259.505 11.7001 259.792 11.82 260.018 12.06C260.258 12.2867 260.378 12.5534 260.378 12.8601C260.378 13.1934 260.258 13.4667 260.018 13.68C259.792 13.8934 259.505 14 259.158 14H252.458C252.112 14 251.818 13.8867 251.578 13.66C251.352 13.42 251.238 13.1267 251.238 12.7801V1.22005C251.238 0.873383 251.352 0.586715 251.578 0.360048C251.818 0.120048 252.112 4.86374e-05 252.458 4.86374e-05H259.158C259.505 4.86374e-05 259.792 0.113382 260.018 0.340049C260.258 0.553382 260.378 0.833382 260.378 1.18005C260.378 1.51338 260.265 1.78672 260.038 2.00005C259.812 2.20005 259.518 2.30005 259.158 2.30005H253.738V5.70005H258.258C258.605 5.70005 258.892 5.81338 259.118 6.04005C259.358 6.25338 259.478 6.53338 259.478 6.88005C259.478 7.21338 259.365 7.48672 259.138 7.70005C258.912 7.90005 258.618 8.00005 258.258 8.00005H253.738V11.7001H259.158Z" fill="#E92134"/>
<path d="M267.184 14.2001C266.224 14.2001 265.37 14.08 264.624 13.84C263.877 13.6 263.177 13.1934 262.524 12.62C262.164 12.3 261.984 11.9467 261.984 11.56C261.984 11.2534 262.097 10.9867 262.324 10.76C262.55 10.5201 262.824 10.4 263.144 10.4C263.397 10.4 263.624 10.48 263.824 10.64C264.357 11.08 264.877 11.4001 265.384 11.6C265.89 11.8 266.49 11.9 267.184 11.9C267.93 11.9 268.57 11.7334 269.104 11.4C269.65 11.0667 269.924 10.6534 269.924 10.16C269.924 9.56005 269.657 9.09338 269.124 8.76005C268.59 8.41338 267.744 8.15338 266.584 7.98005C263.664 7.55338 262.204 6.19338 262.204 3.90005C262.204 3.06005 262.424 2.33338 262.864 1.72005C263.304 1.09338 263.904 0.620049 264.664 0.300049C265.424 -0.0332842 266.27 -0.199951 267.204 -0.199951C268.044 -0.199951 268.83 -0.0732843 269.564 0.180049C270.31 0.433382 270.93 0.766715 271.424 1.18005C271.81 1.48672 272.004 1.84005 272.004 2.24005C272.004 2.54672 271.89 2.82005 271.664 3.06005C271.437 3.28672 271.17 3.40005 270.864 3.40005C270.664 3.40005 270.484 3.34005 270.324 3.22005C269.977 2.94005 269.49 2.68672 268.864 2.46005C268.25 2.22005 267.697 2.10005 267.204 2.10005C266.364 2.10005 265.71 2.26005 265.244 2.58005C264.79 2.88672 264.564 3.29338 264.564 3.80005C264.564 4.37338 264.797 4.80672 265.264 5.10005C265.744 5.39338 266.49 5.63338 267.504 5.82005C268.65 6.02005 269.564 6.28005 270.244 6.60005C270.937 6.90672 271.457 7.33338 271.804 7.88005C272.15 8.41338 272.324 9.12672 272.324 10.0201C272.324 10.8601 272.084 11.6 271.604 12.24C271.137 12.8667 270.51 13.3534 269.724 13.7001C268.937 14.0334 268.09 14.2001 267.184 14.2001Z" fill="#E92134"/>
<path d="M290.443 -0.0399513C290.776 -0.0399513 291.063 0.0733827 291.303 0.300049C291.556 0.526716 291.683 0.800049 291.683 1.12005C291.683 1.29338 291.643 1.47338 291.563 1.66005L286.623 13.22C286.503 13.4734 286.336 13.6667 286.123 13.8C285.909 13.9334 285.683 14 285.443 14C285.216 13.9867 285.003 13.92 284.803 13.8C284.616 13.6667 284.469 13.48 284.363 13.24L279.423 1.64005C279.356 1.50672 279.323 1.34005 279.323 1.14005C279.323 0.780049 279.456 0.493382 279.723 0.280048C279.989 0.0533822 280.263 -0.0599508 280.543 -0.0599508C280.769 -0.0599508 280.983 0.00671577 281.183 0.140049C281.383 0.273382 281.536 0.466716 281.643 0.720049L285.663 10.18L289.343 0.720049C289.449 0.480049 289.603 0.293383 289.803 0.160049C290.003 0.0267162 290.216 -0.0399513 290.443 -0.0399513Z" fill="#E92134"/>
<path d="M296.277 12.7801C296.277 13.1267 296.151 13.42 295.897 13.66C295.644 13.8867 295.351 14 295.017 14C294.657 14 294.357 13.8867 294.117 13.66C293.891 13.42 293.777 13.1267 293.777 12.7801V1.22005C293.777 0.873383 293.897 0.586715 294.137 0.360048C294.377 0.120048 294.684 4.86374e-05 295.057 4.86374e-05C295.391 4.86374e-05 295.677 0.120048 295.917 0.360048C296.157 0.586715 296.277 0.873383 296.277 1.22005V12.7801Z" fill="#E92134"/>
<path d="M307.205 11.7001C307.552 11.7001 307.839 11.82 308.065 12.06C308.305 12.2867 308.425 12.5534 308.425 12.8601C308.425 13.1934 308.305 13.4667 308.065 13.68C307.839 13.8934 307.552 14 307.205 14H300.505C300.158 14 299.865 13.8867 299.625 13.66C299.398 13.42 299.285 13.1267 299.285 12.7801V1.22005C299.285 0.873383 299.398 0.586715 299.625 0.360048C299.865 0.120048 300.158 4.86374e-05 300.505 4.86374e-05H307.205C307.552 4.86374e-05 307.839 0.113382 308.065 0.340049C308.305 0.553382 308.425 0.833382 308.425 1.18005C308.425 1.51338 308.312 1.78672 308.085 2.00005C307.858 2.20005 307.565 2.30005 307.205 2.30005H301.785V5.70005H306.305C306.652 5.70005 306.939 5.81338 307.165 6.04005C307.405 6.25338 307.525 6.53338 307.525 6.88005C307.525 7.21338 307.412 7.48672 307.185 7.70005C306.958 7.90005 306.665 8.00005 306.305 8.00005H301.785V11.7001H307.205Z" fill="#E92134"/>
<path d="M319.93 4.86374e-05C320.29 4.86374e-05 320.584 0.106716 320.81 0.320049C321.037 0.533382 321.15 0.813383 321.15 1.16005C321.15 1.50672 321.037 1.78672 320.81 2.00005C320.584 2.20005 320.29 2.30005 319.93 2.30005H316.79V12.7801C316.79 13.1267 316.664 13.42 316.41 13.66C316.157 13.8867 315.844 14 315.47 14C315.097 14 314.79 13.8867 314.55 13.66C314.31 13.42 314.19 13.1267 314.19 12.7801V2.30005H311.05C310.69 2.30005 310.397 2.19338 310.17 1.98005C309.944 1.76672 309.83 1.48672 309.83 1.14005C309.83 0.806715 309.944 0.533382 310.17 0.320049C310.41 0.106716 310.704 4.86374e-05 311.05 4.86374e-05H319.93Z" fill="#E92134"/>
<path d="M333.87 4.86374e-05C334.19 4.86374e-05 334.45 0.106716 334.65 0.320049C334.85 0.533382 334.95 0.800049 334.95 1.12005V12.7801C334.95 13.1267 334.83 13.42 334.59 13.66C334.363 13.8867 334.077 14 333.73 14C333.543 14 333.357 13.9734 333.17 13.92C332.997 13.8534 332.87 13.7667 332.79 13.66L325.45 4.34005V12.88C325.45 13.2 325.343 13.4667 325.13 13.68C324.93 13.8934 324.663 14 324.33 14C324.01 14 323.75 13.8934 323.55 13.68C323.35 13.4667 323.25 13.2 323.25 12.88V1.22005C323.25 0.873383 323.363 0.586715 323.59 0.360048C323.83 0.120048 324.123 4.86374e-05 324.47 4.86374e-05C324.67 4.86374e-05 324.863 0.0400489 325.05 0.120049C325.25 0.200049 325.397 0.306716 325.49 0.440049L332.77 9.72005V1.12005C332.77 0.800049 332.87 0.533382 333.07 0.320049C333.283 0.106716 333.55 4.86374e-05 333.87 4.86374e-05Z" fill="#E92134"/>
<path d="M348.937 12.4401C349.004 12.6134 349.037 12.7734 349.037 12.92C349.037 13.2667 348.924 13.5534 348.697 13.7801C348.47 13.9934 348.21 14.1 347.917 14.1C347.677 14.1 347.457 14.0267 347.257 13.88C347.07 13.7334 346.924 13.5334 346.817 13.2801L345.777 10.8601H339.817L338.777 13.3C338.684 13.5534 338.537 13.7534 338.337 13.9C338.15 14.0334 337.944 14.1 337.717 14.1C337.37 14.1 337.104 14.0067 336.917 13.82C336.744 13.6334 336.657 13.38 336.657 13.06C336.657 12.94 336.677 12.8134 336.717 12.68L341.697 0.720049C341.804 0.453382 341.964 0.246715 342.177 0.100048C342.39 -0.0466183 342.63 -0.106618 342.897 -0.0799513C343.137 -0.0799513 343.357 -0.00661819 343.557 0.140049C343.77 0.273382 343.924 0.466716 344.017 0.720049L348.937 12.4401ZM340.797 8.56005H344.797L342.777 3.88005L340.797 8.56005Z" fill="#E92134"/>
<path d="M362.87 -0.0199509C363.204 -0.0199509 363.49 0.100049 363.73 0.340049C363.984 0.566716 364.11 0.853382 364.11 1.20005V12.7801C364.11 13.1267 363.997 13.42 363.77 13.66C363.544 13.8867 363.244 14 362.87 14C362.497 14 362.19 13.8867 361.95 13.66C361.724 13.4334 361.61 13.14 361.61 12.7801V4.72005L358.31 9.76005C358.177 9.92005 358.024 10.0534 357.85 10.16C357.677 10.2534 357.497 10.2934 357.31 10.2801C357.137 10.2934 356.964 10.2534 356.79 10.16C356.617 10.0534 356.464 9.92005 356.33 9.76005L353.03 4.54005V12.7801C353.03 13.14 352.924 13.4334 352.71 13.66C352.497 13.8867 352.217 14 351.87 14C351.537 14 351.264 13.8867 351.05 13.66C350.837 13.42 350.73 13.1267 350.73 12.7801V1.20005C350.73 0.866715 350.85 0.580049 351.09 0.340049C351.344 0.100049 351.644 -0.0199509 351.99 -0.0199509C352.19 -0.0199509 352.39 0.0333821 352.59 0.140049C352.79 0.233382 352.944 0.360049 353.05 0.520049L357.41 7.22005L361.89 0.520049C361.997 0.360049 362.137 0.233382 362.31 0.140049C362.497 0.0333821 362.684 -0.0199509 362.87 -0.0199509Z" fill="#E92134"/>
<path d="M42.2381 29.8031C42.1249 29.8031 42.0254 29.7691 41.9367 29.6997C41.848 29.6303 41.7866 29.5364 41.7485 29.418L39.8565 23.144C39.7938 22.9372 39.7979 22.7726 39.8702 22.6515C39.9425 22.529 40.0598 22.4678 40.2235 22.4678C40.3299 22.4678 40.4267 22.4977 40.5154 22.5576C40.6027 22.6174 40.6654 22.71 40.7036 22.8352L42.3514 28.5649H42.144L43.669 22.8909C43.6936 22.7971 43.7509 22.7195 43.8382 22.6555C43.9254 22.593 44.0264 22.5617 44.1396 22.5617C44.2405 22.5617 44.336 22.5889 44.4274 22.6419C44.5188 22.695 44.5761 22.7753 44.602 22.8814L46.1365 28.5635H45.9483L47.6056 22.7875C47.6684 22.5753 47.8279 22.4678 48.0857 22.4678C48.2617 22.4678 48.3749 22.5358 48.424 22.6692C48.4745 22.8039 48.4745 22.9617 48.424 23.144L46.5321 29.4085C46.4885 29.5269 46.4244 29.6235 46.3384 29.6956C46.2539 29.7677 46.1543 29.8031 46.0424 29.8031C45.9238 29.8031 45.8215 29.765 45.7369 29.6902C45.6523 29.6153 45.5909 29.5242 45.5527 29.418L44.0373 23.5754H44.2637L42.7292 29.4085C42.6855 29.5269 42.6214 29.6235 42.5369 29.6956C42.4496 29.7664 42.3514 29.8031 42.2381 29.8031Z" fill="#A6A6A6"/>
<path d="M50.8337 27.933C50.6959 27.933 50.5813 27.888 50.4899 27.7969C50.3985 27.7057 50.3535 27.5914 50.3535 27.454V22.9448C50.3535 22.8005 50.3985 22.6849 50.4899 22.5978C50.5813 22.5107 50.6959 22.4658 50.8337 22.4658C50.9782 22.4658 51.0942 22.5094 51.1815 22.5978C51.2688 22.6849 51.3138 22.8019 51.3138 22.9448V27.454C51.3138 27.5914 51.2701 27.7057 51.1815 27.7969C51.0942 27.8867 50.9782 27.933 50.8337 27.933ZM50.8337 29.8107C50.6959 29.8107 50.5813 29.7658 50.4899 29.6746C50.3985 29.5834 50.3535 29.4691 50.3535 29.3317V25.1422C50.3535 24.998 50.3985 24.8824 50.4899 24.7953C50.5813 24.7082 50.6959 24.6633 50.8337 24.6633C50.9782 24.6633 51.0942 24.7068 51.1815 24.7953C51.2688 24.8837 51.3138 24.9994 51.3138 25.1422V29.3317C51.3138 29.4691 51.2701 29.5834 51.1815 29.6746C51.0942 29.7658 50.9782 29.8107 50.8337 29.8107ZM54.7048 29.8107C54.567 29.8107 54.4524 29.7658 54.361 29.6746C54.2697 29.5834 54.2246 29.4691 54.2246 29.3317V27.0213C54.2246 26.6648 54.1592 26.3736 54.0269 26.1478C53.8945 25.9219 53.7172 25.7545 53.4949 25.6457C53.2725 25.5368 53.0161 25.481 52.7269 25.481C52.4637 25.481 52.225 25.5341 52.0108 25.6402C51.7967 25.7464 51.6275 25.8892 51.502 26.0675C51.3765 26.2457 51.3138 26.4512 51.3138 26.6825H50.7204C50.7204 26.2879 50.8159 25.9355 51.0082 25.6253C51.1992 25.315 51.4611 25.0701 51.7939 24.8878C52.1268 24.7068 52.5005 24.6157 52.9138 24.6157C53.3476 24.6157 53.735 24.7082 54.0773 24.8932C54.4197 25.0783 54.6898 25.3491 54.8876 25.7056C55.0853 26.062 55.1836 26.5015 55.1836 27.0199V29.3303C55.1836 29.4678 55.1385 29.5821 55.0472 29.6732C54.9571 29.7658 54.8425 29.8107 54.7048 29.8107Z" fill="#A6A6A6"/>
<path d="M60.1479 29.8385C59.6268 29.8385 59.1644 29.7269 58.7593 29.5051C58.3542 29.2833 58.0377 28.9758 57.8086 28.5839C57.5794 28.1921 57.4648 27.743 57.4648 27.2355C57.4648 26.7225 57.5726 26.2694 57.7895 25.8776C58.0064 25.4857 58.3051 25.1796 58.6884 24.9564C59.0717 24.7346 59.5109 24.623 60.006 24.623C60.4957 24.623 60.9158 24.7305 61.2678 24.9469C61.6197 25.1632 61.887 25.4599 62.0725 25.8395C62.2581 26.2177 62.3508 26.6559 62.3508 27.1498C62.3508 27.2682 62.3099 27.3675 62.228 27.4451C62.1462 27.524 62.0425 27.5621 61.917 27.5621H58.1223V26.811H61.8884L61.5024 27.0736C61.4956 26.7606 61.4328 26.4803 61.3141 26.2327C61.1955 25.9851 61.025 25.7891 60.8054 25.6463C60.5858 25.502 60.3184 25.4299 60.0047 25.4299C59.6473 25.4299 59.3404 25.5088 59.0867 25.6653C58.833 25.8218 58.6393 26.0368 58.507 26.3089C58.3747 26.581 58.3092 26.8899 58.3092 27.2342C58.3092 27.5784 58.3869 27.8859 58.5452 28.1553C58.702 28.4247 58.9189 28.637 59.1944 28.7935C59.4713 28.9499 59.7878 29.0289 60.1452 29.0289C60.3402 29.0289 60.5394 28.9935 60.7426 28.9214C60.9459 28.8493 61.1109 28.7663 61.2364 28.6724C61.3305 28.603 61.4328 28.5676 61.5419 28.5649C61.6524 28.5622 61.7479 28.5948 61.8297 28.6628C61.9361 28.7567 61.9934 28.8601 61.9989 28.9731C62.0057 29.086 61.9552 29.1826 61.8488 29.2643C61.6361 29.433 61.3701 29.5718 61.0536 29.6779C60.7385 29.7854 60.4357 29.8385 60.1479 29.8385Z" fill="#A6A6A6"/>
<path d="M64.9958 29.8102C64.858 29.8102 64.7434 29.7653 64.652 29.6742C64.5606 29.583 64.5156 29.4687 64.5156 29.3313V25.1418C64.5156 24.9976 64.5606 24.8819 64.652 24.7948C64.7434 24.7078 64.858 24.6629 64.9958 24.6629C65.1404 24.6629 65.2563 24.7064 65.3436 24.7948C65.4309 24.8833 65.4759 24.9989 65.4759 25.1418V29.3313C65.4759 29.4687 65.4323 29.583 65.3436 29.6742C65.2563 29.7653 65.1404 29.8102 64.9958 29.8102ZM68.8655 29.8102C68.7278 29.8102 68.6132 29.7653 68.5218 29.6742C68.4304 29.583 68.3854 29.4687 68.3854 29.3313V27.0209C68.3854 26.6644 68.3199 26.3732 68.1876 26.1473C68.0553 25.9215 67.878 25.7541 67.6556 25.6453C67.4333 25.5364 67.1769 25.4806 66.8877 25.4806C66.6244 25.4806 66.3857 25.5337 66.1716 25.6398C65.9588 25.7459 65.7883 25.8888 65.6628 26.0671C65.5373 26.2453 65.4745 26.4508 65.4745 26.6821H64.8812C64.8812 26.2875 64.9767 25.9351 65.169 25.6248C65.36 25.3146 65.6219 25.0697 65.9547 24.8874C66.2875 24.7064 66.6613 24.6152 67.0746 24.6152C67.5083 24.6152 67.8957 24.7078 68.2381 24.8928C68.5804 25.0779 68.8505 25.3486 69.0483 25.7051C69.2461 26.0616 69.3443 26.5011 69.3443 27.0195V29.3299C69.3443 29.4673 69.2993 29.5816 69.2079 29.6728C69.1179 29.7653 69.0033 29.8102 68.8655 29.8102Z" fill="#A6A6A6"/>
<path d="M74.3002 29.8385C73.7792 29.8385 73.3168 29.7269 72.9117 29.5051C72.5065 29.2833 72.1901 28.9758 71.9609 28.5839C71.7318 28.1921 71.6172 27.743 71.6172 27.2355C71.6172 26.7225 71.7249 26.2694 71.9418 25.8776C72.1587 25.4857 72.4574 25.1796 72.8407 24.9564C73.224 24.7346 73.6632 24.623 74.1584 24.623C74.6481 24.623 75.0682 24.7305 75.4201 24.9469C75.772 25.1632 76.0394 25.4599 76.2249 25.8395C76.4104 26.2177 76.5032 26.6559 76.5032 27.1498C76.5032 27.2682 76.4622 27.3675 76.3804 27.4451C76.2986 27.524 76.1949 27.5621 76.0694 27.5621H72.2747V26.811H76.0407L75.6547 27.0736C75.6479 26.7606 75.5852 26.4803 75.4665 26.2327C75.3478 25.9851 75.1773 25.7891 74.9577 25.6463C74.7381 25.502 74.4707 25.4299 74.157 25.4299C73.7996 25.4299 73.4927 25.5088 73.239 25.6653C72.9853 25.8218 72.7916 26.0368 72.6593 26.3089C72.527 26.581 72.4615 26.8899 72.4615 27.2342C72.4615 27.5784 72.5393 27.8859 72.6975 28.1553C72.8544 28.4247 73.0712 28.637 73.3468 28.7935C73.6237 28.9499 73.9401 29.0289 74.2975 29.0289C74.4926 29.0289 74.6917 28.9935 74.895 28.9214C75.0982 28.8493 75.2633 28.7663 75.3887 28.6724C75.4829 28.603 75.5852 28.5676 75.6943 28.5649C75.8048 28.5622 75.9003 28.5948 75.9821 28.6628C76.0885 28.7567 76.1458 28.8601 76.1512 28.9731C76.1581 29.086 76.1076 29.1826 76.0012 29.2643C75.787 29.433 75.5224 29.5718 75.206 29.6779C74.8922 29.7854 74.5894 29.8385 74.3002 29.8385Z" fill="#A6A6A6"/>
<path d="M80.2229 29.7932C80.0278 29.7932 79.8778 29.6897 79.7714 29.4829L77.7758 25.2839C77.7253 25.1778 77.7212 25.073 77.7622 24.9696C77.8031 24.8662 77.8835 24.7859 78.0022 24.7301C78.1086 24.6744 78.2177 24.6648 78.3269 24.7016C78.4373 24.7397 78.5205 24.8118 78.5765 24.9179L80.4411 28.9291H79.9896L81.8352 24.9179C81.8911 24.8118 81.9784 24.7397 82.0943 24.7016C82.2103 24.6635 82.3276 24.673 82.4476 24.7301C82.5608 24.7805 82.6358 24.858 82.674 24.9655C82.7122 25.0717 82.7054 25.1778 82.6549 25.2853L80.6594 29.4843C80.5625 29.6897 80.4179 29.7932 80.2229 29.7932Z" fill="#A6A6A6"/>
<path d="M86.8159 29.8385C86.2948 29.8385 85.8324 29.7269 85.4273 29.5051C85.0222 29.2833 84.7057 28.9758 84.4766 28.5839C84.2474 28.1921 84.1328 27.743 84.1328 27.2355C84.1328 26.7225 84.2406 26.2694 84.4575 25.8776C84.6743 25.4857 84.9731 25.1796 85.3564 24.9564C85.7396 24.7346 86.1789 24.623 86.674 24.623C87.1637 24.623 87.5838 24.7305 87.9357 24.9469C88.2877 25.1632 88.555 25.4599 88.7405 25.8395C88.926 26.2177 89.0188 26.6559 89.0188 27.1498C89.0188 27.2682 88.9779 27.3675 88.896 27.4451C88.8142 27.524 88.7105 27.5621 88.585 27.5621H84.7903V26.811H88.5564L88.1704 27.0736C88.1635 26.7606 88.1008 26.4803 87.9821 26.2327C87.8634 25.9851 87.6929 25.7891 87.4733 25.6463C87.2537 25.502 86.9864 25.4299 86.6726 25.4299C86.3153 25.4299 86.0084 25.5088 85.7546 25.6653C85.5009 25.8218 85.3072 26.0368 85.1749 26.3089C85.0426 26.581 84.9771 26.8899 84.9771 27.2342C84.9771 27.5784 85.0549 27.8859 85.2131 28.1553C85.37 28.4247 85.5869 28.637 85.8624 28.7935C86.1393 28.9499 86.4558 29.0289 86.8131 29.0289C87.0082 29.0289 87.2073 28.9935 87.4106 28.9214C87.6138 28.8493 87.7789 28.7663 87.9044 28.6724C87.9985 28.603 88.1008 28.5676 88.2099 28.5649C88.3204 28.5622 88.4159 28.5948 88.4977 28.6628C88.6041 28.7567 88.6614 28.8601 88.6669 28.9731C88.6737 29.086 88.6232 29.1826 88.5168 29.2643C88.3027 29.433 88.038 29.5718 87.7216 29.6779C87.4065 29.7854 87.1037 29.8385 86.8159 29.8385Z" fill="#A6A6A6"/>
<path d="M91.6542 29.802C91.5041 29.802 91.3868 29.7626 91.3064 29.685C91.2245 29.6075 91.1836 29.4891 91.1836 29.3326V25.1336C91.1836 24.9839 91.2245 24.8669 91.3064 24.7866C91.3882 24.705 91.5041 24.6642 91.6542 24.6642C91.8111 24.6642 91.9284 24.7036 92.0075 24.7812C92.0852 24.8601 92.1248 24.9771 92.1248 25.1336V29.3326C92.1248 29.4823 92.0852 29.5993 92.0075 29.6796C91.9284 29.7612 91.8111 29.802 91.6542 29.802ZM91.6446 26.5895C91.6446 26.214 91.7374 25.8779 91.9229 25.5799C92.1084 25.2819 92.358 25.0465 92.6718 24.871C92.9855 24.6955 93.3306 24.6084 93.7071 24.6084C94.0835 24.6084 94.3645 24.6696 94.55 24.7921C94.7355 24.9145 94.8051 25.0601 94.7614 25.2289C94.7424 25.3159 94.7069 25.384 94.6537 25.4302C94.6005 25.4765 94.5391 25.5064 94.4696 25.52C94.4 25.5323 94.325 25.5296 94.2431 25.5105C93.8407 25.4289 93.4806 25.4234 93.1601 25.4915C92.8395 25.5609 92.5872 25.6888 92.4017 25.8765C92.2162 26.0643 92.1234 26.3024 92.1234 26.5909H91.6446V26.5895Z" fill="#A6A6A6"/>
<path d="M95.1083 31.4269C95.0333 31.4269 94.9746 31.4024 94.9337 31.3521C94.8928 31.3017 94.8723 31.2459 94.8723 31.1833C94.8723 31.0582 94.9078 30.9493 94.9801 30.8595C95.0524 30.7683 95.1247 30.6704 95.197 30.5642C95.2693 30.4581 95.3047 30.3289 95.3047 30.1792C95.3047 30.073 95.2802 29.9846 95.2297 29.9166C95.1792 29.8472 95.1233 29.7832 95.0606 29.7234C94.9978 29.6635 94.9405 29.5968 94.8914 29.522C94.841 29.4471 94.8164 29.3533 94.8164 29.2403C94.8164 29.0716 94.8723 28.9301 94.9855 28.8172C95.0988 28.7042 95.2529 28.6484 95.4466 28.6484C95.6853 28.6484 95.8653 28.7301 95.9881 28.892C96.1109 29.0553 96.175 29.2743 96.1818 29.5492C96.1818 29.7492 96.1491 29.9588 96.0822 30.1792C96.0168 30.3982 95.9281 30.6023 95.819 30.7901C95.7085 30.9779 95.5912 31.1316 95.4657 31.25C95.3416 31.367 95.2215 31.4269 95.1083 31.4269Z" fill="#A6A6A6"/>
<path d="M103.802 29.8021C103.689 29.8021 103.588 29.7681 103.501 29.6987C103.412 29.6293 103.351 29.5354 103.312 29.417L101.419 23.143C101.356 22.9362 101.36 22.7716 101.433 22.6505C101.505 22.528 101.622 22.4668 101.786 22.4668C101.892 22.4668 101.991 22.4967 102.078 22.5566C102.165 22.6165 102.228 22.709 102.266 22.8342L103.914 28.5639H103.707L105.232 22.89C105.256 22.7961 105.313 22.7185 105.401 22.6546C105.488 22.592 105.589 22.5607 105.702 22.5607C105.803 22.5607 105.899 22.5879 105.99 22.641C106.081 22.694 106.139 22.7743 106.165 22.8804L107.699 28.5626H107.511L109.168 22.7866C109.231 22.5743 109.39 22.4668 109.648 22.4668C109.824 22.4668 109.937 22.5348 109.988 22.6682C110.038 22.8029 110.038 22.9607 109.988 23.143L108.095 29.4075C108.051 29.5259 107.987 29.6225 107.902 29.6946C107.818 29.7667 107.718 29.8021 107.606 29.8021C107.486 29.8021 107.385 29.764 107.301 29.6892C107.216 29.6143 107.155 29.5232 107.117 29.417L105.601 23.5744H105.828L104.293 29.4075C104.249 29.5259 104.185 29.6225 104.101 29.6946C104.013 29.7654 103.915 29.8021 103.802 29.8021Z" fill="#A6A6A6"/>
<path d="M112.398 27.933C112.26 27.933 112.146 27.888 112.054 27.7969C111.963 27.7057 111.918 27.5914 111.918 27.454V22.9448C111.918 22.8005 111.963 22.6849 112.054 22.5978C112.146 22.5107 112.26 22.4658 112.398 22.4658C112.543 22.4658 112.659 22.5094 112.746 22.5978C112.833 22.6849 112.878 22.8019 112.878 22.9448V27.454C112.878 27.5914 112.835 27.7057 112.746 27.7969C112.659 27.8867 112.541 27.933 112.398 27.933ZM112.398 29.8107C112.26 29.8107 112.146 29.7658 112.054 29.6746C111.963 29.5834 111.918 29.4691 111.918 29.3317V25.1422C111.918 24.998 111.963 24.8824 112.054 24.7953C112.146 24.7082 112.26 24.6633 112.398 24.6633C112.543 24.6633 112.659 24.7068 112.746 24.7953C112.833 24.8837 112.878 24.9994 112.878 25.1422V29.3317C112.878 29.4691 112.835 29.5834 112.746 29.6746C112.659 29.7658 112.541 29.8107 112.398 29.8107ZM116.268 29.8107C116.13 29.8107 116.016 29.7658 115.924 29.6746C115.833 29.5834 115.788 29.4691 115.788 29.3317V27.0213C115.788 26.6648 115.722 26.3736 115.59 26.1478C115.458 25.9219 115.28 25.7545 115.058 25.6457C114.836 25.5368 114.579 25.481 114.29 25.481C114.027 25.481 113.788 25.5341 113.574 25.6402C113.36 25.7464 113.191 25.8892 113.065 26.0675C112.94 26.2457 112.877 26.4512 112.877 26.6825H112.284C112.284 26.2879 112.379 25.9355 112.571 25.6253C112.762 25.315 113.024 25.0701 113.357 24.8878C113.69 24.7068 114.064 24.6157 114.477 24.6157C114.911 24.6157 115.298 24.7082 115.64 24.8932C115.983 25.0783 116.253 25.3491 116.451 25.7056C116.648 26.062 116.747 26.5015 116.747 27.0199V29.3303C116.747 29.4678 116.702 29.5821 116.61 29.6732C116.52 29.7658 116.406 29.8107 116.268 29.8107Z" fill="#A6A6A6"/>
<path d="M121.71 29.8394C121.189 29.8394 120.727 29.7279 120.322 29.5061C119.917 29.2843 119.6 28.9768 119.371 28.5849C119.142 28.193 119.027 27.744 119.027 27.2365C119.027 26.7235 119.135 26.2704 119.352 25.8786C119.569 25.4867 119.868 25.1805 120.251 24.9574C120.634 24.7356 121.073 24.624 121.569 24.624C122.058 24.624 122.478 24.7315 122.83 24.9479C123.182 25.1642 123.45 25.4608 123.635 25.8405C123.821 26.2187 123.913 26.6568 123.913 27.1508C123.913 27.2691 123.872 27.3685 123.791 27.446C123.709 27.525 123.605 27.5631 123.48 27.5631H119.685V26.812H123.451L123.065 27.0746C123.058 26.7616 122.995 26.4813 122.877 26.2337C122.758 25.986 122.587 25.7901 122.368 25.6472C122.148 25.503 121.881 25.4309 121.567 25.4309C121.21 25.4309 120.903 25.5098 120.649 25.6663C120.395 25.8228 120.202 26.0377 120.069 26.3099C119.937 26.582 119.872 26.8909 119.872 27.2351C119.872 27.5794 119.949 27.8869 120.108 28.1563C120.265 28.4257 120.481 28.638 120.757 28.7944C121.034 28.9509 121.35 29.0298 121.708 29.0298C121.903 29.0298 122.102 28.9945 122.305 28.9223C122.508 28.8502 122.673 28.7672 122.799 28.6733C122.893 28.604 122.995 28.5686 123.104 28.5659C123.215 28.5631 123.31 28.5958 123.392 28.6638C123.499 28.7577 123.556 28.8611 123.561 28.9741C123.568 29.087 123.518 29.1836 123.411 29.2652C123.199 29.434 122.933 29.5727 122.616 29.6789C122.302 29.7864 121.998 29.8394 121.71 29.8394Z" fill="#A6A6A6"/>
<path d="M126.551 29.802C126.401 29.802 126.283 29.7626 126.203 29.685C126.121 29.6075 126.08 29.4891 126.08 29.3326V25.1336C126.08 24.9839 126.121 24.8669 126.203 24.7866C126.285 24.705 126.401 24.6642 126.551 24.6642C126.708 24.6642 126.825 24.7036 126.904 24.7812C126.982 24.8601 127.021 24.9771 127.021 25.1336V29.3326C127.021 29.4823 126.982 29.5993 126.904 29.6796C126.825 29.7612 126.708 29.802 126.551 29.802ZM126.541 26.5895C126.541 26.214 126.634 25.8779 126.819 25.5799C127.005 25.2819 127.255 25.0465 127.568 24.871C127.882 24.6955 128.227 24.6084 128.604 24.6084C128.98 24.6084 129.261 24.6696 129.447 24.7921C129.632 24.9145 129.702 25.0601 129.658 25.2289C129.639 25.3159 129.603 25.384 129.55 25.4302C129.497 25.4779 129.436 25.5064 129.366 25.52C129.296 25.5323 129.221 25.5296 129.14 25.5105C128.737 25.4289 128.377 25.4234 128.057 25.4915C127.736 25.5609 127.484 25.6888 127.298 25.8765C127.113 26.0643 127.02 26.3024 127.02 26.5909H126.541V26.5895Z" fill="#A6A6A6"/>
<path d="M133.64 29.8394C133.119 29.8394 132.657 29.7279 132.251 29.5061C131.846 29.2843 131.53 28.9768 131.301 28.5849C131.072 28.193 130.957 27.744 130.957 27.2365C130.957 26.7235 131.065 26.2704 131.282 25.8786C131.499 25.4867 131.797 25.1805 132.181 24.9574C132.564 24.7356 133.003 24.624 133.498 24.624C133.988 24.624 134.408 24.7315 134.76 24.9479C135.112 25.1642 135.379 25.4608 135.565 25.8405C135.75 26.2187 135.843 26.6568 135.843 27.1508C135.843 27.2691 135.802 27.3685 135.72 27.446C135.638 27.525 135.535 27.5631 135.409 27.5631H131.614V26.812H135.381L134.995 27.0746C134.988 26.7616 134.925 26.4813 134.806 26.2337C134.688 25.986 134.517 25.7901 134.298 25.6472C134.078 25.503 133.811 25.4309 133.497 25.4309C133.139 25.4309 132.833 25.5098 132.579 25.6663C132.325 25.8228 132.131 26.0377 131.999 26.3099C131.867 26.582 131.801 26.8909 131.801 27.2351C131.801 27.5794 131.879 27.8869 132.037 28.1563C132.194 28.4257 132.411 28.638 132.687 28.7944C132.964 28.9509 133.28 29.0298 133.637 29.0298C133.832 29.0298 134.032 28.9945 134.235 28.9223C134.438 28.8502 134.603 28.7672 134.729 28.6733C134.823 28.604 134.925 28.5686 135.034 28.5659C135.145 28.5631 135.24 28.5958 135.322 28.6638C135.428 28.7577 135.486 28.8611 135.491 28.9741C135.498 29.087 135.447 29.1836 135.341 29.2652C135.127 29.434 134.862 29.5727 134.546 29.6789C134.232 29.7864 133.929 29.8394 133.64 29.8394Z" fill="#A6A6A6"/>
<path d="M139.563 29.7932C139.368 29.7932 139.218 29.6897 139.111 29.4829L137.116 25.2839C137.065 25.1778 137.061 25.073 137.102 24.9696C137.143 24.8662 137.223 24.7859 137.342 24.7301C137.448 24.6744 137.558 24.6648 137.667 24.7016C137.777 24.7397 137.86 24.8118 137.916 24.9179L139.781 28.9291H139.329L141.175 24.9179C141.231 24.8118 141.318 24.7397 141.434 24.7016C141.55 24.6635 141.667 24.673 141.787 24.7301C141.901 24.7805 141.976 24.858 142.014 24.9655C142.052 25.0717 142.045 25.1778 141.995 25.2853L139.999 29.4843C139.902 29.6897 139.758 29.7932 139.563 29.7932Z" fill="#A6A6A6"/>
<path d="M146.156 29.8394C145.635 29.8394 145.172 29.7279 144.767 29.5061C144.362 29.2843 144.046 28.9768 143.816 28.5849C143.587 28.193 143.473 27.744 143.473 27.2365C143.473 26.7235 143.58 26.2704 143.797 25.8786C144.014 25.4867 144.313 25.1805 144.696 24.9574C145.079 24.7356 145.519 24.624 146.014 24.624C146.504 24.624 146.924 24.7315 147.276 24.9479C147.628 25.1642 147.895 25.4608 148.08 25.8405C148.266 26.2187 148.359 26.6568 148.359 27.1508C148.359 27.2691 148.318 27.3685 148.236 27.446C148.154 27.525 148.05 27.5631 147.925 27.5631H144.13V26.812H147.896L147.51 27.0746C147.503 26.7616 147.441 26.4813 147.322 26.2337C147.203 25.986 147.033 25.7901 146.813 25.6472C146.594 25.503 146.326 25.4309 146.012 25.4309C145.655 25.4309 145.348 25.5098 145.094 25.6663C144.841 25.8228 144.647 26.0377 144.515 26.3099C144.382 26.582 144.317 26.8909 144.317 27.2351C144.317 27.5794 144.395 27.8869 144.553 28.1563C144.71 28.4257 144.927 28.638 145.202 28.7944C145.479 28.9509 145.796 29.0298 146.153 29.0298C146.348 29.0298 146.547 28.9945 146.75 28.9223C146.954 28.8502 147.119 28.7672 147.244 28.6733C147.338 28.604 147.441 28.5686 147.55 28.5659C147.66 28.5631 147.756 28.5958 147.838 28.6638C147.944 28.7577 148.001 28.8611 148.007 28.9741C148.014 29.087 147.963 29.1836 147.857 29.2652C147.644 29.434 147.378 29.5727 147.061 29.6789C146.746 29.7864 146.444 29.8394 146.156 29.8394Z" fill="#A6A6A6"/>
<path d="M150.994 29.802C150.844 29.802 150.727 29.7626 150.646 29.685C150.564 29.6075 150.523 29.4891 150.523 29.3326V25.1336C150.523 24.9839 150.564 24.8669 150.646 24.7866C150.728 24.705 150.844 24.6642 150.994 24.6642C151.151 24.6642 151.268 24.7036 151.347 24.7812C151.425 24.8601 151.465 24.9771 151.465 25.1336V29.3326C151.465 29.4823 151.425 29.5993 151.347 29.6796C151.268 29.7612 151.151 29.802 150.994 29.802ZM150.984 26.5895C150.984 26.214 151.077 25.8779 151.263 25.5799C151.448 25.2819 151.698 25.0465 152.012 24.871C152.325 24.6955 152.67 24.6084 153.047 24.6084C153.423 24.6084 153.704 24.6696 153.89 24.7921C154.075 24.9145 154.145 25.0601 154.101 25.2289C154.082 25.3159 154.047 25.384 153.994 25.4302C153.94 25.4765 153.879 25.5064 153.809 25.52C153.74 25.5323 153.665 25.5296 153.583 25.5105C153.181 25.4289 152.82 25.4234 152.5 25.4915C152.179 25.5609 151.927 25.6888 151.742 25.8765C151.556 26.0643 151.463 26.3024 151.463 26.5909H150.984V26.5895Z" fill="#A6A6A6"/>
<path d="M154.45 31.4271C154.375 31.4271 154.316 31.4027 154.276 31.3523C154.235 31.302 154.214 31.2462 154.214 31.1836C154.214 31.0584 154.25 30.9496 154.322 30.8598C154.394 30.7686 154.466 30.6706 154.539 30.5645C154.611 30.4584 154.647 30.3291 154.647 30.1794C154.647 30.0733 154.622 29.9848 154.571 29.9168C154.521 29.8474 154.465 29.7835 154.402 29.7236C154.34 29.6637 154.282 29.5971 154.233 29.5222C154.183 29.4474 154.158 29.3535 154.158 29.2406C154.158 29.0718 154.214 28.9303 154.327 28.8174C154.441 28.7045 154.595 28.6487 154.788 28.6487C155.027 28.6487 155.207 28.7303 155.33 28.8922C155.453 29.0555 155.517 29.2746 155.524 29.5494C155.524 29.7495 155.491 29.959 155.424 30.1794C155.359 30.3985 155.27 30.6026 155.161 30.7904C155.05 30.9781 154.933 31.1319 154.807 31.2503C154.683 31.3673 154.563 31.4271 154.45 31.4271Z" fill="#A6A6A6"/>
<path d="M163.142 29.8024C163.029 29.8024 162.929 29.7683 162.84 29.699C162.752 29.6296 162.69 29.5357 162.652 29.4173L160.759 23.1433C160.696 22.9365 160.7 22.7718 160.773 22.6507C160.845 22.5283 160.962 22.467 161.126 22.467C161.232 22.467 161.33 22.497 161.418 22.5568C161.505 22.6167 161.568 22.7092 161.606 22.8344L163.254 28.5642H163.046L164.571 22.8902C164.596 22.7963 164.653 22.7188 164.74 22.6548C164.828 22.5922 164.929 22.5609 165.042 22.5609C165.143 22.5609 165.238 22.5881 165.33 22.6412C165.421 22.6943 165.478 22.7746 165.504 22.8807L167.039 28.5628H166.851L168.508 22.7868C168.571 22.5745 168.73 22.467 168.988 22.467C169.164 22.467 169.277 22.5351 169.328 22.6684C169.378 22.8031 169.378 22.961 169.328 23.1433L167.434 29.4078C167.391 29.5261 167.327 29.6228 167.242 29.6949C167.158 29.767 167.058 29.8024 166.946 29.8024C166.826 29.8024 166.725 29.7643 166.641 29.6894C166.556 29.6146 166.495 29.5234 166.456 29.4173L164.941 23.5746H165.167L163.633 29.4078C163.589 29.5261 163.525 29.6228 163.441 29.6949C163.353 29.7656 163.255 29.8024 163.142 29.8024Z" fill="#A6A6A6"/>
<path d="M171.738 27.933C171.6 27.933 171.486 27.888 171.394 27.7969C171.303 27.7057 171.258 27.5914 171.258 27.454V22.9448C171.258 22.8005 171.303 22.6849 171.394 22.5978C171.486 22.5107 171.6 22.4658 171.738 22.4658C171.883 22.4658 171.998 22.5094 172.086 22.5978C172.173 22.6849 172.218 22.8019 172.218 22.9448V27.454C172.218 27.5914 172.174 27.7057 172.086 27.7969C171.998 27.8867 171.883 27.933 171.738 27.933ZM171.738 29.8107C171.6 29.8107 171.486 29.7658 171.394 29.6746C171.303 29.5834 171.258 29.4691 171.258 29.3317V25.1422C171.258 24.998 171.303 24.8824 171.394 24.7953C171.486 24.7082 171.6 24.6633 171.738 24.6633C171.883 24.6633 171.998 24.7068 172.086 24.7953C172.173 24.8837 172.218 24.9994 172.218 25.1422V29.3317C172.218 29.4691 172.174 29.5834 172.086 29.6746C171.998 29.7658 171.883 29.8107 171.738 29.8107ZM175.608 29.8107C175.47 29.8107 175.355 29.7658 175.264 29.6746C175.173 29.5834 175.128 29.4691 175.128 29.3317V27.0213C175.128 26.6648 175.062 26.3736 174.93 26.1478C174.797 25.9219 174.62 25.7545 174.398 25.6457C174.175 25.5368 173.919 25.481 173.63 25.481C173.367 25.481 173.128 25.5341 172.914 25.6402C172.701 25.7464 172.53 25.8892 172.405 26.0675C172.279 26.2457 172.217 26.4512 172.217 26.6825H171.623C171.623 26.2879 171.719 25.9355 171.911 25.6253C172.102 25.315 172.364 25.0701 172.697 24.8878C173.03 24.7068 173.403 24.6157 173.817 24.6157C174.251 24.6157 174.638 24.7082 174.98 24.8932C175.323 25.0783 175.593 25.3491 175.79 25.7056C175.988 26.062 176.086 26.5015 176.086 27.0199V29.3303C176.086 29.4678 176.041 29.5821 175.95 29.6732C175.86 29.7658 175.745 29.8107 175.608 29.8107Z" fill="#A6A6A6"/>
<path d="M180.966 29.8385C180.457 29.8385 180.008 29.7269 179.619 29.5051C179.231 29.2833 178.924 28.9758 178.701 28.5839C178.479 28.1921 178.367 27.743 178.367 27.2355C178.367 26.7225 178.479 26.2694 178.701 25.8776C178.924 25.4857 179.231 25.1796 179.619 24.9564C180.008 24.7346 180.457 24.623 180.966 24.623C181.468 24.623 181.914 24.7346 182.302 24.9564C182.691 25.1782 182.998 25.4857 183.22 25.8776C183.443 26.2694 183.555 26.7212 183.555 27.2355C183.555 27.743 183.444 28.1921 183.225 28.5839C183.005 28.9758 182.701 29.2819 182.311 29.5051C181.923 29.7269 181.474 29.8385 180.966 29.8385ZM180.966 28.9935C181.292 28.9935 181.581 28.9186 181.832 28.7676C182.083 28.6179 182.279 28.4111 182.42 28.1472C182.562 27.8845 182.631 27.5811 182.631 27.2355C182.631 26.8913 182.56 26.5865 182.42 26.3198C182.278 26.0531 182.083 25.8449 181.832 25.6952C181.581 25.5456 181.292 25.4694 180.966 25.4694C180.64 25.4694 180.35 25.5442 180.1 25.6952C179.849 25.8449 179.651 26.0531 179.506 26.3198C179.362 26.5865 179.289 26.8913 179.289 27.2355C179.289 27.5798 179.362 27.8832 179.506 28.1472C179.651 28.4098 179.849 28.6166 180.1 28.7676C180.35 28.9186 180.64 28.9935 180.966 28.9935Z" fill="#A6A6A6"/>
<path d="M188.349 29.8385C187.828 29.8385 187.366 29.7269 186.96 29.5051C186.555 29.2833 186.239 28.9758 186.01 28.5839C185.781 28.1921 185.666 27.743 185.666 27.2355C185.666 26.7225 185.774 26.2694 185.991 25.8776C186.208 25.4857 186.506 25.1796 186.89 24.9564C187.273 24.7346 187.712 24.623 188.207 24.623C188.697 24.623 189.117 24.7305 189.469 24.9469C189.821 25.1632 190.088 25.4599 190.274 25.8395C190.459 26.2177 190.552 26.6559 190.552 27.1498C190.552 27.2682 190.511 27.3675 190.429 27.4451C190.347 27.524 190.244 27.5621 190.118 27.5621H186.323V26.811H190.09L189.704 27.0736C189.697 26.7606 189.634 26.4803 189.515 26.2327C189.397 25.9851 189.226 25.7891 189.007 25.6463C188.787 25.502 188.52 25.4299 188.206 25.4299C187.848 25.4299 187.542 25.5088 187.288 25.6653C187.034 25.8218 186.84 26.0368 186.708 26.3089C186.576 26.581 186.51 26.8899 186.51 27.2342C186.51 27.5784 186.588 27.8859 186.746 28.1553C186.903 28.4247 187.12 28.637 187.396 28.7935C187.672 28.9499 187.989 29.0289 188.346 29.0289C188.541 29.0289 188.741 28.9935 188.944 28.9214C189.147 28.8493 189.312 28.7663 189.438 28.6724C189.532 28.603 189.634 28.5676 189.743 28.5649C189.854 28.5622 189.949 28.5948 190.031 28.6628C190.137 28.7567 190.195 28.8601 190.2 28.9731C190.207 29.086 190.156 29.1826 190.05 29.2643C189.837 29.433 189.571 29.5718 189.255 29.6779C188.941 29.7854 188.638 29.8385 188.349 29.8385Z" fill="#A6A6A6"/>
<path d="M194.272 29.7932C194.077 29.7932 193.927 29.6897 193.82 29.4829L191.825 25.2839C191.774 25.1778 191.77 25.073 191.811 24.9696C191.852 24.8662 191.932 24.7859 192.051 24.7301C192.157 24.6744 192.267 24.6648 192.376 24.7016C192.486 24.7397 192.569 24.8118 192.625 24.9179L194.49 28.9291H194.038L195.884 24.9179C195.94 24.8118 196.027 24.7397 196.143 24.7016C196.259 24.6635 196.376 24.673 196.496 24.7301C196.61 24.7805 196.685 24.858 196.723 24.9655C196.761 25.0717 196.754 25.1778 196.704 25.2853L194.708 29.4843C194.611 29.6897 194.467 29.7932 194.272 29.7932Z" fill="#A6A6A6"/>
<path d="M200.863 29.8385C200.342 29.8385 199.879 29.7269 199.474 29.5051C199.069 29.2833 198.753 28.9758 198.523 28.5839C198.294 28.1921 198.18 27.743 198.18 27.2355C198.18 26.7225 198.287 26.2694 198.504 25.8776C198.721 25.4857 199.02 25.1796 199.403 24.9564C199.787 24.7346 200.226 24.623 200.721 24.623C201.211 24.623 201.631 24.7305 201.983 24.9469C202.335 25.1632 202.602 25.4599 202.787 25.8395C202.973 26.2177 203.066 26.6559 203.066 27.1498C203.066 27.2682 203.025 27.3675 202.943 27.4451C202.861 27.524 202.757 27.5621 202.632 27.5621H198.837V26.811H202.603L202.217 27.0736C202.21 26.7606 202.148 26.4803 202.029 26.2327C201.91 25.9851 201.74 25.7891 201.52 25.6463C201.301 25.502 201.033 25.4299 200.72 25.4299C200.362 25.4299 200.055 25.5088 199.802 25.6653C199.548 25.8218 199.354 26.0368 199.222 26.3089C199.089 26.581 199.024 26.8899 199.024 27.2342C199.024 27.5784 199.102 27.8859 199.26 28.1553C199.417 28.4247 199.634 28.637 199.909 28.7935C200.186 28.9499 200.503 29.0289 200.86 29.0289C201.055 29.0289 201.254 28.9935 201.457 28.9214C201.661 28.8493 201.826 28.7663 201.951 28.6724C202.045 28.603 202.148 28.5676 202.257 28.5649C202.367 28.5622 202.463 28.5948 202.545 28.6628C202.651 28.7567 202.708 28.8601 202.714 28.9731C202.721 29.086 202.67 29.1826 202.564 29.2643C202.351 29.433 202.085 29.5718 201.768 29.6779C201.455 29.7854 201.152 29.8385 200.863 29.8385Z" fill="#A6A6A6"/>
<path d="M205.705 29.802C205.555 29.802 205.438 29.7626 205.357 29.685C205.275 29.6075 205.234 29.4891 205.234 29.3326V25.1336C205.234 24.9839 205.275 24.8669 205.357 24.7866C205.439 24.705 205.555 24.6642 205.705 24.6642C205.862 24.6642 205.979 24.7036 206.058 24.7812C206.136 24.8601 206.176 24.9771 206.176 25.1336V29.3326C206.176 29.4823 206.136 29.5993 206.058 29.6796C205.979 29.7612 205.862 29.802 205.705 29.802ZM205.695 26.5895C205.695 26.214 205.788 25.8779 205.974 25.5799C206.159 25.2819 206.409 25.0465 206.723 24.871C207.036 24.6955 207.381 24.6084 207.758 24.6084C208.134 24.6084 208.415 24.6696 208.601 24.7921C208.786 24.9145 208.856 25.0601 208.812 25.2289C208.793 25.3159 208.758 25.384 208.704 25.4302C208.651 25.4779 208.59 25.5064 208.52 25.52C208.451 25.5323 208.376 25.5296 208.294 25.5105C207.892 25.4289 207.531 25.4234 207.211 25.4915C206.89 25.5609 206.638 25.6888 206.452 25.8765C206.267 26.0643 206.174 26.3024 206.174 26.5909H205.695V26.5895Z" fill="#A6A6A6"/>
<path d="M209.8 29.9521C209.624 29.9521 209.471 29.8882 209.343 29.7589C209.215 29.631 209.15 29.4786 209.15 29.3031C209.15 29.1221 209.215 28.967 209.343 28.8377C209.471 28.7098 209.624 28.6445 209.8 28.6445C209.981 28.6445 210.135 28.7085 210.261 28.8377C210.386 28.9656 210.449 29.1208 210.449 29.3031C210.449 29.4786 210.386 29.631 210.261 29.7589C210.135 29.8882 209.981 29.9521 209.8 29.9521Z" fill="#A6A6A6"/>
<path d="M216.994 29.8025C216.856 29.8025 216.74 29.7549 216.646 29.661C216.552 29.5671 216.504 29.4514 216.504 29.314V22.9543C216.504 22.8101 216.55 22.6931 216.646 22.6019C216.74 22.5107 216.856 22.4658 216.994 22.4658H219.244C219.671 22.4658 220.046 22.5488 220.37 22.7148C220.693 22.8808 220.947 23.1108 221.132 23.4047C221.318 23.6986 221.41 24.0374 221.41 24.4197C221.41 24.7272 221.327 25.0035 221.161 25.2511C220.994 25.4987 220.767 25.6947 220.477 25.8375C220.892 25.9382 221.225 26.1355 221.476 26.4294C221.727 26.7233 221.852 27.1084 221.852 27.5846C221.852 28.0173 221.75 28.3983 221.547 28.7303C221.342 29.0623 221.058 29.3235 220.694 29.514C220.33 29.7045 219.913 29.8011 219.442 29.8011H216.994V29.8025ZM217.483 25.481H219.244C219.602 25.481 219.895 25.394 220.124 25.2184C220.353 25.0429 220.468 24.7776 220.468 24.4197C220.468 24.0632 220.353 23.7979 220.124 23.6265C219.895 23.4537 219.602 23.3679 219.244 23.3679H217.483V25.481ZM217.483 28.9004H219.442C219.731 28.9004 219.985 28.85 220.205 28.7507C220.424 28.65 220.597 28.5031 220.723 28.3099C220.848 28.1153 220.911 27.8744 220.911 27.586C220.911 27.3166 220.848 27.0948 220.723 26.9193C220.597 26.7437 220.424 26.6104 220.205 26.5206C219.985 26.4294 219.731 26.3845 219.442 26.3845H217.483V28.9004Z" fill="#A6A6A6"/>
<path d="M224.631 29.802C224.481 29.802 224.363 29.7626 224.283 29.685C224.201 29.6075 224.16 29.4891 224.16 29.3326V25.1336C224.16 24.9839 224.201 24.8669 224.283 24.7866C224.365 24.705 224.481 24.6642 224.631 24.6642C224.788 24.6642 224.905 24.7036 224.984 24.7812C225.062 24.8601 225.101 24.9771 225.101 25.1336V29.3326C225.101 29.4823 225.062 29.5993 224.984 29.6796C224.905 29.7612 224.788 29.802 224.631 29.802ZM224.621 26.5895C224.621 26.214 224.714 25.8779 224.899 25.5799C225.085 25.2819 225.335 25.0465 225.648 24.871C225.962 24.6955 226.307 24.6084 226.684 24.6084C227.06 24.6084 227.341 24.6696 227.527 24.7921C227.712 24.9145 227.782 25.0601 227.738 25.2289C227.719 25.3159 227.683 25.384 227.63 25.4302C227.577 25.4765 227.516 25.5064 227.446 25.52C227.377 25.5323 227.302 25.5296 227.22 25.5105C226.817 25.4289 226.457 25.4234 226.137 25.4915C225.816 25.5609 225.564 25.6888 225.378 25.8765C225.193 26.0643 225.1 26.3024 225.1 26.5909H224.621V26.5895Z" fill="#A6A6A6"/>
<path d="M230.251 23.8278C230.082 23.8278 229.936 23.7666 229.813 23.6441C229.69 23.5217 229.629 23.3761 229.629 23.2074C229.629 23.0387 229.69 22.8931 229.813 22.7706C229.936 22.6481 230.082 22.5869 230.251 22.5869C230.42 22.5869 230.566 22.6481 230.689 22.7706C230.812 22.8931 230.873 23.0387 230.873 23.2074C230.873 23.3761 230.812 23.5217 230.689 23.6441C230.567 23.7666 230.421 23.8278 230.251 23.8278ZM230.251 29.8025C230.113 29.8025 229.999 29.7576 229.907 29.6664C229.816 29.5753 229.771 29.461 229.771 29.3235V25.1436C229.771 24.9994 229.816 24.8837 229.907 24.7966C229.999 24.7095 230.113 24.6646 230.251 24.6646C230.396 24.6646 230.511 24.7082 230.599 24.7966C230.686 24.8851 230.731 25.0007 230.731 25.1436V29.3235C230.731 29.461 230.687 29.5753 230.599 29.6664C230.511 29.7562 230.396 29.8025 230.251 29.8025Z" fill="#A6A6A6"/>
<path d="M233.941 29.8105C233.803 29.8105 233.689 29.7656 233.597 29.6744C233.506 29.5832 233.461 29.469 233.461 29.3315V25.1421C233.461 24.9978 233.506 24.8822 233.597 24.7951C233.689 24.708 233.803 24.6631 233.941 24.6631C234.086 24.6631 234.202 24.7066 234.289 24.7951C234.376 24.8835 234.421 24.9992 234.421 25.1421V29.3315C234.421 29.469 234.378 29.5832 234.289 29.6744C234.202 29.7656 234.086 29.8105 233.941 29.8105ZM237.812 29.8105C237.674 29.8105 237.56 29.7656 237.468 29.6744C237.377 29.5832 237.332 29.469 237.332 29.3315V27.0211C237.332 26.6646 237.267 26.3735 237.134 26.1476C237.002 25.9217 236.825 25.7544 236.602 25.6455C236.38 25.5366 236.124 25.4809 235.834 25.4809C235.571 25.4809 235.332 25.5339 235.118 25.6401C234.904 25.7462 234.735 25.8891 234.609 26.0673C234.484 26.2455 234.421 26.451 234.421 26.6823H233.828C233.828 26.2877 233.923 25.9353 234.116 25.6251C234.307 25.3149 234.569 25.0699 234.901 24.8876C235.234 24.7066 235.608 24.6155 236.021 24.6155C236.455 24.6155 236.842 24.708 237.185 24.8931C237.527 25.0781 237.797 25.3489 237.995 25.7054C238.193 26.0619 238.291 26.5014 238.291 27.0198V29.3302C238.291 29.4676 238.246 29.5819 238.155 29.6731C238.065 29.7656 237.95 29.8105 237.812 29.8105Z" fill="#A6A6A6"/>
<path d="M242.972 29.8385C242.502 29.8385 242.086 29.7269 241.724 29.5051C241.363 29.2833 241.079 28.9758 240.872 28.5839C240.664 28.1921 240.561 27.743 240.561 27.2355C240.561 26.7225 240.672 26.2694 240.895 25.8776C241.117 25.4857 241.424 25.1796 241.813 24.9564C242.201 24.7346 242.65 24.623 243.159 24.623C243.661 24.623 244.107 24.7346 244.496 24.9564C244.885 25.1782 245.191 25.4857 245.414 25.8776C245.636 26.2694 245.748 26.7212 245.748 27.2355H245.193C245.193 27.743 245.097 28.1921 244.905 28.5839C244.714 28.9758 244.452 29.2819 244.119 29.5051C243.789 29.7269 243.406 29.8385 242.972 29.8385ZM243.143 31.9339C242.697 31.9339 242.279 31.8454 241.89 31.6713C241.502 31.4957 241.172 31.2386 240.902 30.9011C240.82 30.795 240.79 30.6848 240.812 30.5719C240.833 30.4589 240.895 30.3678 240.996 30.2997C241.109 30.2249 241.226 30.199 241.349 30.2249C241.472 30.2494 241.57 30.312 241.645 30.4127C241.814 30.6249 242.028 30.7909 242.285 30.9107C242.542 31.029 242.834 31.0889 243.16 31.0889C243.462 31.0889 243.74 31.0168 243.994 30.8726C244.248 30.7283 244.451 30.5161 244.601 30.2344C244.751 29.9528 244.827 29.6085 244.827 29.2017V27.8682L245.138 27.0409L245.751 27.2382V29.267C245.751 29.7623 245.64 30.2113 245.421 30.6154C245.201 31.0195 244.894 31.3406 244.503 31.5787C244.111 31.8141 243.657 31.9339 243.143 31.9339ZM243.162 28.9935C243.488 28.9935 243.777 28.9187 244.028 28.7676C244.279 28.6179 244.475 28.4111 244.616 28.1472C244.758 27.8845 244.827 27.5811 244.827 27.2355C244.827 26.8913 244.756 26.5865 244.616 26.3198C244.474 26.0531 244.279 25.8449 244.028 25.6952C243.777 25.5456 243.488 25.4694 243.162 25.4694C242.836 25.4694 242.547 25.5442 242.296 25.6952C242.045 25.8449 241.847 26.0531 241.702 26.3198C241.558 26.5865 241.485 26.8913 241.485 27.2355C241.485 27.5798 241.558 27.8832 241.702 28.1472C241.847 28.4098 242.045 28.6166 242.296 28.7676C242.545 28.9187 242.834 28.9935 243.162 28.9935Z" fill="#A6A6A6"/>
<path d="M248.698 23.8278C248.529 23.8278 248.383 23.7666 248.26 23.6441C248.138 23.5217 248.076 23.3761 248.076 23.2074C248.076 23.0387 248.138 22.8931 248.26 22.7706C248.383 22.6481 248.529 22.5869 248.698 22.5869C248.867 22.5869 249.013 22.6481 249.136 22.7706C249.259 22.8931 249.32 23.0387 249.32 23.2074C249.32 23.3761 249.259 23.5217 249.136 23.6441C249.013 23.7666 248.867 23.8278 248.698 23.8278ZM248.698 29.8025C248.56 29.8025 248.446 29.7576 248.354 29.6664C248.263 29.5753 248.218 29.461 248.218 29.3235V25.1436C248.218 24.9994 248.263 24.8837 248.354 24.7966C248.446 24.7095 248.56 24.6646 248.698 24.6646C248.843 24.6646 248.959 24.7082 249.046 24.7966C249.133 24.8851 249.178 25.0007 249.178 25.1436V29.3235C249.178 29.461 249.135 29.5753 249.046 29.6664C248.959 29.7562 248.841 29.8025 248.698 29.8025Z" fill="#A6A6A6"/>
<path d="M252.388 29.8105C252.251 29.8105 252.136 29.7656 252.045 29.6744C251.953 29.5832 251.908 29.469 251.908 29.3315V25.1421C251.908 24.9978 251.953 24.8822 252.045 24.7951C252.136 24.708 252.251 24.6631 252.388 24.6631C252.533 24.6631 252.649 24.7066 252.736 24.7951C252.823 24.8835 252.868 24.9992 252.868 25.1421V29.3315C252.868 29.469 252.825 29.5832 252.736 29.6744C252.648 29.7656 252.532 29.8105 252.388 29.8105ZM256.258 29.8105C256.12 29.8105 256.006 29.7656 255.914 29.6744C255.823 29.5832 255.778 29.469 255.778 29.3315V27.0211C255.778 26.6646 255.712 26.3735 255.58 26.1476C255.448 25.9217 255.271 25.7544 255.048 25.6455C254.826 25.5366 254.569 25.4809 254.28 25.4809C254.017 25.4809 253.778 25.5339 253.564 25.6401C253.351 25.7462 253.181 25.8891 253.055 26.0673C252.93 26.2455 252.867 26.451 252.867 26.6823H252.274C252.274 26.2877 252.369 25.9353 252.562 25.6251C252.753 25.3149 253.014 25.0699 253.347 24.8876C253.68 24.7066 254.054 24.6155 254.467 24.6155C254.901 24.6155 255.288 24.708 255.631 24.8931C255.973 25.0781 256.243 25.3489 256.441 25.7054C256.639 26.0619 256.737 26.5014 256.737 27.0198V29.3302C256.737 29.4676 256.692 29.5819 256.6 29.6731C256.51 29.7656 256.396 29.8105 256.258 29.8105Z" fill="#A6A6A6"/>
<path d="M261.419 29.8385C260.949 29.8385 260.533 29.7269 260.171 29.5051C259.81 29.2833 259.526 28.9758 259.319 28.5839C259.111 28.1921 259.008 27.743 259.008 27.2355C259.008 26.7225 259.12 26.2694 259.342 25.8776C259.564 25.4857 259.871 25.1796 260.26 24.9564C260.649 24.7346 261.098 24.623 261.606 24.623C262.108 24.623 262.554 24.7346 262.943 24.9564C263.332 25.1782 263.639 25.4857 263.861 25.8776C264.083 26.2694 264.195 26.7212 264.195 27.2355H263.64C263.64 27.743 263.545 28.1921 263.352 28.5839C263.161 28.9758 262.899 29.2819 262.567 29.5051C262.235 29.7269 261.852 29.8385 261.419 29.8385ZM261.589 31.9339C261.143 31.9339 260.725 31.8454 260.336 31.6713C259.948 31.4957 259.618 31.2386 259.347 30.9011C259.266 30.795 259.236 30.6848 259.257 30.5719C259.279 30.4589 259.341 30.3678 259.442 30.2997C259.555 30.2249 259.672 30.199 259.795 30.2249C259.918 30.2494 260.016 30.312 260.091 30.4127C260.26 30.6249 260.474 30.7909 260.731 30.9107C260.988 31.029 261.28 31.0889 261.606 31.0889C261.908 31.0889 262.186 31.0168 262.44 30.8726C262.693 30.7283 262.897 30.5161 263.047 30.2344C263.197 29.9528 263.273 29.6085 263.273 29.2017V27.8682L263.584 27.0409L264.197 27.2382V29.267C264.197 29.7623 264.086 30.2113 263.866 30.6154C263.647 31.0195 263.34 31.3406 262.949 31.5787C262.557 31.8141 262.103 31.9339 261.589 31.9339ZM261.608 28.9935C261.934 28.9935 262.223 28.9187 262.474 28.7676C262.725 28.6179 262.921 28.4111 263.062 28.1472C263.204 27.8845 263.273 27.5811 263.273 27.2355C263.273 26.8913 263.202 26.5865 263.062 26.3198C262.92 26.0531 262.725 25.8449 262.474 25.6952C262.223 25.5456 261.934 25.4694 261.608 25.4694C261.282 25.4694 260.992 25.5442 260.742 25.6952C260.491 25.8449 260.293 26.0531 260.148 26.3198C260.004 26.5865 259.931 26.8913 259.931 27.2355C259.931 27.5798 260.004 27.8832 260.148 28.1472C260.293 28.4098 260.491 28.6166 260.742 28.7676C260.992 28.9187 261.282 28.9935 261.608 28.9935Z" fill="#A6A6A6"/>
<path d="M270.053 25.6589C269.92 25.6589 269.814 25.6208 269.732 25.5459C269.65 25.4711 269.609 25.3772 269.609 25.2643C269.609 25.1391 269.65 25.0384 269.732 24.9636C269.814 24.8887 269.92 24.8506 270.053 24.8506H272.228C272.361 24.8506 272.467 24.8887 272.549 24.9636C272.631 25.0384 272.672 25.1391 272.672 25.2643C272.672 25.3772 272.631 25.4711 272.549 25.5459C272.467 25.6208 272.361 25.6589 272.228 25.6589H270.053ZM272.144 29.8021C271.83 29.8021 271.548 29.7218 271.297 29.5626C271.046 29.4034 270.848 29.1857 270.703 28.9095C270.559 28.6346 270.486 28.3244 270.486 27.9801V23.4981C270.486 23.3607 270.53 23.2478 270.619 23.1593C270.706 23.0722 270.819 23.0273 270.958 23.0273C271.096 23.0273 271.209 23.0709 271.297 23.1593C271.384 23.2478 271.429 23.3593 271.429 23.4981V27.9788C271.429 28.2291 271.499 28.4387 271.636 28.6088C271.774 28.7775 271.943 28.8619 272.145 28.8619H272.466C272.579 28.8619 272.674 28.9054 272.753 28.9938C272.831 29.0823 272.871 29.1939 272.871 29.3326C272.871 29.4701 272.819 29.583 272.715 29.6714C272.612 29.7585 272.478 29.8034 272.316 29.8034H272.144V29.8021Z" fill="#A6A6A6"/>
<path d="M275.466 27.933C275.329 27.933 275.214 27.888 275.123 27.7969C275.031 27.7057 274.986 27.5914 274.986 27.454V22.9448C274.986 22.8005 275.031 22.6849 275.123 22.5978C275.214 22.5107 275.329 22.4658 275.466 22.4658C275.611 22.4658 275.727 22.5094 275.814 22.5978C275.902 22.6849 275.947 22.8019 275.947 22.9448V27.454C275.947 27.5914 275.903 27.7057 275.814 27.7969C275.727 27.8867 275.611 27.933 275.466 27.933ZM275.466 29.8107C275.329 29.8107 275.214 29.7658 275.123 29.6746C275.031 29.5834 274.986 29.4691 274.986 29.3317V25.1422C274.986 24.998 275.031 24.8824 275.123 24.7953C275.214 24.7082 275.329 24.6633 275.466 24.6633C275.611 24.6633 275.727 24.7068 275.814 24.7953C275.902 24.8837 275.947 24.9994 275.947 25.1422V29.3317C275.947 29.4691 275.903 29.5834 275.814 29.6746C275.727 29.7658 275.611 29.8107 275.466 29.8107ZM279.336 29.8107C279.198 29.8107 279.084 29.7658 278.992 29.6746C278.901 29.5834 278.856 29.4691 278.856 29.3317V27.0213C278.856 26.6648 278.791 26.3736 278.658 26.1478C278.526 25.9219 278.349 25.7545 278.126 25.6457C277.904 25.5368 277.648 25.481 277.358 25.481C277.095 25.481 276.856 25.5341 276.642 25.6402C276.428 25.7464 276.259 25.8892 276.133 26.0675C276.008 26.2457 275.945 26.4512 275.945 26.6825H275.352C275.352 26.2879 275.447 25.9355 275.64 25.6253C275.831 25.315 276.093 25.0701 276.425 24.8878C276.758 24.7068 277.132 24.6157 277.545 24.6157C277.979 24.6157 278.366 24.7082 278.709 24.8932C279.051 25.0783 279.321 25.3491 279.519 25.7056C279.717 26.062 279.815 26.5015 279.815 27.0199V29.3303C279.815 29.4678 279.77 29.5821 279.679 29.6732C279.59 29.7658 279.475 29.8107 279.336 29.8107Z" fill="#A6A6A6"/>
<path d="M284.781 29.8385C284.26 29.8385 283.797 29.7269 283.392 29.5051C282.987 29.2833 282.671 28.9758 282.441 28.5839C282.212 28.1921 282.098 27.743 282.098 27.2355C282.098 26.7225 282.205 26.2694 282.422 25.8776C282.639 25.4857 282.938 25.1796 283.321 24.9564C283.704 24.7346 284.144 24.623 284.639 24.623C285.129 24.623 285.549 24.7305 285.901 24.9469C286.252 25.1632 286.52 25.4599 286.705 25.8395C286.891 26.2177 286.984 26.6559 286.984 27.1498C286.984 27.2682 286.943 27.3675 286.861 27.4451C286.779 27.524 286.675 27.5621 286.55 27.5621H282.755V26.811H286.521L286.135 27.0736C286.128 26.7606 286.066 26.4803 285.947 26.2327C285.828 25.9851 285.658 25.7891 285.438 25.6463C285.219 25.502 284.951 25.4299 284.637 25.4299C284.28 25.4299 283.973 25.5088 283.719 25.6653C283.466 25.8218 283.272 26.0368 283.14 26.3089C283.007 26.581 282.942 26.8899 282.942 27.2342C282.942 27.5784 283.02 27.8859 283.178 28.1553C283.335 28.4247 283.552 28.637 283.827 28.7935C284.104 28.9499 284.421 29.0289 284.778 29.0289C284.973 29.0289 285.172 28.9935 285.375 28.9214C285.579 28.8493 285.744 28.7663 285.869 28.6724C285.963 28.603 286.066 28.5676 286.175 28.5649C286.285 28.5622 286.381 28.5948 286.463 28.6628C286.569 28.7567 286.626 28.8601 286.632 28.9731C286.639 29.086 286.588 29.1826 286.482 29.2643C286.269 29.433 286.003 29.5718 285.686 29.6779C285.371 29.7854 285.069 29.8385 284.781 29.8385Z" fill="#A6A6A6"/>
<path d="M293.435 29.8025C293.297 29.8025 293.181 29.7549 293.087 29.661C292.993 29.5671 292.945 29.4514 292.945 29.314V22.9543C292.945 22.8101 292.992 22.6931 293.087 22.6019C293.181 22.5107 293.297 22.4658 293.435 22.4658H295.686C296.113 22.4658 296.488 22.5488 296.811 22.7148C297.134 22.8808 297.388 23.1108 297.573 23.4047C297.759 23.6986 297.852 24.0374 297.852 24.4197C297.852 24.7272 297.769 25.0035 297.602 25.2511C297.436 25.4987 297.208 25.6947 296.919 25.8375C297.333 25.9382 297.666 26.1355 297.917 26.4294C298.168 26.7233 298.294 27.1084 298.294 27.5846C298.294 28.0173 298.191 28.3983 297.988 28.7303C297.784 29.0623 297.5 29.3235 297.136 29.514C296.771 29.7045 296.354 29.8011 295.883 29.8011H293.435V29.8025ZM293.925 25.481H295.686C296.043 25.481 296.336 25.394 296.565 25.2184C296.795 25.0429 296.909 24.7776 296.909 24.4197C296.909 24.0632 296.795 23.7979 296.565 23.6265C296.336 23.4537 296.043 23.3679 295.686 23.3679H293.925V25.481ZM293.925 28.9004H295.883C296.173 28.9004 296.426 28.85 296.646 28.7507C296.866 28.65 297.039 28.5031 297.164 28.3099C297.29 28.1153 297.353 27.8744 297.353 27.586C297.353 27.3166 297.29 27.0948 297.164 26.9193C297.039 26.7437 296.866 26.6104 296.646 26.5206C296.426 26.4294 296.173 26.3845 295.883 26.3845H293.925V28.9004Z" fill="#A6A6A6"/>
<path d="M303.019 29.8385C302.498 29.8385 302.036 29.7269 301.63 29.5051C301.225 29.2833 300.909 28.9758 300.68 28.5839C300.451 28.1921 300.336 27.743 300.336 27.2355C300.336 26.7225 300.444 26.2694 300.661 25.8776C300.877 25.4857 301.176 25.1796 301.559 24.9564C301.943 24.7346 302.382 24.623 302.877 24.623C303.367 24.623 303.787 24.7305 304.139 24.9469C304.491 25.1632 304.758 25.4599 304.944 25.8395C305.129 26.2177 305.222 26.6559 305.222 27.1498C305.222 27.2682 305.181 27.3675 305.099 27.4451C305.017 27.524 304.914 27.5621 304.788 27.5621H300.993V26.811H304.759L304.373 27.0736C304.367 26.7606 304.304 26.4803 304.185 26.2327C304.067 25.9851 303.896 25.7891 303.676 25.6463C303.457 25.502 303.189 25.4299 302.876 25.4299C302.518 25.4299 302.211 25.5088 301.958 25.6653C301.704 25.8218 301.51 26.0368 301.378 26.3089C301.246 26.581 301.18 26.8899 301.18 27.2342C301.18 27.5784 301.258 27.8859 301.416 28.1553C301.573 28.4247 301.79 28.637 302.066 28.7935C302.342 28.9499 302.659 29.0289 303.016 29.0289C303.211 29.0289 303.41 28.9935 303.614 28.9214C303.817 28.8493 303.982 28.7663 304.107 28.6724C304.202 28.603 304.304 28.5676 304.413 28.5649C304.524 28.5622 304.619 28.5948 304.701 28.6628C304.807 28.7567 304.865 28.8601 304.87 28.9731C304.877 29.086 304.826 29.1826 304.72 29.2643C304.507 29.433 304.241 29.5718 303.925 29.6779C303.611 29.7854 303.308 29.8385 303.019 29.8385Z" fill="#A6A6A6"/>
<path d="M309.263 29.8393C308.824 29.8393 308.417 29.7726 308.043 29.6379C307.67 29.5032 307.379 29.3331 307.172 29.1263C307.078 29.0256 307.038 28.9113 307.054 28.7834C307.069 28.6555 307.131 28.5507 307.239 28.4691C307.364 28.3684 307.488 28.3262 307.611 28.3425C307.734 28.3589 307.839 28.4133 307.926 28.5072C308.032 28.6255 308.204 28.7371 308.439 28.8405C308.673 28.9439 308.937 28.9956 309.225 28.9956C309.589 28.9956 309.866 28.9358 310.058 28.8174C310.249 28.699 310.349 28.5453 310.354 28.3575C310.361 28.1697 310.271 28.0064 310.085 27.869C309.9 27.7316 309.563 27.6187 309.073 27.5302C308.439 27.405 307.979 27.2173 307.694 26.9669C307.409 26.7165 307.266 26.409 307.266 26.0457C307.266 25.726 307.36 25.462 307.548 25.2525C307.736 25.0429 307.978 24.8865 308.274 24.783C308.568 24.6796 308.877 24.6279 309.197 24.6279C309.612 24.6279 309.979 24.6932 310.299 24.8252C310.62 24.9572 310.874 25.1382 311.062 25.3695C311.149 25.4702 311.19 25.5749 311.185 25.6838C311.178 25.794 311.125 25.8852 311.025 25.9614C310.924 26.0308 310.805 26.0525 310.668 26.0267C310.53 26.0022 310.414 25.945 310.32 25.858C310.163 25.7083 309.994 25.6049 309.811 25.5477C309.628 25.4919 309.418 25.4634 309.18 25.4634C308.903 25.4634 308.669 25.5096 308.478 25.6049C308.287 25.6988 308.191 25.8362 308.191 26.0185C308.191 26.1315 308.221 26.2335 308.281 26.3233C308.341 26.4145 308.458 26.4961 308.634 26.5669C308.81 26.639 309.068 26.7097 309.406 26.7778C309.877 26.8717 310.249 26.99 310.522 27.1343C310.795 27.2785 310.991 27.4459 311.11 27.6363C311.228 27.8268 311.288 28.0486 311.288 28.299C311.288 28.5874 311.212 28.8473 311.058 29.0786C310.904 29.31 310.677 29.495 310.38 29.6324C310.08 29.7712 309.709 29.8393 309.263 29.8393Z" fill="#A6A6A6"/>
<path d="M313.227 25.6589C313.094 25.6589 312.988 25.6208 312.906 25.5459C312.824 25.4711 312.783 25.3772 312.783 25.2643C312.783 25.1391 312.824 25.0384 312.906 24.9636C312.988 24.8887 313.094 24.8506 313.227 24.8506H315.402C315.534 24.8506 315.641 24.8887 315.723 24.9636C315.805 25.0384 315.845 25.1391 315.845 25.2643C315.845 25.3772 315.805 25.4711 315.723 25.5459C315.641 25.6208 315.534 25.6589 315.402 25.6589H313.227ZM315.318 29.8021C315.004 29.8021 314.721 29.7218 314.47 29.5626C314.22 29.4034 314.022 29.1857 313.877 28.9095C313.733 28.6346 313.66 28.3244 313.66 27.9801V23.4981C313.66 23.3607 313.704 23.2478 313.793 23.1593C313.88 23.0722 313.993 23.0273 314.132 23.0273C314.27 23.0273 314.383 23.0709 314.47 23.1593C314.558 23.2478 314.603 23.3593 314.603 23.4981V27.9788C314.603 28.2291 314.672 28.4387 314.81 28.6088C314.948 28.7775 315.117 28.8619 315.319 28.8619H315.639C315.753 28.8619 315.848 28.9054 315.927 28.9938C316.005 29.0823 316.045 29.1939 316.045 29.3326C316.045 29.4701 315.993 29.583 315.889 29.6714C315.785 29.7585 315.652 29.8034 315.489 29.8034H315.318V29.8021Z" fill="#A6A6A6"/>
<path d="M321.646 25.6589C321.514 25.6589 321.408 25.6208 321.326 25.5459C321.244 25.4711 321.203 25.3772 321.203 25.2643C321.203 25.1391 321.244 25.0384 321.326 24.9636C321.408 24.8887 321.514 24.8506 321.646 24.8506H323.822C323.954 24.8506 324.061 24.8887 324.143 24.9636C324.224 25.0384 324.265 25.1391 324.265 25.2643C324.265 25.3772 324.224 25.4711 324.143 25.5459C324.061 25.6208 323.954 25.6589 323.822 25.6589H321.646ZM323.736 29.8021C323.422 29.8021 323.14 29.7218 322.889 29.5626C322.638 29.4034 322.44 29.1857 322.296 28.9095C322.151 28.6346 322.079 28.3244 322.079 27.9801V23.4981C322.079 23.3607 322.122 23.2478 322.211 23.1593C322.298 23.0722 322.412 23.0273 322.551 23.0273C322.689 23.0273 322.802 23.0709 322.889 23.1593C322.976 23.2478 323.021 23.3593 323.021 23.4981V27.9788C323.021 28.2291 323.091 28.4387 323.229 28.6088C323.366 28.7775 323.536 28.8619 323.737 28.8619H324.058C324.171 28.8619 324.267 28.9054 324.346 28.9938C324.424 29.0823 324.463 29.1939 324.463 29.3326C324.463 29.4701 324.411 29.583 324.308 29.6714C324.204 29.7585 324.07 29.8034 323.908 29.8034H323.736V29.8021Z" fill="#A6A6A6"/>
<path d="M328.915 29.8385C328.406 29.8385 327.957 29.7269 327.569 29.5051C327.18 29.2833 326.873 28.9758 326.651 28.5839C326.428 28.1921 326.316 27.743 326.316 27.2355C326.316 26.7225 326.428 26.2694 326.651 25.8776C326.873 25.4857 327.18 25.1796 327.569 24.9564C327.957 24.7346 328.406 24.623 328.915 24.623C329.417 24.623 329.863 24.7346 330.252 24.9564C330.64 25.1782 330.947 25.4857 331.17 25.8776C331.392 26.2694 331.504 26.7212 331.504 27.2355C331.504 27.743 331.393 28.1921 331.174 28.5839C330.954 28.9758 330.65 29.2819 330.26 29.5051C329.872 29.7269 329.424 29.8385 328.915 29.8385ZM328.915 28.9935C329.241 28.9935 329.53 28.9186 329.781 28.7676C330.032 28.6179 330.228 28.4111 330.369 28.1472C330.511 27.8845 330.58 27.5811 330.58 27.2355C330.58 26.8913 330.509 26.5865 330.369 26.3198C330.227 26.0531 330.032 25.8449 329.781 25.6952C329.53 25.5456 329.241 25.4694 328.915 25.4694C328.589 25.4694 328.3 25.5442 328.049 25.6952C327.798 25.8449 327.6 26.0531 327.455 26.3198C327.311 26.5865 327.238 26.8913 327.238 27.2355C327.238 27.5798 327.311 27.8832 327.455 28.1472C327.6 28.4098 327.798 28.6166 328.049 28.7676C328.3 28.9186 328.588 28.9935 328.915 28.9935Z" fill="#A6A6A6"/>
<path d="M339.875 29.8025C339.743 29.8025 339.629 29.7549 339.537 29.661C339.442 29.5671 339.395 29.4514 339.395 29.314V27.1261L336.881 23.2278C336.799 23.0958 336.768 22.9733 336.787 22.8563C336.806 22.7407 336.86 22.6468 336.952 22.5747C337.043 22.5026 337.148 22.4672 337.267 22.4672C337.373 22.4672 337.458 22.4903 337.521 22.5379C337.583 22.5856 337.643 22.6522 337.699 22.7393L340.09 26.5247H339.714L342.143 22.7012C342.194 22.6264 342.254 22.5679 342.322 22.527C342.391 22.4862 342.476 22.4658 342.576 22.4658C342.689 22.4658 342.783 22.5053 342.858 22.5828C342.933 22.6618 342.977 22.7584 342.99 22.874C343.003 22.9897 342.971 23.1081 342.896 23.2264L340.363 27.1247V29.3127C340.363 29.4501 340.317 29.5657 340.221 29.6596C340.129 29.7549 340.013 29.8025 339.875 29.8025Z" fill="#A6A6A6"/>
<path d="M346.222 29.8385C345.713 29.8385 345.264 29.7269 344.875 29.5051C344.487 29.2833 344.18 28.9758 343.957 28.5839C343.735 28.1921 343.623 27.743 343.623 27.2355C343.623 26.7225 343.735 26.2694 343.957 25.8776C344.18 25.4857 344.487 25.1796 344.875 24.9564C345.264 24.7346 345.713 24.623 346.222 24.623C346.724 24.623 347.17 24.7346 347.558 24.9564C347.947 25.1782 348.254 25.4857 348.476 25.8776C348.699 26.2694 348.81 26.7212 348.81 27.2355C348.81 27.743 348.7 28.1921 348.48 28.5839C348.261 28.9758 347.957 29.2819 347.566 29.5051C347.179 29.7269 346.73 29.8385 346.222 29.8385ZM346.222 28.9935C346.548 28.9935 346.837 28.9186 347.088 28.7676C347.339 28.6179 347.535 28.4111 347.676 28.1472C347.817 27.8845 347.887 27.5811 347.887 27.2355C347.887 26.8913 347.816 26.5865 347.676 26.3198C347.534 26.0531 347.339 25.8449 347.088 25.6952C346.837 25.5456 346.548 25.4694 346.222 25.4694C345.896 25.4694 345.606 25.5442 345.355 25.6952C345.104 25.8449 344.907 26.0531 344.762 26.3198C344.617 26.5865 344.545 26.8913 344.545 27.2355C344.545 27.5798 344.617 27.8832 344.762 28.1472C344.907 28.4098 345.104 28.6166 345.355 28.7676C345.606 28.9186 345.896 28.9935 346.222 28.9935Z" fill="#A6A6A6"/>
<path d="M353.348 29.8489C352.914 29.8489 352.527 29.7564 352.184 29.5713C351.842 29.3863 351.572 29.1155 351.374 28.759C351.176 28.4025 351.078 27.9644 351.078 27.4446V25.1342C351.078 24.9968 351.123 24.8825 351.215 24.7913C351.306 24.7002 351.42 24.6553 351.558 24.6553C351.696 24.6553 351.811 24.7002 351.902 24.7913C351.993 24.8825 352.038 24.9968 352.038 25.1342V27.4446C352.038 27.7957 352.104 28.0855 352.236 28.3141C352.368 28.5427 352.547 28.7114 352.774 28.8216C353 28.9318 353.254 28.9863 353.536 28.9863C353.806 28.9863 354.046 28.9332 354.256 28.8271C354.466 28.7209 354.634 28.5767 354.76 28.3944C354.885 28.2134 354.948 28.0093 354.948 27.7834H355.541C355.541 28.1712 355.446 28.5223 355.253 28.8352C355.062 29.1482 354.802 29.3958 354.472 29.5768C354.143 29.7577 353.768 29.8489 353.348 29.8489ZM355.428 29.8027C355.29 29.8027 355.176 29.7577 355.084 29.6666C354.993 29.5754 354.948 29.4611 354.948 29.3237V25.1342C354.948 24.99 354.993 24.8743 355.084 24.7873C355.176 24.7002 355.29 24.6553 355.428 24.6553C355.573 24.6553 355.689 24.6988 355.776 24.7873C355.863 24.8743 355.908 24.9914 355.908 25.1342V29.3237C355.908 29.4611 355.865 29.5754 355.776 29.6666C355.689 29.7564 355.573 29.8027 355.428 29.8027Z" fill="#A6A6A6"/>
<path d="M358.819 29.9521C358.643 29.9521 358.49 29.8882 358.362 29.7589C358.234 29.631 358.17 29.4786 358.17 29.3031C358.17 29.1221 358.234 28.967 358.362 28.8377C358.49 28.7098 358.643 28.6445 358.819 28.6445C359.001 28.6445 359.155 28.7085 359.28 28.8377C359.406 28.9656 359.468 29.1208 359.468 29.3031C359.468 29.4786 359.406 29.631 359.28 29.7589C359.155 29.8882 359.002 29.9521 358.819 29.9521Z" fill="#A6A6A6"/>
</g>
<defs>
<clipPath id="clip0_1908_23774">
<rect width="328" height="32" fill="white" transform="translate(38)"/>
</clipPath>
</defs>
</svg>
