<?xml version="1.0" encoding="utf-8"?>
<!-- Generator: Adobe Illustrator 17.0.0, SVG Export Plug-In . SVG Version: 6.00 Build 0)  -->
<!DOCTYPE svg PUBLIC "-//W3C//DTD SVG 1.1//EN" "http://www.w3.org/Graphics/SVG/1.1/DTD/svg11.dtd">
<svg version="1.1" id="Layer_1" xmlns="http://www.w3.org/2000/svg" xmlns:xlink="http://www.w3.org/1999/xlink" x="0px" y="0px"
	 width="24px" height="24px" viewBox="0 0 24 24" enable-background="new 0 0 24 24" xml:space="preserve" fill="rgb(255, 163, 0)">
<polygon points="19.713,14.574 21,13.287 19.713,12 16.5,15.213 8.787,7.5 12,4.287 10.713,3 9.426,4.287 8.139,3 6.213,4.926 
	4.926,3.639 3.639,4.926 4.926,6.213 3,8.139 4.287,9.426 3,10.713 4.287,12 7.5,8.787 15.213,16.5 12,19.713 13.287,21 
	14.574,19.713 15.861,21 17.787,19.074 19.074,20.361 20.361,19.074 19.074,17.787 21,15.861 "/>
<rect fill="none" width="24" height="24"/>
</svg>
