<?xml version="1.0" encoding="utf-8"?>
<!-- Generator: Adobe Illustrator 17.0.0, SVG Export Plug-In . SVG Version: 6.00 Build 0)  -->
<!DOCTYPE svg PUBLIC "-//W3C//DTD SVG 1.1//EN" "http://www.w3.org/Graphics/SVG/1.1/DTD/svg11.dtd">
<svg version="1.1" id="Layer_1" xmlns="http://www.w3.org/2000/svg" xmlns:xlink="http://www.w3.org/1999/xlink" x="0px" y="0px"
	 width="24px" height="24px" viewBox="0 0 24 24" enable-background="new 0 0 24 24" xml:space="preserve" fill="rgb(121, 33, 104)">
<path d="M19,3H4.99C3.88,3,3.01,3.89,3.01,5L3,19c0,1.1,0.879,2,1.99,2H19c1.1,0,2-0.9,2-2V5C21,3.89,20.1,3,19,3z M19,5v5.654
	h-5.45L12.6,8.386l-1.524,3.697l-2.49-6.254l-2.073,4.825H4.99V5H19z M12,19.328c-0.829,0-1.5-0.671-1.5-1.5
	c0-0.829,0.671-1.5,1.5-1.5s1.5,0.671,1.5,1.5C13.5,18.656,12.829,19.328,12,19.328z M4.99,15v-3.596h2.018L8.559,7.79l2.505,6.29
	l1.542-3.741l0.446,1.064h5.947v3.596L4.99,15L4.99,15z"/>
<rect fill="none" width="24" height="24"/>
</svg>
